M48
; DRILL file {KiCad 8.0.2} date 2025-01-15T11:34:11+0700
; FORMAT={-:-/ absolute / inch / decimal}
; #@! TF.CreationDate,2025-01-15T11:34:11+07:00
; #@! TF.GenerationSoftware,Kicad,Pcbnew,8.0.2
; #@! TF.FileFunction,Plated,1,2,PTH
FMAT,2
INCH
; #@! TA.AperFunction,Plated,PTH,ComponentDrill
T1C0.0354
; #@! TA.AperFunction,Plated,PTH,ViaDrill
T2C0.1260
%
G90
G05
T1
X2.0689Y-2.2709
X2.0689Y-2.3709
X2.0689Y-2.4709
X2.0689Y-2.5709
X2.0689Y-2.6709
X2.0689Y-2.7709
X2.0689Y-2.8709
X2.0689Y-2.9709
X2.0689Y-3.0709
X2.0689Y-3.1709
X2.0689Y-3.2709
X2.0689Y-3.3709
X2.0689Y-3.4709
X2.0689Y-3.5709
X2.0689Y-3.6709
X2.0689Y-3.7709
X2.0689Y-3.8709
X2.0689Y-3.9709
X2.0689Y-4.0709
X2.0689Y-4.1709
X2.0689Y-4.2709
X2.0689Y-4.3709
X2.0689Y-4.4709
X2.0689Y-4.5709
X2.0689Y-4.6709
X2.0689Y-4.7709
X2.0689Y-4.8709
X2.0689Y-4.9709
X2.0689Y-5.0709
X2.0689Y-5.1709
X2.0689Y-5.2709
X2.0689Y-5.3709
X2.1689Y-2.2709
X2.1689Y-2.3709
X2.1689Y-2.4709
X2.1689Y-2.5709
X2.1689Y-2.6709
X2.1689Y-2.7709
X2.1689Y-2.8709
X2.1689Y-2.9709
X2.1689Y-3.0709
X2.1689Y-3.1709
X2.1689Y-3.2709
X2.1689Y-3.3709
X2.1689Y-3.4709
X2.1689Y-3.5709
X2.1689Y-3.6709
X2.1689Y-3.7709
X2.1689Y-3.8709
X2.1689Y-3.9709
X2.1689Y-4.0709
X2.1689Y-4.1709
X2.1689Y-4.2709
X2.1689Y-4.3709
X2.1689Y-4.4709
X2.1689Y-4.5709
X2.1689Y-4.6709
X2.1689Y-4.7709
X2.1689Y-4.8709
X2.1689Y-4.9709
X2.1689Y-5.0709
X2.1689Y-5.1709
X2.1689Y-5.2709
X2.1689Y-5.3709
X2.2689Y-2.0709
X2.2689Y-2.1709
X2.2689Y-2.2709
X2.2689Y-2.3709
X2.2689Y-2.4709
X2.2689Y-2.5709
X2.2689Y-2.6709
X2.2689Y-2.7709
X2.2689Y-2.8709
X2.2689Y-2.9709
X2.2689Y-3.0709
X2.2689Y-3.1709
X2.2689Y-3.2709
X2.2689Y-3.3709
X2.2689Y-3.4709
X2.2689Y-3.5709
X2.2689Y-3.6709
X2.2689Y-3.7709
X2.2689Y-3.8709
X2.2689Y-3.9709
X2.2689Y-4.0709
X2.2689Y-4.1709
X2.2689Y-4.2709
X2.2689Y-4.3709
X2.2689Y-4.4709
X2.2689Y-4.5709
X2.2689Y-4.6709
X2.2689Y-4.7709
X2.2689Y-4.8709
X2.2689Y-4.9709
X2.2689Y-5.0709
X2.2689Y-5.1709
X2.2689Y-5.2709
X2.2689Y-5.3709
X2.2689Y-5.4709
X2.2689Y-5.5709
X2.3689Y-2.0709
X2.3689Y-2.1709
X2.3689Y-2.2709
X2.3689Y-2.3709
X2.3689Y-2.4709
X2.3689Y-2.5709
X2.3689Y-2.6709
X2.3689Y-2.7709
X2.3689Y-2.8709
X2.3689Y-2.9709
X2.3689Y-3.0709
X2.3689Y-3.1709
X2.3689Y-3.2709
X2.3689Y-3.3709
X2.3689Y-3.4709
X2.3689Y-3.5709
X2.3689Y-3.6709
X2.3689Y-3.7709
X2.3689Y-3.8709
X2.3689Y-3.9709
X2.3689Y-4.0709
X2.3689Y-4.1709
X2.3689Y-4.2709
X2.3689Y-4.3709
X2.3689Y-4.4709
X2.3689Y-4.5709
X2.3689Y-4.6709
X2.3689Y-4.7709
X2.3689Y-4.8709
X2.3689Y-4.9709
X2.3689Y-5.0709
X2.3689Y-5.1709
X2.3689Y-5.2709
X2.3689Y-5.3709
X2.3689Y-5.4709
X2.3689Y-5.5709
X2.4689Y-2.0709
X2.4689Y-2.1709
X2.4689Y-2.2709
X2.4689Y-2.3709
X2.4689Y-2.4709
X2.4689Y-2.5709
X2.4689Y-2.6709
X2.4689Y-2.7709
X2.4689Y-2.8709
X2.4689Y-2.9709
X2.4689Y-3.0709
X2.4689Y-3.1709
X2.4689Y-3.2709
X2.4689Y-3.3709
X2.4689Y-3.4709
X2.4689Y-3.5709
X2.4689Y-3.6709
X2.4689Y-3.7709
X2.4689Y-3.8709
X2.4689Y-3.9709
X2.4689Y-4.0709
X2.4689Y-4.1709
X2.4689Y-4.2709
X2.4689Y-4.3709
X2.4689Y-4.4709
X2.4689Y-4.5709
X2.4689Y-4.6709
X2.4689Y-4.7709
X2.4689Y-4.8709
X2.4689Y-4.9709
X2.4689Y-5.0709
X2.4689Y-5.1709
X2.4689Y-5.2709
X2.4689Y-5.3709
X2.4689Y-5.4709
X2.4689Y-5.5709
X2.5689Y-2.0709
X2.5689Y-2.1709
X2.5689Y-2.2709
X2.5689Y-2.3709
X2.5689Y-2.4709
X2.5689Y-2.5709
X2.5689Y-2.6709
X2.5689Y-2.7709
X2.5689Y-2.8709
X2.5689Y-2.9709
X2.5689Y-3.0709
X2.5689Y-3.1709
X2.5689Y-3.2709
X2.5689Y-3.3709
X2.5689Y-3.4709
X2.5689Y-3.5709
X2.5689Y-3.6709
X2.5689Y-3.7709
X2.5689Y-3.8709
X2.5689Y-3.9709
X2.5689Y-4.0709
X2.5689Y-4.1709
X2.5689Y-4.2709
X2.5689Y-4.3709
X2.5689Y-4.4709
X2.5689Y-4.5709
X2.5689Y-4.6709
X2.5689Y-4.7709
X2.5689Y-4.8709
X2.5689Y-4.9709
X2.5689Y-5.0709
X2.5689Y-5.1709
X2.5689Y-5.2709
X2.5689Y-5.3709
X2.5689Y-5.4709
X2.5689Y-5.5709
X2.6689Y-2.0709
X2.6689Y-2.1709
X2.6689Y-2.2709
X2.6689Y-2.3709
X2.6689Y-2.4709
X2.6689Y-2.5709
X2.6689Y-2.6709
X2.6689Y-2.7709
X2.6689Y-2.8709
X2.6689Y-2.9709
X2.6689Y-3.0709
X2.6689Y-3.1709
X2.6689Y-3.2709
X2.6689Y-3.3709
X2.6689Y-3.4709
X2.6689Y-3.5709
X2.6689Y-3.6709
X2.6689Y-3.7709
X2.6689Y-3.8709
X2.6689Y-3.9709
X2.6689Y-4.0709
X2.6689Y-4.1709
X2.6689Y-4.2709
X2.6689Y-4.3709
X2.6689Y-4.4709
X2.6689Y-4.5709
X2.6689Y-4.6709
X2.6689Y-4.7709
X2.6689Y-4.8709
X2.6689Y-4.9709
X2.6689Y-5.0709
X2.6689Y-5.1709
X2.6689Y-5.2709
X2.6689Y-5.3709
X2.6689Y-5.4709
X2.6689Y-5.5709
X2.7689Y-2.0709
X2.7689Y-2.1709
X2.7689Y-2.2709
X2.7689Y-2.3709
X2.7689Y-2.4709
X2.7689Y-2.5709
X2.7689Y-2.6709
X2.7689Y-2.7709
X2.7689Y-2.8709
X2.7689Y-2.9709
X2.7689Y-3.0709
X2.7689Y-3.1709
X2.7689Y-3.2709
X2.7689Y-3.3709
X2.7689Y-3.4709
X2.7689Y-3.5709
X2.7689Y-3.6709
X2.7689Y-3.7709
X2.7689Y-3.8709
X2.7689Y-3.9709
X2.7689Y-4.0709
X2.7689Y-4.1709
X2.7689Y-4.2709
X2.7689Y-4.3709
X2.7689Y-4.4709
X2.7689Y-4.5709
X2.7689Y-4.6709
X2.7689Y-4.7709
X2.7689Y-4.8709
X2.7689Y-4.9709
X2.7689Y-5.0709
X2.7689Y-5.1709
X2.7689Y-5.2709
X2.7689Y-5.3709
X2.7689Y-5.4709
X2.7689Y-5.5709
X2.8689Y-2.0709
X2.8689Y-2.1709
X2.8689Y-2.2709
X2.8689Y-2.3709
X2.8689Y-2.4709
X2.8689Y-2.5709
X2.8689Y-2.6709
X2.8689Y-2.7709
X2.8689Y-2.8709
X2.8689Y-2.9709
X2.8689Y-3.0709
X2.8689Y-3.1709
X2.8689Y-3.2709
X2.8689Y-3.3709
X2.8689Y-3.4709
X2.8689Y-3.5709
X2.8689Y-3.6709
X2.8689Y-3.7709
X2.8689Y-3.8709
X2.8689Y-3.9709
X2.8689Y-4.0709
X2.8689Y-4.1709
X2.8689Y-4.2709
X2.8689Y-4.3709
X2.8689Y-4.4709
X2.8689Y-4.5709
X2.8689Y-4.6709
X2.8689Y-4.7709
X2.8689Y-4.8709
X2.8689Y-4.9709
X2.8689Y-5.0709
X2.8689Y-5.1709
X2.8689Y-5.2709
X2.8689Y-5.3709
X2.8689Y-5.4709
X2.8689Y-5.5709
X2.9689Y-2.0709
X2.9689Y-2.1709
X2.9689Y-2.2709
X2.9689Y-2.3709
X2.9689Y-2.4709
X2.9689Y-2.5709
X2.9689Y-2.6709
X2.9689Y-2.7709
X2.9689Y-2.8709
X2.9689Y-2.9709
X2.9689Y-3.0709
X2.9689Y-3.1709
X2.9689Y-3.2709
X2.9689Y-3.3709
X2.9689Y-3.4709
X2.9689Y-3.5709
X2.9689Y-3.6709
X2.9689Y-3.7709
X2.9689Y-3.8709
X2.9689Y-3.9709
X2.9689Y-4.0709
X2.9689Y-4.1709
X2.9689Y-4.2709
X2.9689Y-4.3709
X2.9689Y-4.4709
X2.9689Y-4.5709
X2.9689Y-4.6709
X2.9689Y-4.7709
X2.9689Y-4.8709
X2.9689Y-4.9709
X2.9689Y-5.0709
X2.9689Y-5.1709
X2.9689Y-5.2709
X2.9689Y-5.3709
X2.9689Y-5.4709
X2.9689Y-5.5709
X3.0689Y-2.0709
X3.0689Y-2.1709
X3.0689Y-2.2709
X3.0689Y-2.3709
X3.0689Y-2.4709
X3.0689Y-2.5709
X3.0689Y-2.6709
X3.0689Y-2.7709
X3.0689Y-2.8709
X3.0689Y-2.9709
X3.0689Y-3.0709
X3.0689Y-3.1709
X3.0689Y-3.2709
X3.0689Y-3.3709
X3.0689Y-3.4709
X3.0689Y-3.5709
X3.0689Y-3.6709
X3.0689Y-3.7709
X3.0689Y-3.8709
X3.0689Y-3.9709
X3.0689Y-4.0709
X3.0689Y-4.1709
X3.0689Y-4.2709
X3.0689Y-4.3709
X3.0689Y-4.4709
X3.0689Y-4.5709
X3.0689Y-4.6709
X3.0689Y-4.7709
X3.0689Y-4.8709
X3.0689Y-4.9709
X3.0689Y-5.0709
X3.0689Y-5.1709
X3.0689Y-5.2709
X3.0689Y-5.3709
X3.0689Y-5.4709
X3.0689Y-5.5709
X3.1689Y-2.0709
X3.1689Y-2.1709
X3.1689Y-2.2709
X3.1689Y-2.3709
X3.1689Y-2.4709
X3.1689Y-2.5709
X3.1689Y-2.6709
X3.1689Y-2.7709
X3.1689Y-2.8709
X3.1689Y-2.9709
X3.1689Y-3.0709
X3.1689Y-3.1709
X3.1689Y-3.2709
X3.1689Y-3.3709
X3.1689Y-3.4709
X3.1689Y-3.5709
X3.1689Y-3.6709
X3.1689Y-3.7709
X3.1689Y-3.8709
X3.1689Y-3.9709
X3.1689Y-4.0709
X3.1689Y-4.1709
X3.1689Y-4.2709
X3.1689Y-4.3709
X3.1689Y-4.4709
X3.1689Y-4.5709
X3.1689Y-4.6709
X3.1689Y-4.7709
X3.1689Y-4.8709
X3.1689Y-4.9709
X3.1689Y-5.0709
X3.1689Y-5.1709
X3.1689Y-5.2709
X3.1689Y-5.3709
X3.1689Y-5.4709
X3.1689Y-5.5709
X3.2689Y-2.0709
X3.2689Y-2.1709
X3.2689Y-2.2709
X3.2689Y-2.3709
X3.2689Y-2.4709
X3.2689Y-2.5709
X3.2689Y-2.6709
X3.2689Y-2.7709
X3.2689Y-2.8709
X3.2689Y-2.9709
X3.2689Y-3.0709
X3.2689Y-3.1709
X3.2689Y-3.2709
X3.2689Y-3.3709
X3.2689Y-3.4709
X3.2689Y-3.5709
X3.2689Y-3.6709
X3.2689Y-3.7709
X3.2689Y-3.8709
X3.2689Y-3.9709
X3.2689Y-4.0709
X3.2689Y-4.1709
X3.2689Y-4.2709
X3.2689Y-4.3709
X3.2689Y-4.4709
X3.2689Y-4.5709
X3.2689Y-4.6709
X3.2689Y-4.7709
X3.2689Y-4.8709
X3.2689Y-4.9709
X3.2689Y-5.0709
X3.2689Y-5.1709
X3.2689Y-5.2709
X3.2689Y-5.3709
X3.2689Y-5.4709
X3.2689Y-5.5709
X3.3689Y-2.0709
X3.3689Y-2.1709
X3.3689Y-2.2709
X3.3689Y-2.3709
X3.3689Y-2.4709
X3.3689Y-2.5709
X3.3689Y-2.6709
X3.3689Y-2.7709
X3.3689Y-2.8709
X3.3689Y-2.9709
X3.3689Y-3.0709
X3.3689Y-3.1709
X3.3689Y-3.2709
X3.3689Y-3.3709
X3.3689Y-3.4709
X3.3689Y-3.5709
X3.3689Y-3.6709
X3.3689Y-3.7709
X3.3689Y-3.8709
X3.3689Y-3.9709
X3.3689Y-4.0709
X3.3689Y-4.1709
X3.3689Y-4.2709
X3.3689Y-4.3709
X3.3689Y-4.4709
X3.3689Y-4.5709
X3.3689Y-4.6709
X3.3689Y-4.7709
X3.3689Y-4.8709
X3.3689Y-4.9709
X3.3689Y-5.0709
X3.3689Y-5.1709
X3.3689Y-5.2709
X3.3689Y-5.3709
X3.3689Y-5.4709
X3.3689Y-5.5709
X3.4689Y-2.0709
X3.4689Y-2.1709
X3.4689Y-2.2709
X3.4689Y-2.3709
X3.4689Y-2.4709
X3.4689Y-2.5709
X3.4689Y-2.6709
X3.4689Y-2.7709
X3.4689Y-2.8709
X3.4689Y-2.9709
X3.4689Y-3.0709
X3.4689Y-3.1709
X3.4689Y-3.2709
X3.4689Y-3.3709
X3.4689Y-3.4709
X3.4689Y-3.5709
X3.4689Y-3.6709
X3.4689Y-3.7709
X3.4689Y-3.8709
X3.4689Y-3.9709
X3.4689Y-4.0709
X3.4689Y-4.1709
X3.4689Y-4.2709
X3.4689Y-4.3709
X3.4689Y-4.4709
X3.4689Y-4.5709
X3.4689Y-4.6709
X3.4689Y-4.7709
X3.4689Y-4.8709
X3.4689Y-4.9709
X3.4689Y-5.0709
X3.4689Y-5.1709
X3.4689Y-5.2709
X3.4689Y-5.3709
X3.4689Y-5.4709
X3.4689Y-5.5709
X3.5689Y-2.0709
X3.5689Y-2.1709
X3.5689Y-2.2709
X3.5689Y-2.3709
X3.5689Y-2.4709
X3.5689Y-2.5709
X3.5689Y-2.6709
X3.5689Y-2.7709
X3.5689Y-2.8709
X3.5689Y-2.9709
X3.5689Y-3.0709
X3.5689Y-3.1709
X3.5689Y-3.2709
X3.5689Y-3.3709
X3.5689Y-3.4709
X3.5689Y-3.5709
X3.5689Y-3.6709
X3.5689Y-3.7709
X3.5689Y-3.8709
X3.5689Y-3.9709
X3.5689Y-4.0709
X3.5689Y-4.1709
X3.5689Y-4.2709
X3.5689Y-4.3709
X3.5689Y-4.4709
X3.5689Y-4.5709
X3.5689Y-4.6709
X3.5689Y-4.7709
X3.5689Y-4.8709
X3.5689Y-4.9709
X3.5689Y-5.0709
X3.5689Y-5.1709
X3.5689Y-5.2709
X3.5689Y-5.3709
X3.5689Y-5.4709
X3.5689Y-5.5709
X3.6689Y-2.0709
X3.6689Y-2.1709
X3.6689Y-2.2709
X3.6689Y-2.3709
X3.6689Y-2.4709
X3.6689Y-2.5709
X3.6689Y-2.6709
X3.6689Y-2.7709
X3.6689Y-2.8709
X3.6689Y-2.9709
X3.6689Y-3.0709
X3.6689Y-3.1709
X3.6689Y-3.2709
X3.6689Y-3.3709
X3.6689Y-3.4709
X3.6689Y-3.5709
X3.6689Y-3.6709
X3.6689Y-3.7709
X3.6689Y-3.8709
X3.6689Y-3.9709
X3.6689Y-4.0709
X3.6689Y-4.1709
X3.6689Y-4.2709
X3.6689Y-4.3709
X3.6689Y-4.4709
X3.6689Y-4.5709
X3.6689Y-4.6709
X3.6689Y-4.7709
X3.6689Y-4.8709
X3.6689Y-4.9709
X3.6689Y-5.0709
X3.6689Y-5.1709
X3.6689Y-5.2709
X3.6689Y-5.3709
X3.6689Y-5.4709
X3.6689Y-5.5709
X3.7689Y-2.0709
X3.7689Y-2.1709
X3.7689Y-2.2709
X3.7689Y-2.3709
X3.7689Y-2.4709
X3.7689Y-2.5709
X3.7689Y-2.6709
X3.7689Y-2.7709
X3.7689Y-2.8709
X3.7689Y-2.9709
X3.7689Y-3.0709
X3.7689Y-3.1709
X3.7689Y-3.2709
X3.7689Y-3.3709
X3.7689Y-3.4709
X3.7689Y-3.5709
X3.7689Y-3.6709
X3.7689Y-3.7709
X3.7689Y-3.8709
X3.7689Y-3.9709
X3.7689Y-4.0709
X3.7689Y-4.1709
X3.7689Y-4.2709
X3.7689Y-4.3709
X3.7689Y-4.4709
X3.7689Y-4.5709
X3.7689Y-4.6709
X3.7689Y-4.7709
X3.7689Y-4.8709
X3.7689Y-4.9709
X3.7689Y-5.0709
X3.7689Y-5.1709
X3.7689Y-5.2709
X3.7689Y-5.3709
X3.7689Y-5.4709
X3.7689Y-5.5709
X3.8689Y-2.0709
X3.8689Y-2.1709
X3.8689Y-2.2709
X3.8689Y-2.3709
X3.8689Y-2.4709
X3.8689Y-2.5709
X3.8689Y-2.6709
X3.8689Y-2.7709
X3.8689Y-2.8709
X3.8689Y-2.9709
X3.8689Y-3.0709
X3.8689Y-3.1709
X3.8689Y-3.2709
X3.8689Y-3.3709
X3.8689Y-3.4709
X3.8689Y-3.5709
X3.8689Y-3.6709
X3.8689Y-3.7709
X3.8689Y-3.8709
X3.8689Y-3.9709
X3.8689Y-4.0709
X3.8689Y-4.1709
X3.8689Y-4.2709
X3.8689Y-4.3709
X3.8689Y-4.4709
X3.8689Y-4.5709
X3.8689Y-4.6709
X3.8689Y-4.7709
X3.8689Y-4.8709
X3.8689Y-4.9709
X3.8689Y-5.0709
X3.8689Y-5.1709
X3.8689Y-5.2709
X3.8689Y-5.3709
X3.8689Y-5.4709
X3.8689Y-5.5709
X3.9689Y-2.0709
X3.9689Y-2.1709
X3.9689Y-2.2709
X3.9689Y-2.3709
X3.9689Y-2.4709
X3.9689Y-2.5709
X3.9689Y-2.6709
X3.9689Y-2.7709
X3.9689Y-2.8709
X3.9689Y-2.9709
X3.9689Y-3.0709
X3.9689Y-3.1709
X3.9689Y-3.2709
X3.9689Y-3.3709
X3.9689Y-3.4709
X3.9689Y-3.5709
X3.9689Y-3.6709
X3.9689Y-3.7709
X3.9689Y-3.8709
X3.9689Y-3.9709
X3.9689Y-4.0709
X3.9689Y-4.1709
X3.9689Y-4.2709
X3.9689Y-4.3709
X3.9689Y-4.4709
X3.9689Y-4.5709
X3.9689Y-4.6709
X3.9689Y-4.7709
X3.9689Y-4.8709
X3.9689Y-4.9709
X3.9689Y-5.0709
X3.9689Y-5.1709
X3.9689Y-5.2709
X3.9689Y-5.3709
X3.9689Y-5.4709
X3.9689Y-5.5709
X4.0689Y-2.0709
X4.0689Y-2.1709
X4.0689Y-2.2709
X4.0689Y-2.3709
X4.0689Y-2.4709
X4.0689Y-2.5709
X4.0689Y-2.6709
X4.0689Y-2.7709
X4.0689Y-2.8709
X4.0689Y-2.9709
X4.0689Y-3.0709
X4.0689Y-3.1709
X4.0689Y-3.2709
X4.0689Y-3.3709
X4.0689Y-3.4709
X4.0689Y-3.5709
X4.0689Y-3.6709
X4.0689Y-3.7709
X4.0689Y-3.8709
X4.0689Y-3.9709
X4.0689Y-4.0709
X4.0689Y-4.1709
X4.0689Y-4.2709
X4.0689Y-4.3709
X4.0689Y-4.4709
X4.0689Y-4.5709
X4.0689Y-4.6709
X4.0689Y-4.7709
X4.0689Y-4.8709
X4.0689Y-4.9709
X4.0689Y-5.0709
X4.0689Y-5.1709
X4.0689Y-5.2709
X4.0689Y-5.3709
X4.0689Y-5.4709
X4.0689Y-5.5709
X4.1689Y-2.0709
X4.1689Y-2.1709
X4.1689Y-2.2709
X4.1689Y-2.3709
X4.1689Y-2.4709
X4.1689Y-2.5709
X4.1689Y-2.6709
X4.1689Y-2.7709
X4.1689Y-2.8709
X4.1689Y-2.9709
X4.1689Y-3.0709
X4.1689Y-3.1709
X4.1689Y-3.2709
X4.1689Y-3.3709
X4.1689Y-3.4709
X4.1689Y-3.5709
X4.1689Y-3.6709
X4.1689Y-3.7709
X4.1689Y-3.8709
X4.1689Y-3.9709
X4.1689Y-4.0709
X4.1689Y-4.1709
X4.1689Y-4.2709
X4.1689Y-4.3709
X4.1689Y-4.4709
X4.1689Y-4.5709
X4.1689Y-4.6709
X4.1689Y-4.7709
X4.1689Y-4.8709
X4.1689Y-4.9709
X4.1689Y-5.0709
X4.1689Y-5.1709
X4.1689Y-5.2709
X4.1689Y-5.3709
X4.1689Y-5.4709
X4.1689Y-5.5709
X4.2689Y-2.0709
X4.2689Y-2.1709
X4.2689Y-2.2709
X4.2689Y-2.3709
X4.2689Y-2.4709
X4.2689Y-2.5709
X4.2689Y-2.6709
X4.2689Y-2.7709
X4.2689Y-2.8709
X4.2689Y-2.9709
X4.2689Y-3.0709
X4.2689Y-3.1709
X4.2689Y-3.2709
X4.2689Y-3.3709
X4.2689Y-3.4709
X4.2689Y-3.5709
X4.2689Y-3.6709
X4.2689Y-3.7709
X4.2689Y-3.8709
X4.2689Y-3.9709
X4.2689Y-4.0709
X4.2689Y-4.1709
X4.2689Y-4.2709
X4.2689Y-4.3709
X4.2689Y-4.4709
X4.2689Y-4.5709
X4.2689Y-4.6709
X4.2689Y-4.7709
X4.2689Y-4.8709
X4.2689Y-4.9709
X4.2689Y-5.0709
X4.2689Y-5.1709
X4.2689Y-5.2709
X4.2689Y-5.3709
X4.2689Y-5.4709
X4.2689Y-5.5709
X4.3689Y-2.0709
X4.3689Y-2.1709
X4.3689Y-2.2709
X4.3689Y-2.3709
X4.3689Y-2.4709
X4.3689Y-2.5709
X4.3689Y-2.6709
X4.3689Y-2.7709
X4.3689Y-2.8709
X4.3689Y-2.9709
X4.3689Y-3.0709
X4.3689Y-3.1709
X4.3689Y-3.2709
X4.3689Y-3.3709
X4.3689Y-3.4709
X4.3689Y-3.5709
X4.3689Y-3.6709
X4.3689Y-3.7709
X4.3689Y-3.8709
X4.3689Y-3.9709
X4.3689Y-4.0709
X4.3689Y-4.1709
X4.3689Y-4.2709
X4.3689Y-4.3709
X4.3689Y-4.4709
X4.3689Y-4.5709
X4.3689Y-4.6709
X4.3689Y-4.7709
X4.3689Y-4.8709
X4.3689Y-4.9709
X4.3689Y-5.0709
X4.3689Y-5.1709
X4.3689Y-5.2709
X4.3689Y-5.3709
X4.3689Y-5.4709
X4.3689Y-5.5709
X4.4689Y-2.0709
X4.4689Y-2.1709
X4.4689Y-2.2709
X4.4689Y-2.3709
X4.4689Y-2.4709
X4.4689Y-2.5709
X4.4689Y-2.6709
X4.4689Y-2.7709
X4.4689Y-2.8709
X4.4689Y-2.9709
X4.4689Y-3.0709
X4.4689Y-3.1709
X4.4689Y-3.2709
X4.4689Y-3.3709
X4.4689Y-3.4709
X4.4689Y-3.5709
X4.4689Y-3.6709
X4.4689Y-3.7709
X4.4689Y-3.8709
X4.4689Y-3.9709
X4.4689Y-4.0709
X4.4689Y-4.1709
X4.4689Y-4.2709
X4.4689Y-4.3709
X4.4689Y-4.4709
X4.4689Y-4.5709
X4.4689Y-4.6709
X4.4689Y-4.7709
X4.4689Y-4.8709
X4.4689Y-4.9709
X4.4689Y-5.0709
X4.4689Y-5.1709
X4.4689Y-5.2709
X4.4689Y-5.3709
X4.4689Y-5.4709
X4.4689Y-5.5709
X4.5689Y-2.0709
X4.5689Y-2.1709
X4.5689Y-2.2709
X4.5689Y-2.3709
X4.5689Y-2.4709
X4.5689Y-2.5709
X4.5689Y-2.6709
X4.5689Y-2.7709
X4.5689Y-2.8709
X4.5689Y-2.9709
X4.5689Y-3.0709
X4.5689Y-3.1709
X4.5689Y-3.2709
X4.5689Y-3.3709
X4.5689Y-3.4709
X4.5689Y-3.5709
X4.5689Y-3.6709
X4.5689Y-3.7709
X4.5689Y-3.8709
X4.5689Y-3.9709
X4.5689Y-4.0709
X4.5689Y-4.1709
X4.5689Y-4.2709
X4.5689Y-4.3709
X4.5689Y-4.4709
X4.5689Y-4.5709
X4.5689Y-4.6709
X4.5689Y-4.7709
X4.5689Y-4.8709
X4.5689Y-4.9709
X4.5689Y-5.0709
X4.5689Y-5.1709
X4.5689Y-5.2709
X4.5689Y-5.3709
X4.5689Y-5.4709
X4.5689Y-5.5709
X4.6689Y-2.0709
X4.6689Y-2.1709
X4.6689Y-2.2709
X4.6689Y-2.3709
X4.6689Y-2.4709
X4.6689Y-2.5709
X4.6689Y-2.6709
X4.6689Y-2.7709
X4.6689Y-2.8709
X4.6689Y-2.9709
X4.6689Y-3.0709
X4.6689Y-3.1709
X4.6689Y-3.2709
X4.6689Y-3.3709
X4.6689Y-3.4709
X4.6689Y-3.5709
X4.6689Y-3.6709
X4.6689Y-3.7709
X4.6689Y-3.8709
X4.6689Y-3.9709
X4.6689Y-4.0709
X4.6689Y-4.1709
X4.6689Y-4.2709
X4.6689Y-4.3709
X4.6689Y-4.4709
X4.6689Y-4.5709
X4.6689Y-4.6709
X4.6689Y-4.7709
X4.6689Y-4.8709
X4.6689Y-4.9709
X4.6689Y-5.0709
X4.6689Y-5.1709
X4.6689Y-5.2709
X4.6689Y-5.3709
X4.6689Y-5.4709
X4.6689Y-5.5709
X4.7689Y-2.0709
X4.7689Y-2.1709
X4.7689Y-2.2709
X4.7689Y-2.3709
X4.7689Y-2.4709
X4.7689Y-2.5709
X4.7689Y-2.6709
X4.7689Y-2.7709
X4.7689Y-2.8709
X4.7689Y-2.9709
X4.7689Y-3.0709
X4.7689Y-3.1709
X4.7689Y-3.2709
X4.7689Y-3.3709
X4.7689Y-3.4709
X4.7689Y-3.5709
X4.7689Y-3.6709
X4.7689Y-3.7709
X4.7689Y-3.8709
X4.7689Y-3.9709
X4.7689Y-4.0709
X4.7689Y-4.1709
X4.7689Y-4.2709
X4.7689Y-4.3709
X4.7689Y-4.4709
X4.7689Y-4.5709
X4.7689Y-4.6709
X4.7689Y-4.7709
X4.7689Y-4.8709
X4.7689Y-4.9709
X4.7689Y-5.0709
X4.7689Y-5.1709
X4.7689Y-5.2709
X4.7689Y-5.3709
X4.7689Y-5.4709
X4.7689Y-5.5709
X4.8689Y-2.0709
X4.8689Y-2.1709
X4.8689Y-2.2709
X4.8689Y-2.3709
X4.8689Y-2.4709
X4.8689Y-2.5709
X4.8689Y-2.6709
X4.8689Y-2.7709
X4.8689Y-2.8709
X4.8689Y-2.9709
X4.8689Y-3.0709
X4.8689Y-3.1709
X4.8689Y-3.2709
X4.8689Y-3.3709
X4.8689Y-3.4709
X4.8689Y-3.5709
X4.8689Y-3.6709
X4.8689Y-3.7709
X4.8689Y-3.8709
X4.8689Y-3.9709
X4.8689Y-4.0709
X4.8689Y-4.1709
X4.8689Y-4.2709
X4.8689Y-4.3709
X4.8689Y-4.4709
X4.8689Y-4.5709
X4.8689Y-4.6709
X4.8689Y-4.7709
X4.8689Y-4.8709
X4.8689Y-4.9709
X4.8689Y-5.0709
X4.8689Y-5.1709
X4.8689Y-5.2709
X4.8689Y-5.3709
X4.8689Y-5.4709
X4.8689Y-5.5709
X4.9689Y-2.0709
X4.9689Y-2.1709
X4.9689Y-2.2709
X4.9689Y-2.3709
X4.9689Y-2.4709
X4.9689Y-2.5709
X4.9689Y-2.6709
X4.9689Y-2.7709
X4.9689Y-2.8709
X4.9689Y-2.9709
X4.9689Y-3.0709
X4.9689Y-3.1709
X4.9689Y-3.2709
X4.9689Y-3.3709
X4.9689Y-3.4709
X4.9689Y-3.5709
X4.9689Y-3.5709
X4.9689Y-3.6709
X4.9689Y-3.6709
X4.9689Y-3.7709
X4.9689Y-3.7709
X4.9689Y-3.8709
X4.9689Y-3.8709
X4.9689Y-3.9709
X4.9689Y-3.9709
X4.9689Y-4.0709
X4.9689Y-4.0709
X4.9689Y-4.1709
X4.9689Y-4.1709
X4.9689Y-4.2709
X4.9689Y-4.2709
X4.9689Y-4.3709
X4.9689Y-4.3709
X4.9689Y-4.4709
X4.9689Y-4.4709
X4.9689Y-4.5709
X4.9689Y-4.5709
X4.9689Y-4.6709
X4.9689Y-4.6709
X4.9689Y-4.7709
X4.9689Y-4.7709
X4.9689Y-4.8709
X4.9689Y-4.8709
X4.9689Y-4.9709
X4.9689Y-4.9709
X4.9689Y-5.0709
X4.9689Y-5.0709
X4.9689Y-5.1709
X4.9689Y-5.1709
X4.9689Y-5.2709
X4.9689Y-5.2709
X4.9689Y-5.3709
X4.9689Y-5.3709
X4.9689Y-5.4709
X4.9689Y-5.5709
X5.0689Y-2.0709
X5.0689Y-2.1709
X5.0689Y-2.2709
X5.0689Y-2.3709
X5.0689Y-2.4709
X5.0689Y-2.5709
X5.0689Y-2.6709
X5.0689Y-2.7709
X5.0689Y-2.8709
X5.0689Y-2.9709
X5.0689Y-3.0709
X5.0689Y-3.1709
X5.0689Y-3.2709
X5.0689Y-3.3709
X5.0689Y-3.4709
X5.0689Y-3.4709
X5.0689Y-3.5709
X5.0689Y-3.6709
X5.0689Y-3.7709
X5.0689Y-3.8709
X5.0689Y-3.9709
X5.0689Y-4.0709
X5.0689Y-4.1709
X5.0689Y-4.2709
X5.0689Y-4.3709
X5.0689Y-4.4709
X5.0689Y-4.5709
X5.0689Y-4.6709
X5.0689Y-4.7709
X5.0689Y-4.8709
X5.0689Y-4.9709
X5.0689Y-5.0709
X5.0689Y-5.1709
X5.0689Y-5.2709
X5.0689Y-5.3709
X5.0689Y-5.4709
X5.0689Y-5.5709
X5.1689Y-2.0709
X5.1689Y-2.1709
X5.1689Y-2.2709
X5.1689Y-2.3709
X5.1689Y-2.4709
X5.1689Y-2.5709
X5.1689Y-2.6709
X5.1689Y-2.7709
X5.1689Y-2.8709
X5.1689Y-2.9709
X5.1689Y-3.0709
X5.1689Y-3.1709
X5.1689Y-3.2709
X5.1689Y-3.3709
X5.1689Y-3.4709
X5.1689Y-3.5709
X5.1689Y-3.6709
X5.1689Y-3.7709
X5.1689Y-3.8709
X5.1689Y-3.9709
X5.1689Y-4.0709
X5.1689Y-4.1709
X5.1689Y-4.2709
X5.1689Y-4.3709
X5.1689Y-4.4709
X5.1689Y-4.5709
X5.1689Y-4.6709
X5.1689Y-4.7709
X5.1689Y-4.8709
X5.1689Y-4.9709
X5.1689Y-5.0709
X5.1689Y-5.1709
X5.1689Y-5.2709
X5.1689Y-5.3709
X5.1689Y-5.4709
X5.1689Y-5.5709
X5.2689Y-2.0709
X5.2689Y-2.1709
X5.2689Y-2.2709
X5.2689Y-2.3709
X5.2689Y-2.4709
X5.2689Y-2.5709
X5.2689Y-2.6709
X5.2689Y-2.7709
X5.2689Y-2.8709
X5.2689Y-2.9709
X5.2689Y-3.0709
X5.2689Y-3.1709
X5.2689Y-3.2709
X5.2689Y-3.3709
X5.2689Y-4.3709
X5.2689Y-4.4709
X5.2689Y-4.5709
X5.2689Y-4.6709
X5.2689Y-4.7709
X5.2689Y-4.8709
X5.2689Y-4.9709
X5.2689Y-5.0709
X5.2689Y-5.1709
X5.2689Y-5.2709
X5.2689Y-5.3709
X5.2689Y-5.4709
X5.2689Y-5.5709
X5.3689Y-2.0709
X5.3689Y-2.1709
X5.3689Y-2.2709
X5.3689Y-2.3709
X5.3689Y-2.4709
X5.3689Y-2.5709
X5.3689Y-2.6709
X5.3689Y-2.7709
X5.3689Y-2.8709
X5.3689Y-2.9709
X5.3689Y-3.0709
X5.3689Y-3.1709
X5.3689Y-3.2709
X5.3689Y-4.4709
X5.3689Y-4.5709
X5.3689Y-4.6709
X5.3689Y-4.7709
X5.3689Y-4.8709
X5.3689Y-4.9709
X5.3689Y-5.0709
X5.3689Y-5.1709
X5.3689Y-5.2709
X5.3689Y-5.3709
X5.3689Y-5.4709
X5.3689Y-5.5709
X5.4689Y-2.2709
X5.4689Y-2.3709
X5.4689Y-2.4709
X5.4689Y-2.5709
X5.4689Y-2.6709
X5.4689Y-2.7709
X5.4689Y-2.8709
X5.4689Y-2.9709
X5.4689Y-3.0709
X5.4689Y-3.1709
X5.4689Y-3.2709
X5.4689Y-4.4709
X5.4689Y-4.5709
X5.4689Y-4.6709
X5.4689Y-4.7709
X5.4689Y-4.8709
X5.4689Y-4.9709
X5.4689Y-5.0709
X5.4689Y-5.1709
X5.4689Y-5.2709
X5.4689Y-5.3709
X5.5689Y-2.2709
X5.5689Y-2.3709
X5.5689Y-2.4709
X5.5689Y-2.5709
X5.5689Y-2.6709
X5.5689Y-2.7709
X5.5689Y-2.8709
X5.5689Y-2.9709
X5.5689Y-3.0709
X5.5689Y-3.1709
X5.5689Y-3.2709
X5.5689Y-4.4709
X5.5689Y-4.5709
X5.5689Y-4.6709
X5.5689Y-4.7709
X5.5689Y-4.8709
X5.5689Y-4.9709
X5.5689Y-5.0709
X5.5689Y-5.1709
X5.5689Y-5.2709
X5.5689Y-5.3709
T2
X2.1063Y-2.1063
X2.1063Y-2.1063
X2.1063Y-5.5315
X2.1063Y-5.5315
X5.5315Y-2.1063
X5.5315Y-2.1063
X5.5315Y-5.5315
M30
