%TF.GenerationSoftware,KiCad,Pcbnew,8.0.2*%
%TF.CreationDate,2025-01-15T11:34:12+07:00*%
%TF.ProjectId,kicad-shield-mechanical,6b696361-642d-4736-9869-656c642d6d65,rev?*%
%TF.SameCoordinates,Original*%
%TF.FileFunction,Drillmap*%
%TF.FilePolarity,Positive*%
%FSLAX45Y45*%
G04 Gerber Fmt 4.5, Leading zero omitted, Abs format (unit mm)*
G04 Created by KiCad (PCBNEW 8.0.2) date 2025-01-15 11:34:12*
%MOMM*%
%LPD*%
G01*
G04 APERTURE LIST*
%ADD10C,0.050000*%
%ADD11C,0.200000*%
%ADD12C,0.100000*%
%ADD13C,0.320000*%
G04 APERTURE END LIST*
D10*
X5350000Y-5000000D02*
X14050000Y-5000000D01*
X14400000Y-14050000D02*
G75*
G02*
X14050000Y-14400000I-350000J0D01*
G01*
X13500000Y-9100000D02*
X13500000Y-10800000D01*
X13500000Y-9100000D02*
G75*
G02*
X13850000Y-8750000I350000J0D01*
G01*
X13850000Y-11150000D02*
G75*
G02*
X13500000Y-10800000I0J350000D01*
G01*
X14400000Y-11500000D02*
X14400000Y-14050000D01*
X5350000Y-14400000D02*
G75*
G02*
X5000000Y-14050000I0J350000D01*
G01*
X14050000Y-11150000D02*
G75*
G02*
X14400000Y-11500000I0J-350000D01*
G01*
X14050000Y-8750000D02*
X13850000Y-8750000D01*
X14400000Y-8400000D02*
G75*
G02*
X14050000Y-8750000I-350000J0D01*
G01*
X5000000Y-14050000D02*
X5000000Y-5350000D01*
X14050000Y-5000000D02*
G75*
G02*
X14400000Y-5350000I0J-350000D01*
G01*
X5000000Y-5350000D02*
G75*
G02*
X5350000Y-5000000I350000J0D01*
G01*
X14400000Y-5350000D02*
X14400000Y-8400000D01*
X13850000Y-11150000D02*
X14050000Y-11150000D01*
X14050000Y-14400000D02*
X5350000Y-14400000D01*
D11*
D12*
X5210000Y-5723000D02*
X5300000Y-5813000D01*
X5300000Y-5723000D02*
X5210000Y-5813000D01*
X5210000Y-5977000D02*
X5300000Y-6067000D01*
X5300000Y-5977000D02*
X5210000Y-6067000D01*
X5210000Y-6231000D02*
X5300000Y-6321000D01*
X5300000Y-6231000D02*
X5210000Y-6321000D01*
X5210000Y-6485000D02*
X5300000Y-6575000D01*
X5300000Y-6485000D02*
X5210000Y-6575000D01*
X5210000Y-6739000D02*
X5300000Y-6829000D01*
X5300000Y-6739000D02*
X5210000Y-6829000D01*
X5210000Y-6993000D02*
X5300000Y-7083000D01*
X5300000Y-6993000D02*
X5210000Y-7083000D01*
X5210000Y-7247000D02*
X5300000Y-7337000D01*
X5300000Y-7247000D02*
X5210000Y-7337000D01*
X5210000Y-7501000D02*
X5300000Y-7591000D01*
X5300000Y-7501000D02*
X5210000Y-7591000D01*
X5210000Y-7755000D02*
X5300000Y-7845000D01*
X5300000Y-7755000D02*
X5210000Y-7845000D01*
X5210000Y-8009000D02*
X5300000Y-8099000D01*
X5300000Y-8009000D02*
X5210000Y-8099000D01*
X5210000Y-8263000D02*
X5300000Y-8353000D01*
X5300000Y-8263000D02*
X5210000Y-8353000D01*
X5210000Y-8517000D02*
X5300000Y-8607000D01*
X5300000Y-8517000D02*
X5210000Y-8607000D01*
X5210000Y-8771000D02*
X5300000Y-8861000D01*
X5300000Y-8771000D02*
X5210000Y-8861000D01*
X5210000Y-9025000D02*
X5300000Y-9115000D01*
X5300000Y-9025000D02*
X5210000Y-9115000D01*
X5210000Y-9279000D02*
X5300000Y-9369000D01*
X5300000Y-9279000D02*
X5210000Y-9369000D01*
X5210000Y-9533000D02*
X5300000Y-9623000D01*
X5300000Y-9533000D02*
X5210000Y-9623000D01*
X5210000Y-9787000D02*
X5300000Y-9877000D01*
X5300000Y-9787000D02*
X5210000Y-9877000D01*
X5210000Y-10041000D02*
X5300000Y-10131000D01*
X5300000Y-10041000D02*
X5210000Y-10131000D01*
X5210000Y-10295000D02*
X5300000Y-10385000D01*
X5300000Y-10295000D02*
X5210000Y-10385000D01*
X5210000Y-10549000D02*
X5300000Y-10639000D01*
X5300000Y-10549000D02*
X5210000Y-10639000D01*
X5210000Y-10803000D02*
X5300000Y-10893000D01*
X5300000Y-10803000D02*
X5210000Y-10893000D01*
X5210000Y-11057000D02*
X5300000Y-11147000D01*
X5300000Y-11057000D02*
X5210000Y-11147000D01*
X5210000Y-11311000D02*
X5300000Y-11401000D01*
X5300000Y-11311000D02*
X5210000Y-11401000D01*
X5210000Y-11565000D02*
X5300000Y-11655000D01*
X5300000Y-11565000D02*
X5210000Y-11655000D01*
X5210000Y-11819000D02*
X5300000Y-11909000D01*
X5300000Y-11819000D02*
X5210000Y-11909000D01*
X5210000Y-12073000D02*
X5300000Y-12163000D01*
X5300000Y-12073000D02*
X5210000Y-12163000D01*
X5210000Y-12327000D02*
X5300000Y-12417000D01*
X5300000Y-12327000D02*
X5210000Y-12417000D01*
X5210000Y-12581000D02*
X5300000Y-12671000D01*
X5300000Y-12581000D02*
X5210000Y-12671000D01*
X5210000Y-12835000D02*
X5300000Y-12925000D01*
X5300000Y-12835000D02*
X5210000Y-12925000D01*
X5210000Y-13089000D02*
X5300000Y-13179000D01*
X5300000Y-13089000D02*
X5210000Y-13179000D01*
X5210000Y-13343000D02*
X5300000Y-13433000D01*
X5300000Y-13343000D02*
X5210000Y-13433000D01*
X5210000Y-13597000D02*
X5300000Y-13687000D01*
X5300000Y-13597000D02*
X5210000Y-13687000D01*
X5464000Y-5723000D02*
X5554000Y-5813000D01*
X5554000Y-5723000D02*
X5464000Y-5813000D01*
X5464000Y-5977000D02*
X5554000Y-6067000D01*
X5554000Y-5977000D02*
X5464000Y-6067000D01*
X5464000Y-6231000D02*
X5554000Y-6321000D01*
X5554000Y-6231000D02*
X5464000Y-6321000D01*
X5464000Y-6485000D02*
X5554000Y-6575000D01*
X5554000Y-6485000D02*
X5464000Y-6575000D01*
X5464000Y-6739000D02*
X5554000Y-6829000D01*
X5554000Y-6739000D02*
X5464000Y-6829000D01*
X5464000Y-6993000D02*
X5554000Y-7083000D01*
X5554000Y-6993000D02*
X5464000Y-7083000D01*
X5464000Y-7247000D02*
X5554000Y-7337000D01*
X5554000Y-7247000D02*
X5464000Y-7337000D01*
X5464000Y-7501000D02*
X5554000Y-7591000D01*
X5554000Y-7501000D02*
X5464000Y-7591000D01*
X5464000Y-7755000D02*
X5554000Y-7845000D01*
X5554000Y-7755000D02*
X5464000Y-7845000D01*
X5464000Y-8009000D02*
X5554000Y-8099000D01*
X5554000Y-8009000D02*
X5464000Y-8099000D01*
X5464000Y-8263000D02*
X5554000Y-8353000D01*
X5554000Y-8263000D02*
X5464000Y-8353000D01*
X5464000Y-8517000D02*
X5554000Y-8607000D01*
X5554000Y-8517000D02*
X5464000Y-8607000D01*
X5464000Y-8771000D02*
X5554000Y-8861000D01*
X5554000Y-8771000D02*
X5464000Y-8861000D01*
X5464000Y-9025000D02*
X5554000Y-9115000D01*
X5554000Y-9025000D02*
X5464000Y-9115000D01*
X5464000Y-9279000D02*
X5554000Y-9369000D01*
X5554000Y-9279000D02*
X5464000Y-9369000D01*
X5464000Y-9533000D02*
X5554000Y-9623000D01*
X5554000Y-9533000D02*
X5464000Y-9623000D01*
X5464000Y-9787000D02*
X5554000Y-9877000D01*
X5554000Y-9787000D02*
X5464000Y-9877000D01*
X5464000Y-10041000D02*
X5554000Y-10131000D01*
X5554000Y-10041000D02*
X5464000Y-10131000D01*
X5464000Y-10295000D02*
X5554000Y-10385000D01*
X5554000Y-10295000D02*
X5464000Y-10385000D01*
X5464000Y-10549000D02*
X5554000Y-10639000D01*
X5554000Y-10549000D02*
X5464000Y-10639000D01*
X5464000Y-10803000D02*
X5554000Y-10893000D01*
X5554000Y-10803000D02*
X5464000Y-10893000D01*
X5464000Y-11057000D02*
X5554000Y-11147000D01*
X5554000Y-11057000D02*
X5464000Y-11147000D01*
X5464000Y-11311000D02*
X5554000Y-11401000D01*
X5554000Y-11311000D02*
X5464000Y-11401000D01*
X5464000Y-11565000D02*
X5554000Y-11655000D01*
X5554000Y-11565000D02*
X5464000Y-11655000D01*
X5464000Y-11819000D02*
X5554000Y-11909000D01*
X5554000Y-11819000D02*
X5464000Y-11909000D01*
X5464000Y-12073000D02*
X5554000Y-12163000D01*
X5554000Y-12073000D02*
X5464000Y-12163000D01*
X5464000Y-12327000D02*
X5554000Y-12417000D01*
X5554000Y-12327000D02*
X5464000Y-12417000D01*
X5464000Y-12581000D02*
X5554000Y-12671000D01*
X5554000Y-12581000D02*
X5464000Y-12671000D01*
X5464000Y-12835000D02*
X5554000Y-12925000D01*
X5554000Y-12835000D02*
X5464000Y-12925000D01*
X5464000Y-13089000D02*
X5554000Y-13179000D01*
X5554000Y-13089000D02*
X5464000Y-13179000D01*
X5464000Y-13343000D02*
X5554000Y-13433000D01*
X5554000Y-13343000D02*
X5464000Y-13433000D01*
X5464000Y-13597000D02*
X5554000Y-13687000D01*
X5554000Y-13597000D02*
X5464000Y-13687000D01*
X5718000Y-5215000D02*
X5808000Y-5305000D01*
X5808000Y-5215000D02*
X5718000Y-5305000D01*
X5718000Y-5469000D02*
X5808000Y-5559000D01*
X5808000Y-5469000D02*
X5718000Y-5559000D01*
X5718000Y-5723000D02*
X5808000Y-5813000D01*
X5808000Y-5723000D02*
X5718000Y-5813000D01*
X5718000Y-5977000D02*
X5808000Y-6067000D01*
X5808000Y-5977000D02*
X5718000Y-6067000D01*
X5718000Y-6231000D02*
X5808000Y-6321000D01*
X5808000Y-6231000D02*
X5718000Y-6321000D01*
X5718000Y-6485000D02*
X5808000Y-6575000D01*
X5808000Y-6485000D02*
X5718000Y-6575000D01*
X5718000Y-6739000D02*
X5808000Y-6829000D01*
X5808000Y-6739000D02*
X5718000Y-6829000D01*
X5718000Y-6993000D02*
X5808000Y-7083000D01*
X5808000Y-6993000D02*
X5718000Y-7083000D01*
X5718000Y-7247000D02*
X5808000Y-7337000D01*
X5808000Y-7247000D02*
X5718000Y-7337000D01*
X5718000Y-7501000D02*
X5808000Y-7591000D01*
X5808000Y-7501000D02*
X5718000Y-7591000D01*
X5718000Y-7755000D02*
X5808000Y-7845000D01*
X5808000Y-7755000D02*
X5718000Y-7845000D01*
X5718000Y-8009000D02*
X5808000Y-8099000D01*
X5808000Y-8009000D02*
X5718000Y-8099000D01*
X5718000Y-8263000D02*
X5808000Y-8353000D01*
X5808000Y-8263000D02*
X5718000Y-8353000D01*
X5718000Y-8517000D02*
X5808000Y-8607000D01*
X5808000Y-8517000D02*
X5718000Y-8607000D01*
X5718000Y-8771000D02*
X5808000Y-8861000D01*
X5808000Y-8771000D02*
X5718000Y-8861000D01*
X5718000Y-9025000D02*
X5808000Y-9115000D01*
X5808000Y-9025000D02*
X5718000Y-9115000D01*
X5718000Y-9279000D02*
X5808000Y-9369000D01*
X5808000Y-9279000D02*
X5718000Y-9369000D01*
X5718000Y-9533000D02*
X5808000Y-9623000D01*
X5808000Y-9533000D02*
X5718000Y-9623000D01*
X5718000Y-9787000D02*
X5808000Y-9877000D01*
X5808000Y-9787000D02*
X5718000Y-9877000D01*
X5718000Y-10041000D02*
X5808000Y-10131000D01*
X5808000Y-10041000D02*
X5718000Y-10131000D01*
X5718000Y-10295000D02*
X5808000Y-10385000D01*
X5808000Y-10295000D02*
X5718000Y-10385000D01*
X5718000Y-10549000D02*
X5808000Y-10639000D01*
X5808000Y-10549000D02*
X5718000Y-10639000D01*
X5718000Y-10803000D02*
X5808000Y-10893000D01*
X5808000Y-10803000D02*
X5718000Y-10893000D01*
X5718000Y-11057000D02*
X5808000Y-11147000D01*
X5808000Y-11057000D02*
X5718000Y-11147000D01*
X5718000Y-11311000D02*
X5808000Y-11401000D01*
X5808000Y-11311000D02*
X5718000Y-11401000D01*
X5718000Y-11565000D02*
X5808000Y-11655000D01*
X5808000Y-11565000D02*
X5718000Y-11655000D01*
X5718000Y-11819000D02*
X5808000Y-11909000D01*
X5808000Y-11819000D02*
X5718000Y-11909000D01*
X5718000Y-12073000D02*
X5808000Y-12163000D01*
X5808000Y-12073000D02*
X5718000Y-12163000D01*
X5718000Y-12327000D02*
X5808000Y-12417000D01*
X5808000Y-12327000D02*
X5718000Y-12417000D01*
X5718000Y-12581000D02*
X5808000Y-12671000D01*
X5808000Y-12581000D02*
X5718000Y-12671000D01*
X5718000Y-12835000D02*
X5808000Y-12925000D01*
X5808000Y-12835000D02*
X5718000Y-12925000D01*
X5718000Y-13089000D02*
X5808000Y-13179000D01*
X5808000Y-13089000D02*
X5718000Y-13179000D01*
X5718000Y-13343000D02*
X5808000Y-13433000D01*
X5808000Y-13343000D02*
X5718000Y-13433000D01*
X5718000Y-13597000D02*
X5808000Y-13687000D01*
X5808000Y-13597000D02*
X5718000Y-13687000D01*
X5718000Y-13851000D02*
X5808000Y-13941000D01*
X5808000Y-13851000D02*
X5718000Y-13941000D01*
X5718000Y-14105000D02*
X5808000Y-14195000D01*
X5808000Y-14105000D02*
X5718000Y-14195000D01*
X5972000Y-5215000D02*
X6062000Y-5305000D01*
X6062000Y-5215000D02*
X5972000Y-5305000D01*
X5972000Y-5469000D02*
X6062000Y-5559000D01*
X6062000Y-5469000D02*
X5972000Y-5559000D01*
X5972000Y-5723000D02*
X6062000Y-5813000D01*
X6062000Y-5723000D02*
X5972000Y-5813000D01*
X5972000Y-5977000D02*
X6062000Y-6067000D01*
X6062000Y-5977000D02*
X5972000Y-6067000D01*
X5972000Y-6231000D02*
X6062000Y-6321000D01*
X6062000Y-6231000D02*
X5972000Y-6321000D01*
X5972000Y-6485000D02*
X6062000Y-6575000D01*
X6062000Y-6485000D02*
X5972000Y-6575000D01*
X5972000Y-6739000D02*
X6062000Y-6829000D01*
X6062000Y-6739000D02*
X5972000Y-6829000D01*
X5972000Y-6993000D02*
X6062000Y-7083000D01*
X6062000Y-6993000D02*
X5972000Y-7083000D01*
X5972000Y-7247000D02*
X6062000Y-7337000D01*
X6062000Y-7247000D02*
X5972000Y-7337000D01*
X5972000Y-7501000D02*
X6062000Y-7591000D01*
X6062000Y-7501000D02*
X5972000Y-7591000D01*
X5972000Y-7755000D02*
X6062000Y-7845000D01*
X6062000Y-7755000D02*
X5972000Y-7845000D01*
X5972000Y-8009000D02*
X6062000Y-8099000D01*
X6062000Y-8009000D02*
X5972000Y-8099000D01*
X5972000Y-8263000D02*
X6062000Y-8353000D01*
X6062000Y-8263000D02*
X5972000Y-8353000D01*
X5972000Y-8517000D02*
X6062000Y-8607000D01*
X6062000Y-8517000D02*
X5972000Y-8607000D01*
X5972000Y-8771000D02*
X6062000Y-8861000D01*
X6062000Y-8771000D02*
X5972000Y-8861000D01*
X5972000Y-9025000D02*
X6062000Y-9115000D01*
X6062000Y-9025000D02*
X5972000Y-9115000D01*
X5972000Y-9279000D02*
X6062000Y-9369000D01*
X6062000Y-9279000D02*
X5972000Y-9369000D01*
X5972000Y-9533000D02*
X6062000Y-9623000D01*
X6062000Y-9533000D02*
X5972000Y-9623000D01*
X5972000Y-9787000D02*
X6062000Y-9877000D01*
X6062000Y-9787000D02*
X5972000Y-9877000D01*
X5972000Y-10041000D02*
X6062000Y-10131000D01*
X6062000Y-10041000D02*
X5972000Y-10131000D01*
X5972000Y-10295000D02*
X6062000Y-10385000D01*
X6062000Y-10295000D02*
X5972000Y-10385000D01*
X5972000Y-10549000D02*
X6062000Y-10639000D01*
X6062000Y-10549000D02*
X5972000Y-10639000D01*
X5972000Y-10803000D02*
X6062000Y-10893000D01*
X6062000Y-10803000D02*
X5972000Y-10893000D01*
X5972000Y-11057000D02*
X6062000Y-11147000D01*
X6062000Y-11057000D02*
X5972000Y-11147000D01*
X5972000Y-11311000D02*
X6062000Y-11401000D01*
X6062000Y-11311000D02*
X5972000Y-11401000D01*
X5972000Y-11565000D02*
X6062000Y-11655000D01*
X6062000Y-11565000D02*
X5972000Y-11655000D01*
X5972000Y-11819000D02*
X6062000Y-11909000D01*
X6062000Y-11819000D02*
X5972000Y-11909000D01*
X5972000Y-12073000D02*
X6062000Y-12163000D01*
X6062000Y-12073000D02*
X5972000Y-12163000D01*
X5972000Y-12327000D02*
X6062000Y-12417000D01*
X6062000Y-12327000D02*
X5972000Y-12417000D01*
X5972000Y-12581000D02*
X6062000Y-12671000D01*
X6062000Y-12581000D02*
X5972000Y-12671000D01*
X5972000Y-12835000D02*
X6062000Y-12925000D01*
X6062000Y-12835000D02*
X5972000Y-12925000D01*
X5972000Y-13089000D02*
X6062000Y-13179000D01*
X6062000Y-13089000D02*
X5972000Y-13179000D01*
X5972000Y-13343000D02*
X6062000Y-13433000D01*
X6062000Y-13343000D02*
X5972000Y-13433000D01*
X5972000Y-13597000D02*
X6062000Y-13687000D01*
X6062000Y-13597000D02*
X5972000Y-13687000D01*
X5972000Y-13851000D02*
X6062000Y-13941000D01*
X6062000Y-13851000D02*
X5972000Y-13941000D01*
X5972000Y-14105000D02*
X6062000Y-14195000D01*
X6062000Y-14105000D02*
X5972000Y-14195000D01*
X6226000Y-5215000D02*
X6316000Y-5305000D01*
X6316000Y-5215000D02*
X6226000Y-5305000D01*
X6226000Y-5469000D02*
X6316000Y-5559000D01*
X6316000Y-5469000D02*
X6226000Y-5559000D01*
X6226000Y-5723000D02*
X6316000Y-5813000D01*
X6316000Y-5723000D02*
X6226000Y-5813000D01*
X6226000Y-5977000D02*
X6316000Y-6067000D01*
X6316000Y-5977000D02*
X6226000Y-6067000D01*
X6226000Y-6231000D02*
X6316000Y-6321000D01*
X6316000Y-6231000D02*
X6226000Y-6321000D01*
X6226000Y-6485000D02*
X6316000Y-6575000D01*
X6316000Y-6485000D02*
X6226000Y-6575000D01*
X6226000Y-6739000D02*
X6316000Y-6829000D01*
X6316000Y-6739000D02*
X6226000Y-6829000D01*
X6226000Y-6993000D02*
X6316000Y-7083000D01*
X6316000Y-6993000D02*
X6226000Y-7083000D01*
X6226000Y-7247000D02*
X6316000Y-7337000D01*
X6316000Y-7247000D02*
X6226000Y-7337000D01*
X6226000Y-7501000D02*
X6316000Y-7591000D01*
X6316000Y-7501000D02*
X6226000Y-7591000D01*
X6226000Y-7755000D02*
X6316000Y-7845000D01*
X6316000Y-7755000D02*
X6226000Y-7845000D01*
X6226000Y-8009000D02*
X6316000Y-8099000D01*
X6316000Y-8009000D02*
X6226000Y-8099000D01*
X6226000Y-8263000D02*
X6316000Y-8353000D01*
X6316000Y-8263000D02*
X6226000Y-8353000D01*
X6226000Y-8517000D02*
X6316000Y-8607000D01*
X6316000Y-8517000D02*
X6226000Y-8607000D01*
X6226000Y-8771000D02*
X6316000Y-8861000D01*
X6316000Y-8771000D02*
X6226000Y-8861000D01*
X6226000Y-9025000D02*
X6316000Y-9115000D01*
X6316000Y-9025000D02*
X6226000Y-9115000D01*
X6226000Y-9279000D02*
X6316000Y-9369000D01*
X6316000Y-9279000D02*
X6226000Y-9369000D01*
X6226000Y-9533000D02*
X6316000Y-9623000D01*
X6316000Y-9533000D02*
X6226000Y-9623000D01*
X6226000Y-9787000D02*
X6316000Y-9877000D01*
X6316000Y-9787000D02*
X6226000Y-9877000D01*
X6226000Y-10041000D02*
X6316000Y-10131000D01*
X6316000Y-10041000D02*
X6226000Y-10131000D01*
X6226000Y-10295000D02*
X6316000Y-10385000D01*
X6316000Y-10295000D02*
X6226000Y-10385000D01*
X6226000Y-10549000D02*
X6316000Y-10639000D01*
X6316000Y-10549000D02*
X6226000Y-10639000D01*
X6226000Y-10803000D02*
X6316000Y-10893000D01*
X6316000Y-10803000D02*
X6226000Y-10893000D01*
X6226000Y-11057000D02*
X6316000Y-11147000D01*
X6316000Y-11057000D02*
X6226000Y-11147000D01*
X6226000Y-11311000D02*
X6316000Y-11401000D01*
X6316000Y-11311000D02*
X6226000Y-11401000D01*
X6226000Y-11565000D02*
X6316000Y-11655000D01*
X6316000Y-11565000D02*
X6226000Y-11655000D01*
X6226000Y-11819000D02*
X6316000Y-11909000D01*
X6316000Y-11819000D02*
X6226000Y-11909000D01*
X6226000Y-12073000D02*
X6316000Y-12163000D01*
X6316000Y-12073000D02*
X6226000Y-12163000D01*
X6226000Y-12327000D02*
X6316000Y-12417000D01*
X6316000Y-12327000D02*
X6226000Y-12417000D01*
X6226000Y-12581000D02*
X6316000Y-12671000D01*
X6316000Y-12581000D02*
X6226000Y-12671000D01*
X6226000Y-12835000D02*
X6316000Y-12925000D01*
X6316000Y-12835000D02*
X6226000Y-12925000D01*
X6226000Y-13089000D02*
X6316000Y-13179000D01*
X6316000Y-13089000D02*
X6226000Y-13179000D01*
X6226000Y-13343000D02*
X6316000Y-13433000D01*
X6316000Y-13343000D02*
X6226000Y-13433000D01*
X6226000Y-13597000D02*
X6316000Y-13687000D01*
X6316000Y-13597000D02*
X6226000Y-13687000D01*
X6226000Y-13851000D02*
X6316000Y-13941000D01*
X6316000Y-13851000D02*
X6226000Y-13941000D01*
X6226000Y-14105000D02*
X6316000Y-14195000D01*
X6316000Y-14105000D02*
X6226000Y-14195000D01*
X6480000Y-5215000D02*
X6570000Y-5305000D01*
X6570000Y-5215000D02*
X6480000Y-5305000D01*
X6480000Y-5469000D02*
X6570000Y-5559000D01*
X6570000Y-5469000D02*
X6480000Y-5559000D01*
X6480000Y-5723000D02*
X6570000Y-5813000D01*
X6570000Y-5723000D02*
X6480000Y-5813000D01*
X6480000Y-5977000D02*
X6570000Y-6067000D01*
X6570000Y-5977000D02*
X6480000Y-6067000D01*
X6480000Y-6231000D02*
X6570000Y-6321000D01*
X6570000Y-6231000D02*
X6480000Y-6321000D01*
X6480000Y-6485000D02*
X6570000Y-6575000D01*
X6570000Y-6485000D02*
X6480000Y-6575000D01*
X6480000Y-6739000D02*
X6570000Y-6829000D01*
X6570000Y-6739000D02*
X6480000Y-6829000D01*
X6480000Y-6993000D02*
X6570000Y-7083000D01*
X6570000Y-6993000D02*
X6480000Y-7083000D01*
X6480000Y-7247000D02*
X6570000Y-7337000D01*
X6570000Y-7247000D02*
X6480000Y-7337000D01*
X6480000Y-7501000D02*
X6570000Y-7591000D01*
X6570000Y-7501000D02*
X6480000Y-7591000D01*
X6480000Y-7755000D02*
X6570000Y-7845000D01*
X6570000Y-7755000D02*
X6480000Y-7845000D01*
X6480000Y-8009000D02*
X6570000Y-8099000D01*
X6570000Y-8009000D02*
X6480000Y-8099000D01*
X6480000Y-8263000D02*
X6570000Y-8353000D01*
X6570000Y-8263000D02*
X6480000Y-8353000D01*
X6480000Y-8517000D02*
X6570000Y-8607000D01*
X6570000Y-8517000D02*
X6480000Y-8607000D01*
X6480000Y-8771000D02*
X6570000Y-8861000D01*
X6570000Y-8771000D02*
X6480000Y-8861000D01*
X6480000Y-9025000D02*
X6570000Y-9115000D01*
X6570000Y-9025000D02*
X6480000Y-9115000D01*
X6480000Y-9279000D02*
X6570000Y-9369000D01*
X6570000Y-9279000D02*
X6480000Y-9369000D01*
X6480000Y-9533000D02*
X6570000Y-9623000D01*
X6570000Y-9533000D02*
X6480000Y-9623000D01*
X6480000Y-9787000D02*
X6570000Y-9877000D01*
X6570000Y-9787000D02*
X6480000Y-9877000D01*
X6480000Y-10041000D02*
X6570000Y-10131000D01*
X6570000Y-10041000D02*
X6480000Y-10131000D01*
X6480000Y-10295000D02*
X6570000Y-10385000D01*
X6570000Y-10295000D02*
X6480000Y-10385000D01*
X6480000Y-10549000D02*
X6570000Y-10639000D01*
X6570000Y-10549000D02*
X6480000Y-10639000D01*
X6480000Y-10803000D02*
X6570000Y-10893000D01*
X6570000Y-10803000D02*
X6480000Y-10893000D01*
X6480000Y-11057000D02*
X6570000Y-11147000D01*
X6570000Y-11057000D02*
X6480000Y-11147000D01*
X6480000Y-11311000D02*
X6570000Y-11401000D01*
X6570000Y-11311000D02*
X6480000Y-11401000D01*
X6480000Y-11565000D02*
X6570000Y-11655000D01*
X6570000Y-11565000D02*
X6480000Y-11655000D01*
X6480000Y-11819000D02*
X6570000Y-11909000D01*
X6570000Y-11819000D02*
X6480000Y-11909000D01*
X6480000Y-12073000D02*
X6570000Y-12163000D01*
X6570000Y-12073000D02*
X6480000Y-12163000D01*
X6480000Y-12327000D02*
X6570000Y-12417000D01*
X6570000Y-12327000D02*
X6480000Y-12417000D01*
X6480000Y-12581000D02*
X6570000Y-12671000D01*
X6570000Y-12581000D02*
X6480000Y-12671000D01*
X6480000Y-12835000D02*
X6570000Y-12925000D01*
X6570000Y-12835000D02*
X6480000Y-12925000D01*
X6480000Y-13089000D02*
X6570000Y-13179000D01*
X6570000Y-13089000D02*
X6480000Y-13179000D01*
X6480000Y-13343000D02*
X6570000Y-13433000D01*
X6570000Y-13343000D02*
X6480000Y-13433000D01*
X6480000Y-13597000D02*
X6570000Y-13687000D01*
X6570000Y-13597000D02*
X6480000Y-13687000D01*
X6480000Y-13851000D02*
X6570000Y-13941000D01*
X6570000Y-13851000D02*
X6480000Y-13941000D01*
X6480000Y-14105000D02*
X6570000Y-14195000D01*
X6570000Y-14105000D02*
X6480000Y-14195000D01*
X6734000Y-5215000D02*
X6824000Y-5305000D01*
X6824000Y-5215000D02*
X6734000Y-5305000D01*
X6734000Y-5469000D02*
X6824000Y-5559000D01*
X6824000Y-5469000D02*
X6734000Y-5559000D01*
X6734000Y-5723000D02*
X6824000Y-5813000D01*
X6824000Y-5723000D02*
X6734000Y-5813000D01*
X6734000Y-5977000D02*
X6824000Y-6067000D01*
X6824000Y-5977000D02*
X6734000Y-6067000D01*
X6734000Y-6231000D02*
X6824000Y-6321000D01*
X6824000Y-6231000D02*
X6734000Y-6321000D01*
X6734000Y-6485000D02*
X6824000Y-6575000D01*
X6824000Y-6485000D02*
X6734000Y-6575000D01*
X6734000Y-6739000D02*
X6824000Y-6829000D01*
X6824000Y-6739000D02*
X6734000Y-6829000D01*
X6734000Y-6993000D02*
X6824000Y-7083000D01*
X6824000Y-6993000D02*
X6734000Y-7083000D01*
X6734000Y-7247000D02*
X6824000Y-7337000D01*
X6824000Y-7247000D02*
X6734000Y-7337000D01*
X6734000Y-7501000D02*
X6824000Y-7591000D01*
X6824000Y-7501000D02*
X6734000Y-7591000D01*
X6734000Y-7755000D02*
X6824000Y-7845000D01*
X6824000Y-7755000D02*
X6734000Y-7845000D01*
X6734000Y-8009000D02*
X6824000Y-8099000D01*
X6824000Y-8009000D02*
X6734000Y-8099000D01*
X6734000Y-8263000D02*
X6824000Y-8353000D01*
X6824000Y-8263000D02*
X6734000Y-8353000D01*
X6734000Y-8517000D02*
X6824000Y-8607000D01*
X6824000Y-8517000D02*
X6734000Y-8607000D01*
X6734000Y-8771000D02*
X6824000Y-8861000D01*
X6824000Y-8771000D02*
X6734000Y-8861000D01*
X6734000Y-9025000D02*
X6824000Y-9115000D01*
X6824000Y-9025000D02*
X6734000Y-9115000D01*
X6734000Y-9279000D02*
X6824000Y-9369000D01*
X6824000Y-9279000D02*
X6734000Y-9369000D01*
X6734000Y-9533000D02*
X6824000Y-9623000D01*
X6824000Y-9533000D02*
X6734000Y-9623000D01*
X6734000Y-9787000D02*
X6824000Y-9877000D01*
X6824000Y-9787000D02*
X6734000Y-9877000D01*
X6734000Y-10041000D02*
X6824000Y-10131000D01*
X6824000Y-10041000D02*
X6734000Y-10131000D01*
X6734000Y-10295000D02*
X6824000Y-10385000D01*
X6824000Y-10295000D02*
X6734000Y-10385000D01*
X6734000Y-10549000D02*
X6824000Y-10639000D01*
X6824000Y-10549000D02*
X6734000Y-10639000D01*
X6734000Y-10803000D02*
X6824000Y-10893000D01*
X6824000Y-10803000D02*
X6734000Y-10893000D01*
X6734000Y-11057000D02*
X6824000Y-11147000D01*
X6824000Y-11057000D02*
X6734000Y-11147000D01*
X6734000Y-11311000D02*
X6824000Y-11401000D01*
X6824000Y-11311000D02*
X6734000Y-11401000D01*
X6734000Y-11565000D02*
X6824000Y-11655000D01*
X6824000Y-11565000D02*
X6734000Y-11655000D01*
X6734000Y-11819000D02*
X6824000Y-11909000D01*
X6824000Y-11819000D02*
X6734000Y-11909000D01*
X6734000Y-12073000D02*
X6824000Y-12163000D01*
X6824000Y-12073000D02*
X6734000Y-12163000D01*
X6734000Y-12327000D02*
X6824000Y-12417000D01*
X6824000Y-12327000D02*
X6734000Y-12417000D01*
X6734000Y-12581000D02*
X6824000Y-12671000D01*
X6824000Y-12581000D02*
X6734000Y-12671000D01*
X6734000Y-12835000D02*
X6824000Y-12925000D01*
X6824000Y-12835000D02*
X6734000Y-12925000D01*
X6734000Y-13089000D02*
X6824000Y-13179000D01*
X6824000Y-13089000D02*
X6734000Y-13179000D01*
X6734000Y-13343000D02*
X6824000Y-13433000D01*
X6824000Y-13343000D02*
X6734000Y-13433000D01*
X6734000Y-13597000D02*
X6824000Y-13687000D01*
X6824000Y-13597000D02*
X6734000Y-13687000D01*
X6734000Y-13851000D02*
X6824000Y-13941000D01*
X6824000Y-13851000D02*
X6734000Y-13941000D01*
X6734000Y-14105000D02*
X6824000Y-14195000D01*
X6824000Y-14105000D02*
X6734000Y-14195000D01*
X6988000Y-5215000D02*
X7078000Y-5305000D01*
X7078000Y-5215000D02*
X6988000Y-5305000D01*
X6988000Y-5469000D02*
X7078000Y-5559000D01*
X7078000Y-5469000D02*
X6988000Y-5559000D01*
X6988000Y-5723000D02*
X7078000Y-5813000D01*
X7078000Y-5723000D02*
X6988000Y-5813000D01*
X6988000Y-5977000D02*
X7078000Y-6067000D01*
X7078000Y-5977000D02*
X6988000Y-6067000D01*
X6988000Y-6231000D02*
X7078000Y-6321000D01*
X7078000Y-6231000D02*
X6988000Y-6321000D01*
X6988000Y-6485000D02*
X7078000Y-6575000D01*
X7078000Y-6485000D02*
X6988000Y-6575000D01*
X6988000Y-6739000D02*
X7078000Y-6829000D01*
X7078000Y-6739000D02*
X6988000Y-6829000D01*
X6988000Y-6993000D02*
X7078000Y-7083000D01*
X7078000Y-6993000D02*
X6988000Y-7083000D01*
X6988000Y-7247000D02*
X7078000Y-7337000D01*
X7078000Y-7247000D02*
X6988000Y-7337000D01*
X6988000Y-7501000D02*
X7078000Y-7591000D01*
X7078000Y-7501000D02*
X6988000Y-7591000D01*
X6988000Y-7755000D02*
X7078000Y-7845000D01*
X7078000Y-7755000D02*
X6988000Y-7845000D01*
X6988000Y-8009000D02*
X7078000Y-8099000D01*
X7078000Y-8009000D02*
X6988000Y-8099000D01*
X6988000Y-8263000D02*
X7078000Y-8353000D01*
X7078000Y-8263000D02*
X6988000Y-8353000D01*
X6988000Y-8517000D02*
X7078000Y-8607000D01*
X7078000Y-8517000D02*
X6988000Y-8607000D01*
X6988000Y-8771000D02*
X7078000Y-8861000D01*
X7078000Y-8771000D02*
X6988000Y-8861000D01*
X6988000Y-9025000D02*
X7078000Y-9115000D01*
X7078000Y-9025000D02*
X6988000Y-9115000D01*
X6988000Y-9279000D02*
X7078000Y-9369000D01*
X7078000Y-9279000D02*
X6988000Y-9369000D01*
X6988000Y-9533000D02*
X7078000Y-9623000D01*
X7078000Y-9533000D02*
X6988000Y-9623000D01*
X6988000Y-9787000D02*
X7078000Y-9877000D01*
X7078000Y-9787000D02*
X6988000Y-9877000D01*
X6988000Y-10041000D02*
X7078000Y-10131000D01*
X7078000Y-10041000D02*
X6988000Y-10131000D01*
X6988000Y-10295000D02*
X7078000Y-10385000D01*
X7078000Y-10295000D02*
X6988000Y-10385000D01*
X6988000Y-10549000D02*
X7078000Y-10639000D01*
X7078000Y-10549000D02*
X6988000Y-10639000D01*
X6988000Y-10803000D02*
X7078000Y-10893000D01*
X7078000Y-10803000D02*
X6988000Y-10893000D01*
X6988000Y-11057000D02*
X7078000Y-11147000D01*
X7078000Y-11057000D02*
X6988000Y-11147000D01*
X6988000Y-11311000D02*
X7078000Y-11401000D01*
X7078000Y-11311000D02*
X6988000Y-11401000D01*
X6988000Y-11565000D02*
X7078000Y-11655000D01*
X7078000Y-11565000D02*
X6988000Y-11655000D01*
X6988000Y-11819000D02*
X7078000Y-11909000D01*
X7078000Y-11819000D02*
X6988000Y-11909000D01*
X6988000Y-12073000D02*
X7078000Y-12163000D01*
X7078000Y-12073000D02*
X6988000Y-12163000D01*
X6988000Y-12327000D02*
X7078000Y-12417000D01*
X7078000Y-12327000D02*
X6988000Y-12417000D01*
X6988000Y-12581000D02*
X7078000Y-12671000D01*
X7078000Y-12581000D02*
X6988000Y-12671000D01*
X6988000Y-12835000D02*
X7078000Y-12925000D01*
X7078000Y-12835000D02*
X6988000Y-12925000D01*
X6988000Y-13089000D02*
X7078000Y-13179000D01*
X7078000Y-13089000D02*
X6988000Y-13179000D01*
X6988000Y-13343000D02*
X7078000Y-13433000D01*
X7078000Y-13343000D02*
X6988000Y-13433000D01*
X6988000Y-13597000D02*
X7078000Y-13687000D01*
X7078000Y-13597000D02*
X6988000Y-13687000D01*
X6988000Y-13851000D02*
X7078000Y-13941000D01*
X7078000Y-13851000D02*
X6988000Y-13941000D01*
X6988000Y-14105000D02*
X7078000Y-14195000D01*
X7078000Y-14105000D02*
X6988000Y-14195000D01*
X7242000Y-5215000D02*
X7332000Y-5305000D01*
X7332000Y-5215000D02*
X7242000Y-5305000D01*
X7242000Y-5469000D02*
X7332000Y-5559000D01*
X7332000Y-5469000D02*
X7242000Y-5559000D01*
X7242000Y-5723000D02*
X7332000Y-5813000D01*
X7332000Y-5723000D02*
X7242000Y-5813000D01*
X7242000Y-5977000D02*
X7332000Y-6067000D01*
X7332000Y-5977000D02*
X7242000Y-6067000D01*
X7242000Y-6231000D02*
X7332000Y-6321000D01*
X7332000Y-6231000D02*
X7242000Y-6321000D01*
X7242000Y-6485000D02*
X7332000Y-6575000D01*
X7332000Y-6485000D02*
X7242000Y-6575000D01*
X7242000Y-6739000D02*
X7332000Y-6829000D01*
X7332000Y-6739000D02*
X7242000Y-6829000D01*
X7242000Y-6993000D02*
X7332000Y-7083000D01*
X7332000Y-6993000D02*
X7242000Y-7083000D01*
X7242000Y-7247000D02*
X7332000Y-7337000D01*
X7332000Y-7247000D02*
X7242000Y-7337000D01*
X7242000Y-7501000D02*
X7332000Y-7591000D01*
X7332000Y-7501000D02*
X7242000Y-7591000D01*
X7242000Y-7755000D02*
X7332000Y-7845000D01*
X7332000Y-7755000D02*
X7242000Y-7845000D01*
X7242000Y-8009000D02*
X7332000Y-8099000D01*
X7332000Y-8009000D02*
X7242000Y-8099000D01*
X7242000Y-8263000D02*
X7332000Y-8353000D01*
X7332000Y-8263000D02*
X7242000Y-8353000D01*
X7242000Y-8517000D02*
X7332000Y-8607000D01*
X7332000Y-8517000D02*
X7242000Y-8607000D01*
X7242000Y-8771000D02*
X7332000Y-8861000D01*
X7332000Y-8771000D02*
X7242000Y-8861000D01*
X7242000Y-9025000D02*
X7332000Y-9115000D01*
X7332000Y-9025000D02*
X7242000Y-9115000D01*
X7242000Y-9279000D02*
X7332000Y-9369000D01*
X7332000Y-9279000D02*
X7242000Y-9369000D01*
X7242000Y-9533000D02*
X7332000Y-9623000D01*
X7332000Y-9533000D02*
X7242000Y-9623000D01*
X7242000Y-9787000D02*
X7332000Y-9877000D01*
X7332000Y-9787000D02*
X7242000Y-9877000D01*
X7242000Y-10041000D02*
X7332000Y-10131000D01*
X7332000Y-10041000D02*
X7242000Y-10131000D01*
X7242000Y-10295000D02*
X7332000Y-10385000D01*
X7332000Y-10295000D02*
X7242000Y-10385000D01*
X7242000Y-10549000D02*
X7332000Y-10639000D01*
X7332000Y-10549000D02*
X7242000Y-10639000D01*
X7242000Y-10803000D02*
X7332000Y-10893000D01*
X7332000Y-10803000D02*
X7242000Y-10893000D01*
X7242000Y-11057000D02*
X7332000Y-11147000D01*
X7332000Y-11057000D02*
X7242000Y-11147000D01*
X7242000Y-11311000D02*
X7332000Y-11401000D01*
X7332000Y-11311000D02*
X7242000Y-11401000D01*
X7242000Y-11565000D02*
X7332000Y-11655000D01*
X7332000Y-11565000D02*
X7242000Y-11655000D01*
X7242000Y-11819000D02*
X7332000Y-11909000D01*
X7332000Y-11819000D02*
X7242000Y-11909000D01*
X7242000Y-12073000D02*
X7332000Y-12163000D01*
X7332000Y-12073000D02*
X7242000Y-12163000D01*
X7242000Y-12327000D02*
X7332000Y-12417000D01*
X7332000Y-12327000D02*
X7242000Y-12417000D01*
X7242000Y-12581000D02*
X7332000Y-12671000D01*
X7332000Y-12581000D02*
X7242000Y-12671000D01*
X7242000Y-12835000D02*
X7332000Y-12925000D01*
X7332000Y-12835000D02*
X7242000Y-12925000D01*
X7242000Y-13089000D02*
X7332000Y-13179000D01*
X7332000Y-13089000D02*
X7242000Y-13179000D01*
X7242000Y-13343000D02*
X7332000Y-13433000D01*
X7332000Y-13343000D02*
X7242000Y-13433000D01*
X7242000Y-13597000D02*
X7332000Y-13687000D01*
X7332000Y-13597000D02*
X7242000Y-13687000D01*
X7242000Y-13851000D02*
X7332000Y-13941000D01*
X7332000Y-13851000D02*
X7242000Y-13941000D01*
X7242000Y-14105000D02*
X7332000Y-14195000D01*
X7332000Y-14105000D02*
X7242000Y-14195000D01*
X7496000Y-5215000D02*
X7586000Y-5305000D01*
X7586000Y-5215000D02*
X7496000Y-5305000D01*
X7496000Y-5469000D02*
X7586000Y-5559000D01*
X7586000Y-5469000D02*
X7496000Y-5559000D01*
X7496000Y-5723000D02*
X7586000Y-5813000D01*
X7586000Y-5723000D02*
X7496000Y-5813000D01*
X7496000Y-5977000D02*
X7586000Y-6067000D01*
X7586000Y-5977000D02*
X7496000Y-6067000D01*
X7496000Y-6231000D02*
X7586000Y-6321000D01*
X7586000Y-6231000D02*
X7496000Y-6321000D01*
X7496000Y-6485000D02*
X7586000Y-6575000D01*
X7586000Y-6485000D02*
X7496000Y-6575000D01*
X7496000Y-6739000D02*
X7586000Y-6829000D01*
X7586000Y-6739000D02*
X7496000Y-6829000D01*
X7496000Y-6993000D02*
X7586000Y-7083000D01*
X7586000Y-6993000D02*
X7496000Y-7083000D01*
X7496000Y-7247000D02*
X7586000Y-7337000D01*
X7586000Y-7247000D02*
X7496000Y-7337000D01*
X7496000Y-7501000D02*
X7586000Y-7591000D01*
X7586000Y-7501000D02*
X7496000Y-7591000D01*
X7496000Y-7755000D02*
X7586000Y-7845000D01*
X7586000Y-7755000D02*
X7496000Y-7845000D01*
X7496000Y-8009000D02*
X7586000Y-8099000D01*
X7586000Y-8009000D02*
X7496000Y-8099000D01*
X7496000Y-8263000D02*
X7586000Y-8353000D01*
X7586000Y-8263000D02*
X7496000Y-8353000D01*
X7496000Y-8517000D02*
X7586000Y-8607000D01*
X7586000Y-8517000D02*
X7496000Y-8607000D01*
X7496000Y-8771000D02*
X7586000Y-8861000D01*
X7586000Y-8771000D02*
X7496000Y-8861000D01*
X7496000Y-9025000D02*
X7586000Y-9115000D01*
X7586000Y-9025000D02*
X7496000Y-9115000D01*
X7496000Y-9279000D02*
X7586000Y-9369000D01*
X7586000Y-9279000D02*
X7496000Y-9369000D01*
X7496000Y-9533000D02*
X7586000Y-9623000D01*
X7586000Y-9533000D02*
X7496000Y-9623000D01*
X7496000Y-9787000D02*
X7586000Y-9877000D01*
X7586000Y-9787000D02*
X7496000Y-9877000D01*
X7496000Y-10041000D02*
X7586000Y-10131000D01*
X7586000Y-10041000D02*
X7496000Y-10131000D01*
X7496000Y-10295000D02*
X7586000Y-10385000D01*
X7586000Y-10295000D02*
X7496000Y-10385000D01*
X7496000Y-10549000D02*
X7586000Y-10639000D01*
X7586000Y-10549000D02*
X7496000Y-10639000D01*
X7496000Y-10803000D02*
X7586000Y-10893000D01*
X7586000Y-10803000D02*
X7496000Y-10893000D01*
X7496000Y-11057000D02*
X7586000Y-11147000D01*
X7586000Y-11057000D02*
X7496000Y-11147000D01*
X7496000Y-11311000D02*
X7586000Y-11401000D01*
X7586000Y-11311000D02*
X7496000Y-11401000D01*
X7496000Y-11565000D02*
X7586000Y-11655000D01*
X7586000Y-11565000D02*
X7496000Y-11655000D01*
X7496000Y-11819000D02*
X7586000Y-11909000D01*
X7586000Y-11819000D02*
X7496000Y-11909000D01*
X7496000Y-12073000D02*
X7586000Y-12163000D01*
X7586000Y-12073000D02*
X7496000Y-12163000D01*
X7496000Y-12327000D02*
X7586000Y-12417000D01*
X7586000Y-12327000D02*
X7496000Y-12417000D01*
X7496000Y-12581000D02*
X7586000Y-12671000D01*
X7586000Y-12581000D02*
X7496000Y-12671000D01*
X7496000Y-12835000D02*
X7586000Y-12925000D01*
X7586000Y-12835000D02*
X7496000Y-12925000D01*
X7496000Y-13089000D02*
X7586000Y-13179000D01*
X7586000Y-13089000D02*
X7496000Y-13179000D01*
X7496000Y-13343000D02*
X7586000Y-13433000D01*
X7586000Y-13343000D02*
X7496000Y-13433000D01*
X7496000Y-13597000D02*
X7586000Y-13687000D01*
X7586000Y-13597000D02*
X7496000Y-13687000D01*
X7496000Y-13851000D02*
X7586000Y-13941000D01*
X7586000Y-13851000D02*
X7496000Y-13941000D01*
X7496000Y-14105000D02*
X7586000Y-14195000D01*
X7586000Y-14105000D02*
X7496000Y-14195000D01*
X7750000Y-5215000D02*
X7840000Y-5305000D01*
X7840000Y-5215000D02*
X7750000Y-5305000D01*
X7750000Y-5469000D02*
X7840000Y-5559000D01*
X7840000Y-5469000D02*
X7750000Y-5559000D01*
X7750000Y-5723000D02*
X7840000Y-5813000D01*
X7840000Y-5723000D02*
X7750000Y-5813000D01*
X7750000Y-5977000D02*
X7840000Y-6067000D01*
X7840000Y-5977000D02*
X7750000Y-6067000D01*
X7750000Y-6231000D02*
X7840000Y-6321000D01*
X7840000Y-6231000D02*
X7750000Y-6321000D01*
X7750000Y-6485000D02*
X7840000Y-6575000D01*
X7840000Y-6485000D02*
X7750000Y-6575000D01*
X7750000Y-6739000D02*
X7840000Y-6829000D01*
X7840000Y-6739000D02*
X7750000Y-6829000D01*
X7750000Y-6993000D02*
X7840000Y-7083000D01*
X7840000Y-6993000D02*
X7750000Y-7083000D01*
X7750000Y-7247000D02*
X7840000Y-7337000D01*
X7840000Y-7247000D02*
X7750000Y-7337000D01*
X7750000Y-7501000D02*
X7840000Y-7591000D01*
X7840000Y-7501000D02*
X7750000Y-7591000D01*
X7750000Y-7755000D02*
X7840000Y-7845000D01*
X7840000Y-7755000D02*
X7750000Y-7845000D01*
X7750000Y-8009000D02*
X7840000Y-8099000D01*
X7840000Y-8009000D02*
X7750000Y-8099000D01*
X7750000Y-8263000D02*
X7840000Y-8353000D01*
X7840000Y-8263000D02*
X7750000Y-8353000D01*
X7750000Y-8517000D02*
X7840000Y-8607000D01*
X7840000Y-8517000D02*
X7750000Y-8607000D01*
X7750000Y-8771000D02*
X7840000Y-8861000D01*
X7840000Y-8771000D02*
X7750000Y-8861000D01*
X7750000Y-9025000D02*
X7840000Y-9115000D01*
X7840000Y-9025000D02*
X7750000Y-9115000D01*
X7750000Y-9279000D02*
X7840000Y-9369000D01*
X7840000Y-9279000D02*
X7750000Y-9369000D01*
X7750000Y-9533000D02*
X7840000Y-9623000D01*
X7840000Y-9533000D02*
X7750000Y-9623000D01*
X7750000Y-9787000D02*
X7840000Y-9877000D01*
X7840000Y-9787000D02*
X7750000Y-9877000D01*
X7750000Y-10041000D02*
X7840000Y-10131000D01*
X7840000Y-10041000D02*
X7750000Y-10131000D01*
X7750000Y-10295000D02*
X7840000Y-10385000D01*
X7840000Y-10295000D02*
X7750000Y-10385000D01*
X7750000Y-10549000D02*
X7840000Y-10639000D01*
X7840000Y-10549000D02*
X7750000Y-10639000D01*
X7750000Y-10803000D02*
X7840000Y-10893000D01*
X7840000Y-10803000D02*
X7750000Y-10893000D01*
X7750000Y-11057000D02*
X7840000Y-11147000D01*
X7840000Y-11057000D02*
X7750000Y-11147000D01*
X7750000Y-11311000D02*
X7840000Y-11401000D01*
X7840000Y-11311000D02*
X7750000Y-11401000D01*
X7750000Y-11565000D02*
X7840000Y-11655000D01*
X7840000Y-11565000D02*
X7750000Y-11655000D01*
X7750000Y-11819000D02*
X7840000Y-11909000D01*
X7840000Y-11819000D02*
X7750000Y-11909000D01*
X7750000Y-12073000D02*
X7840000Y-12163000D01*
X7840000Y-12073000D02*
X7750000Y-12163000D01*
X7750000Y-12327000D02*
X7840000Y-12417000D01*
X7840000Y-12327000D02*
X7750000Y-12417000D01*
X7750000Y-12581000D02*
X7840000Y-12671000D01*
X7840000Y-12581000D02*
X7750000Y-12671000D01*
X7750000Y-12835000D02*
X7840000Y-12925000D01*
X7840000Y-12835000D02*
X7750000Y-12925000D01*
X7750000Y-13089000D02*
X7840000Y-13179000D01*
X7840000Y-13089000D02*
X7750000Y-13179000D01*
X7750000Y-13343000D02*
X7840000Y-13433000D01*
X7840000Y-13343000D02*
X7750000Y-13433000D01*
X7750000Y-13597000D02*
X7840000Y-13687000D01*
X7840000Y-13597000D02*
X7750000Y-13687000D01*
X7750000Y-13851000D02*
X7840000Y-13941000D01*
X7840000Y-13851000D02*
X7750000Y-13941000D01*
X7750000Y-14105000D02*
X7840000Y-14195000D01*
X7840000Y-14105000D02*
X7750000Y-14195000D01*
X8004000Y-5215000D02*
X8094000Y-5305000D01*
X8094000Y-5215000D02*
X8004000Y-5305000D01*
X8004000Y-5469000D02*
X8094000Y-5559000D01*
X8094000Y-5469000D02*
X8004000Y-5559000D01*
X8004000Y-5723000D02*
X8094000Y-5813000D01*
X8094000Y-5723000D02*
X8004000Y-5813000D01*
X8004000Y-5977000D02*
X8094000Y-6067000D01*
X8094000Y-5977000D02*
X8004000Y-6067000D01*
X8004000Y-6231000D02*
X8094000Y-6321000D01*
X8094000Y-6231000D02*
X8004000Y-6321000D01*
X8004000Y-6485000D02*
X8094000Y-6575000D01*
X8094000Y-6485000D02*
X8004000Y-6575000D01*
X8004000Y-6739000D02*
X8094000Y-6829000D01*
X8094000Y-6739000D02*
X8004000Y-6829000D01*
X8004000Y-6993000D02*
X8094000Y-7083000D01*
X8094000Y-6993000D02*
X8004000Y-7083000D01*
X8004000Y-7247000D02*
X8094000Y-7337000D01*
X8094000Y-7247000D02*
X8004000Y-7337000D01*
X8004000Y-7501000D02*
X8094000Y-7591000D01*
X8094000Y-7501000D02*
X8004000Y-7591000D01*
X8004000Y-7755000D02*
X8094000Y-7845000D01*
X8094000Y-7755000D02*
X8004000Y-7845000D01*
X8004000Y-8009000D02*
X8094000Y-8099000D01*
X8094000Y-8009000D02*
X8004000Y-8099000D01*
X8004000Y-8263000D02*
X8094000Y-8353000D01*
X8094000Y-8263000D02*
X8004000Y-8353000D01*
X8004000Y-8517000D02*
X8094000Y-8607000D01*
X8094000Y-8517000D02*
X8004000Y-8607000D01*
X8004000Y-8771000D02*
X8094000Y-8861000D01*
X8094000Y-8771000D02*
X8004000Y-8861000D01*
X8004000Y-9025000D02*
X8094000Y-9115000D01*
X8094000Y-9025000D02*
X8004000Y-9115000D01*
X8004000Y-9279000D02*
X8094000Y-9369000D01*
X8094000Y-9279000D02*
X8004000Y-9369000D01*
X8004000Y-9533000D02*
X8094000Y-9623000D01*
X8094000Y-9533000D02*
X8004000Y-9623000D01*
X8004000Y-9787000D02*
X8094000Y-9877000D01*
X8094000Y-9787000D02*
X8004000Y-9877000D01*
X8004000Y-10041000D02*
X8094000Y-10131000D01*
X8094000Y-10041000D02*
X8004000Y-10131000D01*
X8004000Y-10295000D02*
X8094000Y-10385000D01*
X8094000Y-10295000D02*
X8004000Y-10385000D01*
X8004000Y-10549000D02*
X8094000Y-10639000D01*
X8094000Y-10549000D02*
X8004000Y-10639000D01*
X8004000Y-10803000D02*
X8094000Y-10893000D01*
X8094000Y-10803000D02*
X8004000Y-10893000D01*
X8004000Y-11057000D02*
X8094000Y-11147000D01*
X8094000Y-11057000D02*
X8004000Y-11147000D01*
X8004000Y-11311000D02*
X8094000Y-11401000D01*
X8094000Y-11311000D02*
X8004000Y-11401000D01*
X8004000Y-11565000D02*
X8094000Y-11655000D01*
X8094000Y-11565000D02*
X8004000Y-11655000D01*
X8004000Y-11819000D02*
X8094000Y-11909000D01*
X8094000Y-11819000D02*
X8004000Y-11909000D01*
X8004000Y-12073000D02*
X8094000Y-12163000D01*
X8094000Y-12073000D02*
X8004000Y-12163000D01*
X8004000Y-12327000D02*
X8094000Y-12417000D01*
X8094000Y-12327000D02*
X8004000Y-12417000D01*
X8004000Y-12581000D02*
X8094000Y-12671000D01*
X8094000Y-12581000D02*
X8004000Y-12671000D01*
X8004000Y-12835000D02*
X8094000Y-12925000D01*
X8094000Y-12835000D02*
X8004000Y-12925000D01*
X8004000Y-13089000D02*
X8094000Y-13179000D01*
X8094000Y-13089000D02*
X8004000Y-13179000D01*
X8004000Y-13343000D02*
X8094000Y-13433000D01*
X8094000Y-13343000D02*
X8004000Y-13433000D01*
X8004000Y-13597000D02*
X8094000Y-13687000D01*
X8094000Y-13597000D02*
X8004000Y-13687000D01*
X8004000Y-13851000D02*
X8094000Y-13941000D01*
X8094000Y-13851000D02*
X8004000Y-13941000D01*
X8004000Y-14105000D02*
X8094000Y-14195000D01*
X8094000Y-14105000D02*
X8004000Y-14195000D01*
X8258000Y-5215000D02*
X8348000Y-5305000D01*
X8348000Y-5215000D02*
X8258000Y-5305000D01*
X8258000Y-5469000D02*
X8348000Y-5559000D01*
X8348000Y-5469000D02*
X8258000Y-5559000D01*
X8258000Y-5723000D02*
X8348000Y-5813000D01*
X8348000Y-5723000D02*
X8258000Y-5813000D01*
X8258000Y-5977000D02*
X8348000Y-6067000D01*
X8348000Y-5977000D02*
X8258000Y-6067000D01*
X8258000Y-6231000D02*
X8348000Y-6321000D01*
X8348000Y-6231000D02*
X8258000Y-6321000D01*
X8258000Y-6485000D02*
X8348000Y-6575000D01*
X8348000Y-6485000D02*
X8258000Y-6575000D01*
X8258000Y-6739000D02*
X8348000Y-6829000D01*
X8348000Y-6739000D02*
X8258000Y-6829000D01*
X8258000Y-6993000D02*
X8348000Y-7083000D01*
X8348000Y-6993000D02*
X8258000Y-7083000D01*
X8258000Y-7247000D02*
X8348000Y-7337000D01*
X8348000Y-7247000D02*
X8258000Y-7337000D01*
X8258000Y-7501000D02*
X8348000Y-7591000D01*
X8348000Y-7501000D02*
X8258000Y-7591000D01*
X8258000Y-7755000D02*
X8348000Y-7845000D01*
X8348000Y-7755000D02*
X8258000Y-7845000D01*
X8258000Y-8009000D02*
X8348000Y-8099000D01*
X8348000Y-8009000D02*
X8258000Y-8099000D01*
X8258000Y-8263000D02*
X8348000Y-8353000D01*
X8348000Y-8263000D02*
X8258000Y-8353000D01*
X8258000Y-8517000D02*
X8348000Y-8607000D01*
X8348000Y-8517000D02*
X8258000Y-8607000D01*
X8258000Y-8771000D02*
X8348000Y-8861000D01*
X8348000Y-8771000D02*
X8258000Y-8861000D01*
X8258000Y-9025000D02*
X8348000Y-9115000D01*
X8348000Y-9025000D02*
X8258000Y-9115000D01*
X8258000Y-9279000D02*
X8348000Y-9369000D01*
X8348000Y-9279000D02*
X8258000Y-9369000D01*
X8258000Y-9533000D02*
X8348000Y-9623000D01*
X8348000Y-9533000D02*
X8258000Y-9623000D01*
X8258000Y-9787000D02*
X8348000Y-9877000D01*
X8348000Y-9787000D02*
X8258000Y-9877000D01*
X8258000Y-10041000D02*
X8348000Y-10131000D01*
X8348000Y-10041000D02*
X8258000Y-10131000D01*
X8258000Y-10295000D02*
X8348000Y-10385000D01*
X8348000Y-10295000D02*
X8258000Y-10385000D01*
X8258000Y-10549000D02*
X8348000Y-10639000D01*
X8348000Y-10549000D02*
X8258000Y-10639000D01*
X8258000Y-10803000D02*
X8348000Y-10893000D01*
X8348000Y-10803000D02*
X8258000Y-10893000D01*
X8258000Y-11057000D02*
X8348000Y-11147000D01*
X8348000Y-11057000D02*
X8258000Y-11147000D01*
X8258000Y-11311000D02*
X8348000Y-11401000D01*
X8348000Y-11311000D02*
X8258000Y-11401000D01*
X8258000Y-11565000D02*
X8348000Y-11655000D01*
X8348000Y-11565000D02*
X8258000Y-11655000D01*
X8258000Y-11819000D02*
X8348000Y-11909000D01*
X8348000Y-11819000D02*
X8258000Y-11909000D01*
X8258000Y-12073000D02*
X8348000Y-12163000D01*
X8348000Y-12073000D02*
X8258000Y-12163000D01*
X8258000Y-12327000D02*
X8348000Y-12417000D01*
X8348000Y-12327000D02*
X8258000Y-12417000D01*
X8258000Y-12581000D02*
X8348000Y-12671000D01*
X8348000Y-12581000D02*
X8258000Y-12671000D01*
X8258000Y-12835000D02*
X8348000Y-12925000D01*
X8348000Y-12835000D02*
X8258000Y-12925000D01*
X8258000Y-13089000D02*
X8348000Y-13179000D01*
X8348000Y-13089000D02*
X8258000Y-13179000D01*
X8258000Y-13343000D02*
X8348000Y-13433000D01*
X8348000Y-13343000D02*
X8258000Y-13433000D01*
X8258000Y-13597000D02*
X8348000Y-13687000D01*
X8348000Y-13597000D02*
X8258000Y-13687000D01*
X8258000Y-13851000D02*
X8348000Y-13941000D01*
X8348000Y-13851000D02*
X8258000Y-13941000D01*
X8258000Y-14105000D02*
X8348000Y-14195000D01*
X8348000Y-14105000D02*
X8258000Y-14195000D01*
X8512000Y-5215000D02*
X8602000Y-5305000D01*
X8602000Y-5215000D02*
X8512000Y-5305000D01*
X8512000Y-5469000D02*
X8602000Y-5559000D01*
X8602000Y-5469000D02*
X8512000Y-5559000D01*
X8512000Y-5723000D02*
X8602000Y-5813000D01*
X8602000Y-5723000D02*
X8512000Y-5813000D01*
X8512000Y-5977000D02*
X8602000Y-6067000D01*
X8602000Y-5977000D02*
X8512000Y-6067000D01*
X8512000Y-6231000D02*
X8602000Y-6321000D01*
X8602000Y-6231000D02*
X8512000Y-6321000D01*
X8512000Y-6485000D02*
X8602000Y-6575000D01*
X8602000Y-6485000D02*
X8512000Y-6575000D01*
X8512000Y-6739000D02*
X8602000Y-6829000D01*
X8602000Y-6739000D02*
X8512000Y-6829000D01*
X8512000Y-6993000D02*
X8602000Y-7083000D01*
X8602000Y-6993000D02*
X8512000Y-7083000D01*
X8512000Y-7247000D02*
X8602000Y-7337000D01*
X8602000Y-7247000D02*
X8512000Y-7337000D01*
X8512000Y-7501000D02*
X8602000Y-7591000D01*
X8602000Y-7501000D02*
X8512000Y-7591000D01*
X8512000Y-7755000D02*
X8602000Y-7845000D01*
X8602000Y-7755000D02*
X8512000Y-7845000D01*
X8512000Y-8009000D02*
X8602000Y-8099000D01*
X8602000Y-8009000D02*
X8512000Y-8099000D01*
X8512000Y-8263000D02*
X8602000Y-8353000D01*
X8602000Y-8263000D02*
X8512000Y-8353000D01*
X8512000Y-8517000D02*
X8602000Y-8607000D01*
X8602000Y-8517000D02*
X8512000Y-8607000D01*
X8512000Y-8771000D02*
X8602000Y-8861000D01*
X8602000Y-8771000D02*
X8512000Y-8861000D01*
X8512000Y-9025000D02*
X8602000Y-9115000D01*
X8602000Y-9025000D02*
X8512000Y-9115000D01*
X8512000Y-9279000D02*
X8602000Y-9369000D01*
X8602000Y-9279000D02*
X8512000Y-9369000D01*
X8512000Y-9533000D02*
X8602000Y-9623000D01*
X8602000Y-9533000D02*
X8512000Y-9623000D01*
X8512000Y-9787000D02*
X8602000Y-9877000D01*
X8602000Y-9787000D02*
X8512000Y-9877000D01*
X8512000Y-10041000D02*
X8602000Y-10131000D01*
X8602000Y-10041000D02*
X8512000Y-10131000D01*
X8512000Y-10295000D02*
X8602000Y-10385000D01*
X8602000Y-10295000D02*
X8512000Y-10385000D01*
X8512000Y-10549000D02*
X8602000Y-10639000D01*
X8602000Y-10549000D02*
X8512000Y-10639000D01*
X8512000Y-10803000D02*
X8602000Y-10893000D01*
X8602000Y-10803000D02*
X8512000Y-10893000D01*
X8512000Y-11057000D02*
X8602000Y-11147000D01*
X8602000Y-11057000D02*
X8512000Y-11147000D01*
X8512000Y-11311000D02*
X8602000Y-11401000D01*
X8602000Y-11311000D02*
X8512000Y-11401000D01*
X8512000Y-11565000D02*
X8602000Y-11655000D01*
X8602000Y-11565000D02*
X8512000Y-11655000D01*
X8512000Y-11819000D02*
X8602000Y-11909000D01*
X8602000Y-11819000D02*
X8512000Y-11909000D01*
X8512000Y-12073000D02*
X8602000Y-12163000D01*
X8602000Y-12073000D02*
X8512000Y-12163000D01*
X8512000Y-12327000D02*
X8602000Y-12417000D01*
X8602000Y-12327000D02*
X8512000Y-12417000D01*
X8512000Y-12581000D02*
X8602000Y-12671000D01*
X8602000Y-12581000D02*
X8512000Y-12671000D01*
X8512000Y-12835000D02*
X8602000Y-12925000D01*
X8602000Y-12835000D02*
X8512000Y-12925000D01*
X8512000Y-13089000D02*
X8602000Y-13179000D01*
X8602000Y-13089000D02*
X8512000Y-13179000D01*
X8512000Y-13343000D02*
X8602000Y-13433000D01*
X8602000Y-13343000D02*
X8512000Y-13433000D01*
X8512000Y-13597000D02*
X8602000Y-13687000D01*
X8602000Y-13597000D02*
X8512000Y-13687000D01*
X8512000Y-13851000D02*
X8602000Y-13941000D01*
X8602000Y-13851000D02*
X8512000Y-13941000D01*
X8512000Y-14105000D02*
X8602000Y-14195000D01*
X8602000Y-14105000D02*
X8512000Y-14195000D01*
X8766000Y-5215000D02*
X8856000Y-5305000D01*
X8856000Y-5215000D02*
X8766000Y-5305000D01*
X8766000Y-5469000D02*
X8856000Y-5559000D01*
X8856000Y-5469000D02*
X8766000Y-5559000D01*
X8766000Y-5723000D02*
X8856000Y-5813000D01*
X8856000Y-5723000D02*
X8766000Y-5813000D01*
X8766000Y-5977000D02*
X8856000Y-6067000D01*
X8856000Y-5977000D02*
X8766000Y-6067000D01*
X8766000Y-6231000D02*
X8856000Y-6321000D01*
X8856000Y-6231000D02*
X8766000Y-6321000D01*
X8766000Y-6485000D02*
X8856000Y-6575000D01*
X8856000Y-6485000D02*
X8766000Y-6575000D01*
X8766000Y-6739000D02*
X8856000Y-6829000D01*
X8856000Y-6739000D02*
X8766000Y-6829000D01*
X8766000Y-6993000D02*
X8856000Y-7083000D01*
X8856000Y-6993000D02*
X8766000Y-7083000D01*
X8766000Y-7247000D02*
X8856000Y-7337000D01*
X8856000Y-7247000D02*
X8766000Y-7337000D01*
X8766000Y-7501000D02*
X8856000Y-7591000D01*
X8856000Y-7501000D02*
X8766000Y-7591000D01*
X8766000Y-7755000D02*
X8856000Y-7845000D01*
X8856000Y-7755000D02*
X8766000Y-7845000D01*
X8766000Y-8009000D02*
X8856000Y-8099000D01*
X8856000Y-8009000D02*
X8766000Y-8099000D01*
X8766000Y-8263000D02*
X8856000Y-8353000D01*
X8856000Y-8263000D02*
X8766000Y-8353000D01*
X8766000Y-8517000D02*
X8856000Y-8607000D01*
X8856000Y-8517000D02*
X8766000Y-8607000D01*
X8766000Y-8771000D02*
X8856000Y-8861000D01*
X8856000Y-8771000D02*
X8766000Y-8861000D01*
X8766000Y-9025000D02*
X8856000Y-9115000D01*
X8856000Y-9025000D02*
X8766000Y-9115000D01*
X8766000Y-9279000D02*
X8856000Y-9369000D01*
X8856000Y-9279000D02*
X8766000Y-9369000D01*
X8766000Y-9533000D02*
X8856000Y-9623000D01*
X8856000Y-9533000D02*
X8766000Y-9623000D01*
X8766000Y-9787000D02*
X8856000Y-9877000D01*
X8856000Y-9787000D02*
X8766000Y-9877000D01*
X8766000Y-10041000D02*
X8856000Y-10131000D01*
X8856000Y-10041000D02*
X8766000Y-10131000D01*
X8766000Y-10295000D02*
X8856000Y-10385000D01*
X8856000Y-10295000D02*
X8766000Y-10385000D01*
X8766000Y-10549000D02*
X8856000Y-10639000D01*
X8856000Y-10549000D02*
X8766000Y-10639000D01*
X8766000Y-10803000D02*
X8856000Y-10893000D01*
X8856000Y-10803000D02*
X8766000Y-10893000D01*
X8766000Y-11057000D02*
X8856000Y-11147000D01*
X8856000Y-11057000D02*
X8766000Y-11147000D01*
X8766000Y-11311000D02*
X8856000Y-11401000D01*
X8856000Y-11311000D02*
X8766000Y-11401000D01*
X8766000Y-11565000D02*
X8856000Y-11655000D01*
X8856000Y-11565000D02*
X8766000Y-11655000D01*
X8766000Y-11819000D02*
X8856000Y-11909000D01*
X8856000Y-11819000D02*
X8766000Y-11909000D01*
X8766000Y-12073000D02*
X8856000Y-12163000D01*
X8856000Y-12073000D02*
X8766000Y-12163000D01*
X8766000Y-12327000D02*
X8856000Y-12417000D01*
X8856000Y-12327000D02*
X8766000Y-12417000D01*
X8766000Y-12581000D02*
X8856000Y-12671000D01*
X8856000Y-12581000D02*
X8766000Y-12671000D01*
X8766000Y-12835000D02*
X8856000Y-12925000D01*
X8856000Y-12835000D02*
X8766000Y-12925000D01*
X8766000Y-13089000D02*
X8856000Y-13179000D01*
X8856000Y-13089000D02*
X8766000Y-13179000D01*
X8766000Y-13343000D02*
X8856000Y-13433000D01*
X8856000Y-13343000D02*
X8766000Y-13433000D01*
X8766000Y-13597000D02*
X8856000Y-13687000D01*
X8856000Y-13597000D02*
X8766000Y-13687000D01*
X8766000Y-13851000D02*
X8856000Y-13941000D01*
X8856000Y-13851000D02*
X8766000Y-13941000D01*
X8766000Y-14105000D02*
X8856000Y-14195000D01*
X8856000Y-14105000D02*
X8766000Y-14195000D01*
X9020000Y-5215000D02*
X9110000Y-5305000D01*
X9110000Y-5215000D02*
X9020000Y-5305000D01*
X9020000Y-5469000D02*
X9110000Y-5559000D01*
X9110000Y-5469000D02*
X9020000Y-5559000D01*
X9020000Y-5723000D02*
X9110000Y-5813000D01*
X9110000Y-5723000D02*
X9020000Y-5813000D01*
X9020000Y-5977000D02*
X9110000Y-6067000D01*
X9110000Y-5977000D02*
X9020000Y-6067000D01*
X9020000Y-6231000D02*
X9110000Y-6321000D01*
X9110000Y-6231000D02*
X9020000Y-6321000D01*
X9020000Y-6485000D02*
X9110000Y-6575000D01*
X9110000Y-6485000D02*
X9020000Y-6575000D01*
X9020000Y-6739000D02*
X9110000Y-6829000D01*
X9110000Y-6739000D02*
X9020000Y-6829000D01*
X9020000Y-6993000D02*
X9110000Y-7083000D01*
X9110000Y-6993000D02*
X9020000Y-7083000D01*
X9020000Y-7247000D02*
X9110000Y-7337000D01*
X9110000Y-7247000D02*
X9020000Y-7337000D01*
X9020000Y-7501000D02*
X9110000Y-7591000D01*
X9110000Y-7501000D02*
X9020000Y-7591000D01*
X9020000Y-7755000D02*
X9110000Y-7845000D01*
X9110000Y-7755000D02*
X9020000Y-7845000D01*
X9020000Y-8009000D02*
X9110000Y-8099000D01*
X9110000Y-8009000D02*
X9020000Y-8099000D01*
X9020000Y-8263000D02*
X9110000Y-8353000D01*
X9110000Y-8263000D02*
X9020000Y-8353000D01*
X9020000Y-8517000D02*
X9110000Y-8607000D01*
X9110000Y-8517000D02*
X9020000Y-8607000D01*
X9020000Y-8771000D02*
X9110000Y-8861000D01*
X9110000Y-8771000D02*
X9020000Y-8861000D01*
X9020000Y-9025000D02*
X9110000Y-9115000D01*
X9110000Y-9025000D02*
X9020000Y-9115000D01*
X9020000Y-9279000D02*
X9110000Y-9369000D01*
X9110000Y-9279000D02*
X9020000Y-9369000D01*
X9020000Y-9533000D02*
X9110000Y-9623000D01*
X9110000Y-9533000D02*
X9020000Y-9623000D01*
X9020000Y-9787000D02*
X9110000Y-9877000D01*
X9110000Y-9787000D02*
X9020000Y-9877000D01*
X9020000Y-10041000D02*
X9110000Y-10131000D01*
X9110000Y-10041000D02*
X9020000Y-10131000D01*
X9020000Y-10295000D02*
X9110000Y-10385000D01*
X9110000Y-10295000D02*
X9020000Y-10385000D01*
X9020000Y-10549000D02*
X9110000Y-10639000D01*
X9110000Y-10549000D02*
X9020000Y-10639000D01*
X9020000Y-10803000D02*
X9110000Y-10893000D01*
X9110000Y-10803000D02*
X9020000Y-10893000D01*
X9020000Y-11057000D02*
X9110000Y-11147000D01*
X9110000Y-11057000D02*
X9020000Y-11147000D01*
X9020000Y-11311000D02*
X9110000Y-11401000D01*
X9110000Y-11311000D02*
X9020000Y-11401000D01*
X9020000Y-11565000D02*
X9110000Y-11655000D01*
X9110000Y-11565000D02*
X9020000Y-11655000D01*
X9020000Y-11819000D02*
X9110000Y-11909000D01*
X9110000Y-11819000D02*
X9020000Y-11909000D01*
X9020000Y-12073000D02*
X9110000Y-12163000D01*
X9110000Y-12073000D02*
X9020000Y-12163000D01*
X9020000Y-12327000D02*
X9110000Y-12417000D01*
X9110000Y-12327000D02*
X9020000Y-12417000D01*
X9020000Y-12581000D02*
X9110000Y-12671000D01*
X9110000Y-12581000D02*
X9020000Y-12671000D01*
X9020000Y-12835000D02*
X9110000Y-12925000D01*
X9110000Y-12835000D02*
X9020000Y-12925000D01*
X9020000Y-13089000D02*
X9110000Y-13179000D01*
X9110000Y-13089000D02*
X9020000Y-13179000D01*
X9020000Y-13343000D02*
X9110000Y-13433000D01*
X9110000Y-13343000D02*
X9020000Y-13433000D01*
X9020000Y-13597000D02*
X9110000Y-13687000D01*
X9110000Y-13597000D02*
X9020000Y-13687000D01*
X9020000Y-13851000D02*
X9110000Y-13941000D01*
X9110000Y-13851000D02*
X9020000Y-13941000D01*
X9020000Y-14105000D02*
X9110000Y-14195000D01*
X9110000Y-14105000D02*
X9020000Y-14195000D01*
X9274000Y-5215000D02*
X9364000Y-5305000D01*
X9364000Y-5215000D02*
X9274000Y-5305000D01*
X9274000Y-5469000D02*
X9364000Y-5559000D01*
X9364000Y-5469000D02*
X9274000Y-5559000D01*
X9274000Y-5723000D02*
X9364000Y-5813000D01*
X9364000Y-5723000D02*
X9274000Y-5813000D01*
X9274000Y-5977000D02*
X9364000Y-6067000D01*
X9364000Y-5977000D02*
X9274000Y-6067000D01*
X9274000Y-6231000D02*
X9364000Y-6321000D01*
X9364000Y-6231000D02*
X9274000Y-6321000D01*
X9274000Y-6485000D02*
X9364000Y-6575000D01*
X9364000Y-6485000D02*
X9274000Y-6575000D01*
X9274000Y-6739000D02*
X9364000Y-6829000D01*
X9364000Y-6739000D02*
X9274000Y-6829000D01*
X9274000Y-6993000D02*
X9364000Y-7083000D01*
X9364000Y-6993000D02*
X9274000Y-7083000D01*
X9274000Y-7247000D02*
X9364000Y-7337000D01*
X9364000Y-7247000D02*
X9274000Y-7337000D01*
X9274000Y-7501000D02*
X9364000Y-7591000D01*
X9364000Y-7501000D02*
X9274000Y-7591000D01*
X9274000Y-7755000D02*
X9364000Y-7845000D01*
X9364000Y-7755000D02*
X9274000Y-7845000D01*
X9274000Y-8009000D02*
X9364000Y-8099000D01*
X9364000Y-8009000D02*
X9274000Y-8099000D01*
X9274000Y-8263000D02*
X9364000Y-8353000D01*
X9364000Y-8263000D02*
X9274000Y-8353000D01*
X9274000Y-8517000D02*
X9364000Y-8607000D01*
X9364000Y-8517000D02*
X9274000Y-8607000D01*
X9274000Y-8771000D02*
X9364000Y-8861000D01*
X9364000Y-8771000D02*
X9274000Y-8861000D01*
X9274000Y-9025000D02*
X9364000Y-9115000D01*
X9364000Y-9025000D02*
X9274000Y-9115000D01*
X9274000Y-9279000D02*
X9364000Y-9369000D01*
X9364000Y-9279000D02*
X9274000Y-9369000D01*
X9274000Y-9533000D02*
X9364000Y-9623000D01*
X9364000Y-9533000D02*
X9274000Y-9623000D01*
X9274000Y-9787000D02*
X9364000Y-9877000D01*
X9364000Y-9787000D02*
X9274000Y-9877000D01*
X9274000Y-10041000D02*
X9364000Y-10131000D01*
X9364000Y-10041000D02*
X9274000Y-10131000D01*
X9274000Y-10295000D02*
X9364000Y-10385000D01*
X9364000Y-10295000D02*
X9274000Y-10385000D01*
X9274000Y-10549000D02*
X9364000Y-10639000D01*
X9364000Y-10549000D02*
X9274000Y-10639000D01*
X9274000Y-10803000D02*
X9364000Y-10893000D01*
X9364000Y-10803000D02*
X9274000Y-10893000D01*
X9274000Y-11057000D02*
X9364000Y-11147000D01*
X9364000Y-11057000D02*
X9274000Y-11147000D01*
X9274000Y-11311000D02*
X9364000Y-11401000D01*
X9364000Y-11311000D02*
X9274000Y-11401000D01*
X9274000Y-11565000D02*
X9364000Y-11655000D01*
X9364000Y-11565000D02*
X9274000Y-11655000D01*
X9274000Y-11819000D02*
X9364000Y-11909000D01*
X9364000Y-11819000D02*
X9274000Y-11909000D01*
X9274000Y-12073000D02*
X9364000Y-12163000D01*
X9364000Y-12073000D02*
X9274000Y-12163000D01*
X9274000Y-12327000D02*
X9364000Y-12417000D01*
X9364000Y-12327000D02*
X9274000Y-12417000D01*
X9274000Y-12581000D02*
X9364000Y-12671000D01*
X9364000Y-12581000D02*
X9274000Y-12671000D01*
X9274000Y-12835000D02*
X9364000Y-12925000D01*
X9364000Y-12835000D02*
X9274000Y-12925000D01*
X9274000Y-13089000D02*
X9364000Y-13179000D01*
X9364000Y-13089000D02*
X9274000Y-13179000D01*
X9274000Y-13343000D02*
X9364000Y-13433000D01*
X9364000Y-13343000D02*
X9274000Y-13433000D01*
X9274000Y-13597000D02*
X9364000Y-13687000D01*
X9364000Y-13597000D02*
X9274000Y-13687000D01*
X9274000Y-13851000D02*
X9364000Y-13941000D01*
X9364000Y-13851000D02*
X9274000Y-13941000D01*
X9274000Y-14105000D02*
X9364000Y-14195000D01*
X9364000Y-14105000D02*
X9274000Y-14195000D01*
X9528000Y-5215000D02*
X9618000Y-5305000D01*
X9618000Y-5215000D02*
X9528000Y-5305000D01*
X9528000Y-5469000D02*
X9618000Y-5559000D01*
X9618000Y-5469000D02*
X9528000Y-5559000D01*
X9528000Y-5723000D02*
X9618000Y-5813000D01*
X9618000Y-5723000D02*
X9528000Y-5813000D01*
X9528000Y-5977000D02*
X9618000Y-6067000D01*
X9618000Y-5977000D02*
X9528000Y-6067000D01*
X9528000Y-6231000D02*
X9618000Y-6321000D01*
X9618000Y-6231000D02*
X9528000Y-6321000D01*
X9528000Y-6485000D02*
X9618000Y-6575000D01*
X9618000Y-6485000D02*
X9528000Y-6575000D01*
X9528000Y-6739000D02*
X9618000Y-6829000D01*
X9618000Y-6739000D02*
X9528000Y-6829000D01*
X9528000Y-6993000D02*
X9618000Y-7083000D01*
X9618000Y-6993000D02*
X9528000Y-7083000D01*
X9528000Y-7247000D02*
X9618000Y-7337000D01*
X9618000Y-7247000D02*
X9528000Y-7337000D01*
X9528000Y-7501000D02*
X9618000Y-7591000D01*
X9618000Y-7501000D02*
X9528000Y-7591000D01*
X9528000Y-7755000D02*
X9618000Y-7845000D01*
X9618000Y-7755000D02*
X9528000Y-7845000D01*
X9528000Y-8009000D02*
X9618000Y-8099000D01*
X9618000Y-8009000D02*
X9528000Y-8099000D01*
X9528000Y-8263000D02*
X9618000Y-8353000D01*
X9618000Y-8263000D02*
X9528000Y-8353000D01*
X9528000Y-8517000D02*
X9618000Y-8607000D01*
X9618000Y-8517000D02*
X9528000Y-8607000D01*
X9528000Y-8771000D02*
X9618000Y-8861000D01*
X9618000Y-8771000D02*
X9528000Y-8861000D01*
X9528000Y-9025000D02*
X9618000Y-9115000D01*
X9618000Y-9025000D02*
X9528000Y-9115000D01*
X9528000Y-9279000D02*
X9618000Y-9369000D01*
X9618000Y-9279000D02*
X9528000Y-9369000D01*
X9528000Y-9533000D02*
X9618000Y-9623000D01*
X9618000Y-9533000D02*
X9528000Y-9623000D01*
X9528000Y-9787000D02*
X9618000Y-9877000D01*
X9618000Y-9787000D02*
X9528000Y-9877000D01*
X9528000Y-10041000D02*
X9618000Y-10131000D01*
X9618000Y-10041000D02*
X9528000Y-10131000D01*
X9528000Y-10295000D02*
X9618000Y-10385000D01*
X9618000Y-10295000D02*
X9528000Y-10385000D01*
X9528000Y-10549000D02*
X9618000Y-10639000D01*
X9618000Y-10549000D02*
X9528000Y-10639000D01*
X9528000Y-10803000D02*
X9618000Y-10893000D01*
X9618000Y-10803000D02*
X9528000Y-10893000D01*
X9528000Y-11057000D02*
X9618000Y-11147000D01*
X9618000Y-11057000D02*
X9528000Y-11147000D01*
X9528000Y-11311000D02*
X9618000Y-11401000D01*
X9618000Y-11311000D02*
X9528000Y-11401000D01*
X9528000Y-11565000D02*
X9618000Y-11655000D01*
X9618000Y-11565000D02*
X9528000Y-11655000D01*
X9528000Y-11819000D02*
X9618000Y-11909000D01*
X9618000Y-11819000D02*
X9528000Y-11909000D01*
X9528000Y-12073000D02*
X9618000Y-12163000D01*
X9618000Y-12073000D02*
X9528000Y-12163000D01*
X9528000Y-12327000D02*
X9618000Y-12417000D01*
X9618000Y-12327000D02*
X9528000Y-12417000D01*
X9528000Y-12581000D02*
X9618000Y-12671000D01*
X9618000Y-12581000D02*
X9528000Y-12671000D01*
X9528000Y-12835000D02*
X9618000Y-12925000D01*
X9618000Y-12835000D02*
X9528000Y-12925000D01*
X9528000Y-13089000D02*
X9618000Y-13179000D01*
X9618000Y-13089000D02*
X9528000Y-13179000D01*
X9528000Y-13343000D02*
X9618000Y-13433000D01*
X9618000Y-13343000D02*
X9528000Y-13433000D01*
X9528000Y-13597000D02*
X9618000Y-13687000D01*
X9618000Y-13597000D02*
X9528000Y-13687000D01*
X9528000Y-13851000D02*
X9618000Y-13941000D01*
X9618000Y-13851000D02*
X9528000Y-13941000D01*
X9528000Y-14105000D02*
X9618000Y-14195000D01*
X9618000Y-14105000D02*
X9528000Y-14195000D01*
X9782000Y-5215000D02*
X9872000Y-5305000D01*
X9872000Y-5215000D02*
X9782000Y-5305000D01*
X9782000Y-5469000D02*
X9872000Y-5559000D01*
X9872000Y-5469000D02*
X9782000Y-5559000D01*
X9782000Y-5723000D02*
X9872000Y-5813000D01*
X9872000Y-5723000D02*
X9782000Y-5813000D01*
X9782000Y-5977000D02*
X9872000Y-6067000D01*
X9872000Y-5977000D02*
X9782000Y-6067000D01*
X9782000Y-6231000D02*
X9872000Y-6321000D01*
X9872000Y-6231000D02*
X9782000Y-6321000D01*
X9782000Y-6485000D02*
X9872000Y-6575000D01*
X9872000Y-6485000D02*
X9782000Y-6575000D01*
X9782000Y-6739000D02*
X9872000Y-6829000D01*
X9872000Y-6739000D02*
X9782000Y-6829000D01*
X9782000Y-6993000D02*
X9872000Y-7083000D01*
X9872000Y-6993000D02*
X9782000Y-7083000D01*
X9782000Y-7247000D02*
X9872000Y-7337000D01*
X9872000Y-7247000D02*
X9782000Y-7337000D01*
X9782000Y-7501000D02*
X9872000Y-7591000D01*
X9872000Y-7501000D02*
X9782000Y-7591000D01*
X9782000Y-7755000D02*
X9872000Y-7845000D01*
X9872000Y-7755000D02*
X9782000Y-7845000D01*
X9782000Y-8009000D02*
X9872000Y-8099000D01*
X9872000Y-8009000D02*
X9782000Y-8099000D01*
X9782000Y-8263000D02*
X9872000Y-8353000D01*
X9872000Y-8263000D02*
X9782000Y-8353000D01*
X9782000Y-8517000D02*
X9872000Y-8607000D01*
X9872000Y-8517000D02*
X9782000Y-8607000D01*
X9782000Y-8771000D02*
X9872000Y-8861000D01*
X9872000Y-8771000D02*
X9782000Y-8861000D01*
X9782000Y-9025000D02*
X9872000Y-9115000D01*
X9872000Y-9025000D02*
X9782000Y-9115000D01*
X9782000Y-9279000D02*
X9872000Y-9369000D01*
X9872000Y-9279000D02*
X9782000Y-9369000D01*
X9782000Y-9533000D02*
X9872000Y-9623000D01*
X9872000Y-9533000D02*
X9782000Y-9623000D01*
X9782000Y-9787000D02*
X9872000Y-9877000D01*
X9872000Y-9787000D02*
X9782000Y-9877000D01*
X9782000Y-10041000D02*
X9872000Y-10131000D01*
X9872000Y-10041000D02*
X9782000Y-10131000D01*
X9782000Y-10295000D02*
X9872000Y-10385000D01*
X9872000Y-10295000D02*
X9782000Y-10385000D01*
X9782000Y-10549000D02*
X9872000Y-10639000D01*
X9872000Y-10549000D02*
X9782000Y-10639000D01*
X9782000Y-10803000D02*
X9872000Y-10893000D01*
X9872000Y-10803000D02*
X9782000Y-10893000D01*
X9782000Y-11057000D02*
X9872000Y-11147000D01*
X9872000Y-11057000D02*
X9782000Y-11147000D01*
X9782000Y-11311000D02*
X9872000Y-11401000D01*
X9872000Y-11311000D02*
X9782000Y-11401000D01*
X9782000Y-11565000D02*
X9872000Y-11655000D01*
X9872000Y-11565000D02*
X9782000Y-11655000D01*
X9782000Y-11819000D02*
X9872000Y-11909000D01*
X9872000Y-11819000D02*
X9782000Y-11909000D01*
X9782000Y-12073000D02*
X9872000Y-12163000D01*
X9872000Y-12073000D02*
X9782000Y-12163000D01*
X9782000Y-12327000D02*
X9872000Y-12417000D01*
X9872000Y-12327000D02*
X9782000Y-12417000D01*
X9782000Y-12581000D02*
X9872000Y-12671000D01*
X9872000Y-12581000D02*
X9782000Y-12671000D01*
X9782000Y-12835000D02*
X9872000Y-12925000D01*
X9872000Y-12835000D02*
X9782000Y-12925000D01*
X9782000Y-13089000D02*
X9872000Y-13179000D01*
X9872000Y-13089000D02*
X9782000Y-13179000D01*
X9782000Y-13343000D02*
X9872000Y-13433000D01*
X9872000Y-13343000D02*
X9782000Y-13433000D01*
X9782000Y-13597000D02*
X9872000Y-13687000D01*
X9872000Y-13597000D02*
X9782000Y-13687000D01*
X9782000Y-13851000D02*
X9872000Y-13941000D01*
X9872000Y-13851000D02*
X9782000Y-13941000D01*
X9782000Y-14105000D02*
X9872000Y-14195000D01*
X9872000Y-14105000D02*
X9782000Y-14195000D01*
X10036000Y-5215000D02*
X10126000Y-5305000D01*
X10126000Y-5215000D02*
X10036000Y-5305000D01*
X10036000Y-5469000D02*
X10126000Y-5559000D01*
X10126000Y-5469000D02*
X10036000Y-5559000D01*
X10036000Y-5723000D02*
X10126000Y-5813000D01*
X10126000Y-5723000D02*
X10036000Y-5813000D01*
X10036000Y-5977000D02*
X10126000Y-6067000D01*
X10126000Y-5977000D02*
X10036000Y-6067000D01*
X10036000Y-6231000D02*
X10126000Y-6321000D01*
X10126000Y-6231000D02*
X10036000Y-6321000D01*
X10036000Y-6485000D02*
X10126000Y-6575000D01*
X10126000Y-6485000D02*
X10036000Y-6575000D01*
X10036000Y-6739000D02*
X10126000Y-6829000D01*
X10126000Y-6739000D02*
X10036000Y-6829000D01*
X10036000Y-6993000D02*
X10126000Y-7083000D01*
X10126000Y-6993000D02*
X10036000Y-7083000D01*
X10036000Y-7247000D02*
X10126000Y-7337000D01*
X10126000Y-7247000D02*
X10036000Y-7337000D01*
X10036000Y-7501000D02*
X10126000Y-7591000D01*
X10126000Y-7501000D02*
X10036000Y-7591000D01*
X10036000Y-7755000D02*
X10126000Y-7845000D01*
X10126000Y-7755000D02*
X10036000Y-7845000D01*
X10036000Y-8009000D02*
X10126000Y-8099000D01*
X10126000Y-8009000D02*
X10036000Y-8099000D01*
X10036000Y-8263000D02*
X10126000Y-8353000D01*
X10126000Y-8263000D02*
X10036000Y-8353000D01*
X10036000Y-8517000D02*
X10126000Y-8607000D01*
X10126000Y-8517000D02*
X10036000Y-8607000D01*
X10036000Y-8771000D02*
X10126000Y-8861000D01*
X10126000Y-8771000D02*
X10036000Y-8861000D01*
X10036000Y-9025000D02*
X10126000Y-9115000D01*
X10126000Y-9025000D02*
X10036000Y-9115000D01*
X10036000Y-9279000D02*
X10126000Y-9369000D01*
X10126000Y-9279000D02*
X10036000Y-9369000D01*
X10036000Y-9533000D02*
X10126000Y-9623000D01*
X10126000Y-9533000D02*
X10036000Y-9623000D01*
X10036000Y-9787000D02*
X10126000Y-9877000D01*
X10126000Y-9787000D02*
X10036000Y-9877000D01*
X10036000Y-10041000D02*
X10126000Y-10131000D01*
X10126000Y-10041000D02*
X10036000Y-10131000D01*
X10036000Y-10295000D02*
X10126000Y-10385000D01*
X10126000Y-10295000D02*
X10036000Y-10385000D01*
X10036000Y-10549000D02*
X10126000Y-10639000D01*
X10126000Y-10549000D02*
X10036000Y-10639000D01*
X10036000Y-10803000D02*
X10126000Y-10893000D01*
X10126000Y-10803000D02*
X10036000Y-10893000D01*
X10036000Y-11057000D02*
X10126000Y-11147000D01*
X10126000Y-11057000D02*
X10036000Y-11147000D01*
X10036000Y-11311000D02*
X10126000Y-11401000D01*
X10126000Y-11311000D02*
X10036000Y-11401000D01*
X10036000Y-11565000D02*
X10126000Y-11655000D01*
X10126000Y-11565000D02*
X10036000Y-11655000D01*
X10036000Y-11819000D02*
X10126000Y-11909000D01*
X10126000Y-11819000D02*
X10036000Y-11909000D01*
X10036000Y-12073000D02*
X10126000Y-12163000D01*
X10126000Y-12073000D02*
X10036000Y-12163000D01*
X10036000Y-12327000D02*
X10126000Y-12417000D01*
X10126000Y-12327000D02*
X10036000Y-12417000D01*
X10036000Y-12581000D02*
X10126000Y-12671000D01*
X10126000Y-12581000D02*
X10036000Y-12671000D01*
X10036000Y-12835000D02*
X10126000Y-12925000D01*
X10126000Y-12835000D02*
X10036000Y-12925000D01*
X10036000Y-13089000D02*
X10126000Y-13179000D01*
X10126000Y-13089000D02*
X10036000Y-13179000D01*
X10036000Y-13343000D02*
X10126000Y-13433000D01*
X10126000Y-13343000D02*
X10036000Y-13433000D01*
X10036000Y-13597000D02*
X10126000Y-13687000D01*
X10126000Y-13597000D02*
X10036000Y-13687000D01*
X10036000Y-13851000D02*
X10126000Y-13941000D01*
X10126000Y-13851000D02*
X10036000Y-13941000D01*
X10036000Y-14105000D02*
X10126000Y-14195000D01*
X10126000Y-14105000D02*
X10036000Y-14195000D01*
X10290000Y-5215000D02*
X10380000Y-5305000D01*
X10380000Y-5215000D02*
X10290000Y-5305000D01*
X10290000Y-5469000D02*
X10380000Y-5559000D01*
X10380000Y-5469000D02*
X10290000Y-5559000D01*
X10290000Y-5723000D02*
X10380000Y-5813000D01*
X10380000Y-5723000D02*
X10290000Y-5813000D01*
X10290000Y-5977000D02*
X10380000Y-6067000D01*
X10380000Y-5977000D02*
X10290000Y-6067000D01*
X10290000Y-6231000D02*
X10380000Y-6321000D01*
X10380000Y-6231000D02*
X10290000Y-6321000D01*
X10290000Y-6485000D02*
X10380000Y-6575000D01*
X10380000Y-6485000D02*
X10290000Y-6575000D01*
X10290000Y-6739000D02*
X10380000Y-6829000D01*
X10380000Y-6739000D02*
X10290000Y-6829000D01*
X10290000Y-6993000D02*
X10380000Y-7083000D01*
X10380000Y-6993000D02*
X10290000Y-7083000D01*
X10290000Y-7247000D02*
X10380000Y-7337000D01*
X10380000Y-7247000D02*
X10290000Y-7337000D01*
X10290000Y-7501000D02*
X10380000Y-7591000D01*
X10380000Y-7501000D02*
X10290000Y-7591000D01*
X10290000Y-7755000D02*
X10380000Y-7845000D01*
X10380000Y-7755000D02*
X10290000Y-7845000D01*
X10290000Y-8009000D02*
X10380000Y-8099000D01*
X10380000Y-8009000D02*
X10290000Y-8099000D01*
X10290000Y-8263000D02*
X10380000Y-8353000D01*
X10380000Y-8263000D02*
X10290000Y-8353000D01*
X10290000Y-8517000D02*
X10380000Y-8607000D01*
X10380000Y-8517000D02*
X10290000Y-8607000D01*
X10290000Y-8771000D02*
X10380000Y-8861000D01*
X10380000Y-8771000D02*
X10290000Y-8861000D01*
X10290000Y-9025000D02*
X10380000Y-9115000D01*
X10380000Y-9025000D02*
X10290000Y-9115000D01*
X10290000Y-9279000D02*
X10380000Y-9369000D01*
X10380000Y-9279000D02*
X10290000Y-9369000D01*
X10290000Y-9533000D02*
X10380000Y-9623000D01*
X10380000Y-9533000D02*
X10290000Y-9623000D01*
X10290000Y-9787000D02*
X10380000Y-9877000D01*
X10380000Y-9787000D02*
X10290000Y-9877000D01*
X10290000Y-10041000D02*
X10380000Y-10131000D01*
X10380000Y-10041000D02*
X10290000Y-10131000D01*
X10290000Y-10295000D02*
X10380000Y-10385000D01*
X10380000Y-10295000D02*
X10290000Y-10385000D01*
X10290000Y-10549000D02*
X10380000Y-10639000D01*
X10380000Y-10549000D02*
X10290000Y-10639000D01*
X10290000Y-10803000D02*
X10380000Y-10893000D01*
X10380000Y-10803000D02*
X10290000Y-10893000D01*
X10290000Y-11057000D02*
X10380000Y-11147000D01*
X10380000Y-11057000D02*
X10290000Y-11147000D01*
X10290000Y-11311000D02*
X10380000Y-11401000D01*
X10380000Y-11311000D02*
X10290000Y-11401000D01*
X10290000Y-11565000D02*
X10380000Y-11655000D01*
X10380000Y-11565000D02*
X10290000Y-11655000D01*
X10290000Y-11819000D02*
X10380000Y-11909000D01*
X10380000Y-11819000D02*
X10290000Y-11909000D01*
X10290000Y-12073000D02*
X10380000Y-12163000D01*
X10380000Y-12073000D02*
X10290000Y-12163000D01*
X10290000Y-12327000D02*
X10380000Y-12417000D01*
X10380000Y-12327000D02*
X10290000Y-12417000D01*
X10290000Y-12581000D02*
X10380000Y-12671000D01*
X10380000Y-12581000D02*
X10290000Y-12671000D01*
X10290000Y-12835000D02*
X10380000Y-12925000D01*
X10380000Y-12835000D02*
X10290000Y-12925000D01*
X10290000Y-13089000D02*
X10380000Y-13179000D01*
X10380000Y-13089000D02*
X10290000Y-13179000D01*
X10290000Y-13343000D02*
X10380000Y-13433000D01*
X10380000Y-13343000D02*
X10290000Y-13433000D01*
X10290000Y-13597000D02*
X10380000Y-13687000D01*
X10380000Y-13597000D02*
X10290000Y-13687000D01*
X10290000Y-13851000D02*
X10380000Y-13941000D01*
X10380000Y-13851000D02*
X10290000Y-13941000D01*
X10290000Y-14105000D02*
X10380000Y-14195000D01*
X10380000Y-14105000D02*
X10290000Y-14195000D01*
X10544000Y-5215000D02*
X10634000Y-5305000D01*
X10634000Y-5215000D02*
X10544000Y-5305000D01*
X10544000Y-5469000D02*
X10634000Y-5559000D01*
X10634000Y-5469000D02*
X10544000Y-5559000D01*
X10544000Y-5723000D02*
X10634000Y-5813000D01*
X10634000Y-5723000D02*
X10544000Y-5813000D01*
X10544000Y-5977000D02*
X10634000Y-6067000D01*
X10634000Y-5977000D02*
X10544000Y-6067000D01*
X10544000Y-6231000D02*
X10634000Y-6321000D01*
X10634000Y-6231000D02*
X10544000Y-6321000D01*
X10544000Y-6485000D02*
X10634000Y-6575000D01*
X10634000Y-6485000D02*
X10544000Y-6575000D01*
X10544000Y-6739000D02*
X10634000Y-6829000D01*
X10634000Y-6739000D02*
X10544000Y-6829000D01*
X10544000Y-6993000D02*
X10634000Y-7083000D01*
X10634000Y-6993000D02*
X10544000Y-7083000D01*
X10544000Y-7247000D02*
X10634000Y-7337000D01*
X10634000Y-7247000D02*
X10544000Y-7337000D01*
X10544000Y-7501000D02*
X10634000Y-7591000D01*
X10634000Y-7501000D02*
X10544000Y-7591000D01*
X10544000Y-7755000D02*
X10634000Y-7845000D01*
X10634000Y-7755000D02*
X10544000Y-7845000D01*
X10544000Y-8009000D02*
X10634000Y-8099000D01*
X10634000Y-8009000D02*
X10544000Y-8099000D01*
X10544000Y-8263000D02*
X10634000Y-8353000D01*
X10634000Y-8263000D02*
X10544000Y-8353000D01*
X10544000Y-8517000D02*
X10634000Y-8607000D01*
X10634000Y-8517000D02*
X10544000Y-8607000D01*
X10544000Y-8771000D02*
X10634000Y-8861000D01*
X10634000Y-8771000D02*
X10544000Y-8861000D01*
X10544000Y-9025000D02*
X10634000Y-9115000D01*
X10634000Y-9025000D02*
X10544000Y-9115000D01*
X10544000Y-9279000D02*
X10634000Y-9369000D01*
X10634000Y-9279000D02*
X10544000Y-9369000D01*
X10544000Y-9533000D02*
X10634000Y-9623000D01*
X10634000Y-9533000D02*
X10544000Y-9623000D01*
X10544000Y-9787000D02*
X10634000Y-9877000D01*
X10634000Y-9787000D02*
X10544000Y-9877000D01*
X10544000Y-10041000D02*
X10634000Y-10131000D01*
X10634000Y-10041000D02*
X10544000Y-10131000D01*
X10544000Y-10295000D02*
X10634000Y-10385000D01*
X10634000Y-10295000D02*
X10544000Y-10385000D01*
X10544000Y-10549000D02*
X10634000Y-10639000D01*
X10634000Y-10549000D02*
X10544000Y-10639000D01*
X10544000Y-10803000D02*
X10634000Y-10893000D01*
X10634000Y-10803000D02*
X10544000Y-10893000D01*
X10544000Y-11057000D02*
X10634000Y-11147000D01*
X10634000Y-11057000D02*
X10544000Y-11147000D01*
X10544000Y-11311000D02*
X10634000Y-11401000D01*
X10634000Y-11311000D02*
X10544000Y-11401000D01*
X10544000Y-11565000D02*
X10634000Y-11655000D01*
X10634000Y-11565000D02*
X10544000Y-11655000D01*
X10544000Y-11819000D02*
X10634000Y-11909000D01*
X10634000Y-11819000D02*
X10544000Y-11909000D01*
X10544000Y-12073000D02*
X10634000Y-12163000D01*
X10634000Y-12073000D02*
X10544000Y-12163000D01*
X10544000Y-12327000D02*
X10634000Y-12417000D01*
X10634000Y-12327000D02*
X10544000Y-12417000D01*
X10544000Y-12581000D02*
X10634000Y-12671000D01*
X10634000Y-12581000D02*
X10544000Y-12671000D01*
X10544000Y-12835000D02*
X10634000Y-12925000D01*
X10634000Y-12835000D02*
X10544000Y-12925000D01*
X10544000Y-13089000D02*
X10634000Y-13179000D01*
X10634000Y-13089000D02*
X10544000Y-13179000D01*
X10544000Y-13343000D02*
X10634000Y-13433000D01*
X10634000Y-13343000D02*
X10544000Y-13433000D01*
X10544000Y-13597000D02*
X10634000Y-13687000D01*
X10634000Y-13597000D02*
X10544000Y-13687000D01*
X10544000Y-13851000D02*
X10634000Y-13941000D01*
X10634000Y-13851000D02*
X10544000Y-13941000D01*
X10544000Y-14105000D02*
X10634000Y-14195000D01*
X10634000Y-14105000D02*
X10544000Y-14195000D01*
X10798000Y-5215000D02*
X10888000Y-5305000D01*
X10888000Y-5215000D02*
X10798000Y-5305000D01*
X10798000Y-5469000D02*
X10888000Y-5559000D01*
X10888000Y-5469000D02*
X10798000Y-5559000D01*
X10798000Y-5723000D02*
X10888000Y-5813000D01*
X10888000Y-5723000D02*
X10798000Y-5813000D01*
X10798000Y-5977000D02*
X10888000Y-6067000D01*
X10888000Y-5977000D02*
X10798000Y-6067000D01*
X10798000Y-6231000D02*
X10888000Y-6321000D01*
X10888000Y-6231000D02*
X10798000Y-6321000D01*
X10798000Y-6485000D02*
X10888000Y-6575000D01*
X10888000Y-6485000D02*
X10798000Y-6575000D01*
X10798000Y-6739000D02*
X10888000Y-6829000D01*
X10888000Y-6739000D02*
X10798000Y-6829000D01*
X10798000Y-6993000D02*
X10888000Y-7083000D01*
X10888000Y-6993000D02*
X10798000Y-7083000D01*
X10798000Y-7247000D02*
X10888000Y-7337000D01*
X10888000Y-7247000D02*
X10798000Y-7337000D01*
X10798000Y-7501000D02*
X10888000Y-7591000D01*
X10888000Y-7501000D02*
X10798000Y-7591000D01*
X10798000Y-7755000D02*
X10888000Y-7845000D01*
X10888000Y-7755000D02*
X10798000Y-7845000D01*
X10798000Y-8009000D02*
X10888000Y-8099000D01*
X10888000Y-8009000D02*
X10798000Y-8099000D01*
X10798000Y-8263000D02*
X10888000Y-8353000D01*
X10888000Y-8263000D02*
X10798000Y-8353000D01*
X10798000Y-8517000D02*
X10888000Y-8607000D01*
X10888000Y-8517000D02*
X10798000Y-8607000D01*
X10798000Y-8771000D02*
X10888000Y-8861000D01*
X10888000Y-8771000D02*
X10798000Y-8861000D01*
X10798000Y-9025000D02*
X10888000Y-9115000D01*
X10888000Y-9025000D02*
X10798000Y-9115000D01*
X10798000Y-9279000D02*
X10888000Y-9369000D01*
X10888000Y-9279000D02*
X10798000Y-9369000D01*
X10798000Y-9533000D02*
X10888000Y-9623000D01*
X10888000Y-9533000D02*
X10798000Y-9623000D01*
X10798000Y-9787000D02*
X10888000Y-9877000D01*
X10888000Y-9787000D02*
X10798000Y-9877000D01*
X10798000Y-10041000D02*
X10888000Y-10131000D01*
X10888000Y-10041000D02*
X10798000Y-10131000D01*
X10798000Y-10295000D02*
X10888000Y-10385000D01*
X10888000Y-10295000D02*
X10798000Y-10385000D01*
X10798000Y-10549000D02*
X10888000Y-10639000D01*
X10888000Y-10549000D02*
X10798000Y-10639000D01*
X10798000Y-10803000D02*
X10888000Y-10893000D01*
X10888000Y-10803000D02*
X10798000Y-10893000D01*
X10798000Y-11057000D02*
X10888000Y-11147000D01*
X10888000Y-11057000D02*
X10798000Y-11147000D01*
X10798000Y-11311000D02*
X10888000Y-11401000D01*
X10888000Y-11311000D02*
X10798000Y-11401000D01*
X10798000Y-11565000D02*
X10888000Y-11655000D01*
X10888000Y-11565000D02*
X10798000Y-11655000D01*
X10798000Y-11819000D02*
X10888000Y-11909000D01*
X10888000Y-11819000D02*
X10798000Y-11909000D01*
X10798000Y-12073000D02*
X10888000Y-12163000D01*
X10888000Y-12073000D02*
X10798000Y-12163000D01*
X10798000Y-12327000D02*
X10888000Y-12417000D01*
X10888000Y-12327000D02*
X10798000Y-12417000D01*
X10798000Y-12581000D02*
X10888000Y-12671000D01*
X10888000Y-12581000D02*
X10798000Y-12671000D01*
X10798000Y-12835000D02*
X10888000Y-12925000D01*
X10888000Y-12835000D02*
X10798000Y-12925000D01*
X10798000Y-13089000D02*
X10888000Y-13179000D01*
X10888000Y-13089000D02*
X10798000Y-13179000D01*
X10798000Y-13343000D02*
X10888000Y-13433000D01*
X10888000Y-13343000D02*
X10798000Y-13433000D01*
X10798000Y-13597000D02*
X10888000Y-13687000D01*
X10888000Y-13597000D02*
X10798000Y-13687000D01*
X10798000Y-13851000D02*
X10888000Y-13941000D01*
X10888000Y-13851000D02*
X10798000Y-13941000D01*
X10798000Y-14105000D02*
X10888000Y-14195000D01*
X10888000Y-14105000D02*
X10798000Y-14195000D01*
X11052000Y-5215000D02*
X11142000Y-5305000D01*
X11142000Y-5215000D02*
X11052000Y-5305000D01*
X11052000Y-5469000D02*
X11142000Y-5559000D01*
X11142000Y-5469000D02*
X11052000Y-5559000D01*
X11052000Y-5723000D02*
X11142000Y-5813000D01*
X11142000Y-5723000D02*
X11052000Y-5813000D01*
X11052000Y-5977000D02*
X11142000Y-6067000D01*
X11142000Y-5977000D02*
X11052000Y-6067000D01*
X11052000Y-6231000D02*
X11142000Y-6321000D01*
X11142000Y-6231000D02*
X11052000Y-6321000D01*
X11052000Y-6485000D02*
X11142000Y-6575000D01*
X11142000Y-6485000D02*
X11052000Y-6575000D01*
X11052000Y-6739000D02*
X11142000Y-6829000D01*
X11142000Y-6739000D02*
X11052000Y-6829000D01*
X11052000Y-6993000D02*
X11142000Y-7083000D01*
X11142000Y-6993000D02*
X11052000Y-7083000D01*
X11052000Y-7247000D02*
X11142000Y-7337000D01*
X11142000Y-7247000D02*
X11052000Y-7337000D01*
X11052000Y-7501000D02*
X11142000Y-7591000D01*
X11142000Y-7501000D02*
X11052000Y-7591000D01*
X11052000Y-7755000D02*
X11142000Y-7845000D01*
X11142000Y-7755000D02*
X11052000Y-7845000D01*
X11052000Y-8009000D02*
X11142000Y-8099000D01*
X11142000Y-8009000D02*
X11052000Y-8099000D01*
X11052000Y-8263000D02*
X11142000Y-8353000D01*
X11142000Y-8263000D02*
X11052000Y-8353000D01*
X11052000Y-8517000D02*
X11142000Y-8607000D01*
X11142000Y-8517000D02*
X11052000Y-8607000D01*
X11052000Y-8771000D02*
X11142000Y-8861000D01*
X11142000Y-8771000D02*
X11052000Y-8861000D01*
X11052000Y-9025000D02*
X11142000Y-9115000D01*
X11142000Y-9025000D02*
X11052000Y-9115000D01*
X11052000Y-9279000D02*
X11142000Y-9369000D01*
X11142000Y-9279000D02*
X11052000Y-9369000D01*
X11052000Y-9533000D02*
X11142000Y-9623000D01*
X11142000Y-9533000D02*
X11052000Y-9623000D01*
X11052000Y-9787000D02*
X11142000Y-9877000D01*
X11142000Y-9787000D02*
X11052000Y-9877000D01*
X11052000Y-10041000D02*
X11142000Y-10131000D01*
X11142000Y-10041000D02*
X11052000Y-10131000D01*
X11052000Y-10295000D02*
X11142000Y-10385000D01*
X11142000Y-10295000D02*
X11052000Y-10385000D01*
X11052000Y-10549000D02*
X11142000Y-10639000D01*
X11142000Y-10549000D02*
X11052000Y-10639000D01*
X11052000Y-10803000D02*
X11142000Y-10893000D01*
X11142000Y-10803000D02*
X11052000Y-10893000D01*
X11052000Y-11057000D02*
X11142000Y-11147000D01*
X11142000Y-11057000D02*
X11052000Y-11147000D01*
X11052000Y-11311000D02*
X11142000Y-11401000D01*
X11142000Y-11311000D02*
X11052000Y-11401000D01*
X11052000Y-11565000D02*
X11142000Y-11655000D01*
X11142000Y-11565000D02*
X11052000Y-11655000D01*
X11052000Y-11819000D02*
X11142000Y-11909000D01*
X11142000Y-11819000D02*
X11052000Y-11909000D01*
X11052000Y-12073000D02*
X11142000Y-12163000D01*
X11142000Y-12073000D02*
X11052000Y-12163000D01*
X11052000Y-12327000D02*
X11142000Y-12417000D01*
X11142000Y-12327000D02*
X11052000Y-12417000D01*
X11052000Y-12581000D02*
X11142000Y-12671000D01*
X11142000Y-12581000D02*
X11052000Y-12671000D01*
X11052000Y-12835000D02*
X11142000Y-12925000D01*
X11142000Y-12835000D02*
X11052000Y-12925000D01*
X11052000Y-13089000D02*
X11142000Y-13179000D01*
X11142000Y-13089000D02*
X11052000Y-13179000D01*
X11052000Y-13343000D02*
X11142000Y-13433000D01*
X11142000Y-13343000D02*
X11052000Y-13433000D01*
X11052000Y-13597000D02*
X11142000Y-13687000D01*
X11142000Y-13597000D02*
X11052000Y-13687000D01*
X11052000Y-13851000D02*
X11142000Y-13941000D01*
X11142000Y-13851000D02*
X11052000Y-13941000D01*
X11052000Y-14105000D02*
X11142000Y-14195000D01*
X11142000Y-14105000D02*
X11052000Y-14195000D01*
X11306000Y-5215000D02*
X11396000Y-5305000D01*
X11396000Y-5215000D02*
X11306000Y-5305000D01*
X11306000Y-5469000D02*
X11396000Y-5559000D01*
X11396000Y-5469000D02*
X11306000Y-5559000D01*
X11306000Y-5723000D02*
X11396000Y-5813000D01*
X11396000Y-5723000D02*
X11306000Y-5813000D01*
X11306000Y-5977000D02*
X11396000Y-6067000D01*
X11396000Y-5977000D02*
X11306000Y-6067000D01*
X11306000Y-6231000D02*
X11396000Y-6321000D01*
X11396000Y-6231000D02*
X11306000Y-6321000D01*
X11306000Y-6485000D02*
X11396000Y-6575000D01*
X11396000Y-6485000D02*
X11306000Y-6575000D01*
X11306000Y-6739000D02*
X11396000Y-6829000D01*
X11396000Y-6739000D02*
X11306000Y-6829000D01*
X11306000Y-6993000D02*
X11396000Y-7083000D01*
X11396000Y-6993000D02*
X11306000Y-7083000D01*
X11306000Y-7247000D02*
X11396000Y-7337000D01*
X11396000Y-7247000D02*
X11306000Y-7337000D01*
X11306000Y-7501000D02*
X11396000Y-7591000D01*
X11396000Y-7501000D02*
X11306000Y-7591000D01*
X11306000Y-7755000D02*
X11396000Y-7845000D01*
X11396000Y-7755000D02*
X11306000Y-7845000D01*
X11306000Y-8009000D02*
X11396000Y-8099000D01*
X11396000Y-8009000D02*
X11306000Y-8099000D01*
X11306000Y-8263000D02*
X11396000Y-8353000D01*
X11396000Y-8263000D02*
X11306000Y-8353000D01*
X11306000Y-8517000D02*
X11396000Y-8607000D01*
X11396000Y-8517000D02*
X11306000Y-8607000D01*
X11306000Y-8771000D02*
X11396000Y-8861000D01*
X11396000Y-8771000D02*
X11306000Y-8861000D01*
X11306000Y-9025000D02*
X11396000Y-9115000D01*
X11396000Y-9025000D02*
X11306000Y-9115000D01*
X11306000Y-9279000D02*
X11396000Y-9369000D01*
X11396000Y-9279000D02*
X11306000Y-9369000D01*
X11306000Y-9533000D02*
X11396000Y-9623000D01*
X11396000Y-9533000D02*
X11306000Y-9623000D01*
X11306000Y-9787000D02*
X11396000Y-9877000D01*
X11396000Y-9787000D02*
X11306000Y-9877000D01*
X11306000Y-10041000D02*
X11396000Y-10131000D01*
X11396000Y-10041000D02*
X11306000Y-10131000D01*
X11306000Y-10295000D02*
X11396000Y-10385000D01*
X11396000Y-10295000D02*
X11306000Y-10385000D01*
X11306000Y-10549000D02*
X11396000Y-10639000D01*
X11396000Y-10549000D02*
X11306000Y-10639000D01*
X11306000Y-10803000D02*
X11396000Y-10893000D01*
X11396000Y-10803000D02*
X11306000Y-10893000D01*
X11306000Y-11057000D02*
X11396000Y-11147000D01*
X11396000Y-11057000D02*
X11306000Y-11147000D01*
X11306000Y-11311000D02*
X11396000Y-11401000D01*
X11396000Y-11311000D02*
X11306000Y-11401000D01*
X11306000Y-11565000D02*
X11396000Y-11655000D01*
X11396000Y-11565000D02*
X11306000Y-11655000D01*
X11306000Y-11819000D02*
X11396000Y-11909000D01*
X11396000Y-11819000D02*
X11306000Y-11909000D01*
X11306000Y-12073000D02*
X11396000Y-12163000D01*
X11396000Y-12073000D02*
X11306000Y-12163000D01*
X11306000Y-12327000D02*
X11396000Y-12417000D01*
X11396000Y-12327000D02*
X11306000Y-12417000D01*
X11306000Y-12581000D02*
X11396000Y-12671000D01*
X11396000Y-12581000D02*
X11306000Y-12671000D01*
X11306000Y-12835000D02*
X11396000Y-12925000D01*
X11396000Y-12835000D02*
X11306000Y-12925000D01*
X11306000Y-13089000D02*
X11396000Y-13179000D01*
X11396000Y-13089000D02*
X11306000Y-13179000D01*
X11306000Y-13343000D02*
X11396000Y-13433000D01*
X11396000Y-13343000D02*
X11306000Y-13433000D01*
X11306000Y-13597000D02*
X11396000Y-13687000D01*
X11396000Y-13597000D02*
X11306000Y-13687000D01*
X11306000Y-13851000D02*
X11396000Y-13941000D01*
X11396000Y-13851000D02*
X11306000Y-13941000D01*
X11306000Y-14105000D02*
X11396000Y-14195000D01*
X11396000Y-14105000D02*
X11306000Y-14195000D01*
X11560000Y-5215000D02*
X11650000Y-5305000D01*
X11650000Y-5215000D02*
X11560000Y-5305000D01*
X11560000Y-5469000D02*
X11650000Y-5559000D01*
X11650000Y-5469000D02*
X11560000Y-5559000D01*
X11560000Y-5723000D02*
X11650000Y-5813000D01*
X11650000Y-5723000D02*
X11560000Y-5813000D01*
X11560000Y-5977000D02*
X11650000Y-6067000D01*
X11650000Y-5977000D02*
X11560000Y-6067000D01*
X11560000Y-6231000D02*
X11650000Y-6321000D01*
X11650000Y-6231000D02*
X11560000Y-6321000D01*
X11560000Y-6485000D02*
X11650000Y-6575000D01*
X11650000Y-6485000D02*
X11560000Y-6575000D01*
X11560000Y-6739000D02*
X11650000Y-6829000D01*
X11650000Y-6739000D02*
X11560000Y-6829000D01*
X11560000Y-6993000D02*
X11650000Y-7083000D01*
X11650000Y-6993000D02*
X11560000Y-7083000D01*
X11560000Y-7247000D02*
X11650000Y-7337000D01*
X11650000Y-7247000D02*
X11560000Y-7337000D01*
X11560000Y-7501000D02*
X11650000Y-7591000D01*
X11650000Y-7501000D02*
X11560000Y-7591000D01*
X11560000Y-7755000D02*
X11650000Y-7845000D01*
X11650000Y-7755000D02*
X11560000Y-7845000D01*
X11560000Y-8009000D02*
X11650000Y-8099000D01*
X11650000Y-8009000D02*
X11560000Y-8099000D01*
X11560000Y-8263000D02*
X11650000Y-8353000D01*
X11650000Y-8263000D02*
X11560000Y-8353000D01*
X11560000Y-8517000D02*
X11650000Y-8607000D01*
X11650000Y-8517000D02*
X11560000Y-8607000D01*
X11560000Y-8771000D02*
X11650000Y-8861000D01*
X11650000Y-8771000D02*
X11560000Y-8861000D01*
X11560000Y-9025000D02*
X11650000Y-9115000D01*
X11650000Y-9025000D02*
X11560000Y-9115000D01*
X11560000Y-9279000D02*
X11650000Y-9369000D01*
X11650000Y-9279000D02*
X11560000Y-9369000D01*
X11560000Y-9533000D02*
X11650000Y-9623000D01*
X11650000Y-9533000D02*
X11560000Y-9623000D01*
X11560000Y-9787000D02*
X11650000Y-9877000D01*
X11650000Y-9787000D02*
X11560000Y-9877000D01*
X11560000Y-10041000D02*
X11650000Y-10131000D01*
X11650000Y-10041000D02*
X11560000Y-10131000D01*
X11560000Y-10295000D02*
X11650000Y-10385000D01*
X11650000Y-10295000D02*
X11560000Y-10385000D01*
X11560000Y-10549000D02*
X11650000Y-10639000D01*
X11650000Y-10549000D02*
X11560000Y-10639000D01*
X11560000Y-10803000D02*
X11650000Y-10893000D01*
X11650000Y-10803000D02*
X11560000Y-10893000D01*
X11560000Y-11057000D02*
X11650000Y-11147000D01*
X11650000Y-11057000D02*
X11560000Y-11147000D01*
X11560000Y-11311000D02*
X11650000Y-11401000D01*
X11650000Y-11311000D02*
X11560000Y-11401000D01*
X11560000Y-11565000D02*
X11650000Y-11655000D01*
X11650000Y-11565000D02*
X11560000Y-11655000D01*
X11560000Y-11819000D02*
X11650000Y-11909000D01*
X11650000Y-11819000D02*
X11560000Y-11909000D01*
X11560000Y-12073000D02*
X11650000Y-12163000D01*
X11650000Y-12073000D02*
X11560000Y-12163000D01*
X11560000Y-12327000D02*
X11650000Y-12417000D01*
X11650000Y-12327000D02*
X11560000Y-12417000D01*
X11560000Y-12581000D02*
X11650000Y-12671000D01*
X11650000Y-12581000D02*
X11560000Y-12671000D01*
X11560000Y-12835000D02*
X11650000Y-12925000D01*
X11650000Y-12835000D02*
X11560000Y-12925000D01*
X11560000Y-13089000D02*
X11650000Y-13179000D01*
X11650000Y-13089000D02*
X11560000Y-13179000D01*
X11560000Y-13343000D02*
X11650000Y-13433000D01*
X11650000Y-13343000D02*
X11560000Y-13433000D01*
X11560000Y-13597000D02*
X11650000Y-13687000D01*
X11650000Y-13597000D02*
X11560000Y-13687000D01*
X11560000Y-13851000D02*
X11650000Y-13941000D01*
X11650000Y-13851000D02*
X11560000Y-13941000D01*
X11560000Y-14105000D02*
X11650000Y-14195000D01*
X11650000Y-14105000D02*
X11560000Y-14195000D01*
X11814000Y-5215000D02*
X11904000Y-5305000D01*
X11904000Y-5215000D02*
X11814000Y-5305000D01*
X11814000Y-5469000D02*
X11904000Y-5559000D01*
X11904000Y-5469000D02*
X11814000Y-5559000D01*
X11814000Y-5723000D02*
X11904000Y-5813000D01*
X11904000Y-5723000D02*
X11814000Y-5813000D01*
X11814000Y-5977000D02*
X11904000Y-6067000D01*
X11904000Y-5977000D02*
X11814000Y-6067000D01*
X11814000Y-6231000D02*
X11904000Y-6321000D01*
X11904000Y-6231000D02*
X11814000Y-6321000D01*
X11814000Y-6485000D02*
X11904000Y-6575000D01*
X11904000Y-6485000D02*
X11814000Y-6575000D01*
X11814000Y-6739000D02*
X11904000Y-6829000D01*
X11904000Y-6739000D02*
X11814000Y-6829000D01*
X11814000Y-6993000D02*
X11904000Y-7083000D01*
X11904000Y-6993000D02*
X11814000Y-7083000D01*
X11814000Y-7247000D02*
X11904000Y-7337000D01*
X11904000Y-7247000D02*
X11814000Y-7337000D01*
X11814000Y-7501000D02*
X11904000Y-7591000D01*
X11904000Y-7501000D02*
X11814000Y-7591000D01*
X11814000Y-7755000D02*
X11904000Y-7845000D01*
X11904000Y-7755000D02*
X11814000Y-7845000D01*
X11814000Y-8009000D02*
X11904000Y-8099000D01*
X11904000Y-8009000D02*
X11814000Y-8099000D01*
X11814000Y-8263000D02*
X11904000Y-8353000D01*
X11904000Y-8263000D02*
X11814000Y-8353000D01*
X11814000Y-8517000D02*
X11904000Y-8607000D01*
X11904000Y-8517000D02*
X11814000Y-8607000D01*
X11814000Y-8771000D02*
X11904000Y-8861000D01*
X11904000Y-8771000D02*
X11814000Y-8861000D01*
X11814000Y-9025000D02*
X11904000Y-9115000D01*
X11904000Y-9025000D02*
X11814000Y-9115000D01*
X11814000Y-9279000D02*
X11904000Y-9369000D01*
X11904000Y-9279000D02*
X11814000Y-9369000D01*
X11814000Y-9533000D02*
X11904000Y-9623000D01*
X11904000Y-9533000D02*
X11814000Y-9623000D01*
X11814000Y-9787000D02*
X11904000Y-9877000D01*
X11904000Y-9787000D02*
X11814000Y-9877000D01*
X11814000Y-10041000D02*
X11904000Y-10131000D01*
X11904000Y-10041000D02*
X11814000Y-10131000D01*
X11814000Y-10295000D02*
X11904000Y-10385000D01*
X11904000Y-10295000D02*
X11814000Y-10385000D01*
X11814000Y-10549000D02*
X11904000Y-10639000D01*
X11904000Y-10549000D02*
X11814000Y-10639000D01*
X11814000Y-10803000D02*
X11904000Y-10893000D01*
X11904000Y-10803000D02*
X11814000Y-10893000D01*
X11814000Y-11057000D02*
X11904000Y-11147000D01*
X11904000Y-11057000D02*
X11814000Y-11147000D01*
X11814000Y-11311000D02*
X11904000Y-11401000D01*
X11904000Y-11311000D02*
X11814000Y-11401000D01*
X11814000Y-11565000D02*
X11904000Y-11655000D01*
X11904000Y-11565000D02*
X11814000Y-11655000D01*
X11814000Y-11819000D02*
X11904000Y-11909000D01*
X11904000Y-11819000D02*
X11814000Y-11909000D01*
X11814000Y-12073000D02*
X11904000Y-12163000D01*
X11904000Y-12073000D02*
X11814000Y-12163000D01*
X11814000Y-12327000D02*
X11904000Y-12417000D01*
X11904000Y-12327000D02*
X11814000Y-12417000D01*
X11814000Y-12581000D02*
X11904000Y-12671000D01*
X11904000Y-12581000D02*
X11814000Y-12671000D01*
X11814000Y-12835000D02*
X11904000Y-12925000D01*
X11904000Y-12835000D02*
X11814000Y-12925000D01*
X11814000Y-13089000D02*
X11904000Y-13179000D01*
X11904000Y-13089000D02*
X11814000Y-13179000D01*
X11814000Y-13343000D02*
X11904000Y-13433000D01*
X11904000Y-13343000D02*
X11814000Y-13433000D01*
X11814000Y-13597000D02*
X11904000Y-13687000D01*
X11904000Y-13597000D02*
X11814000Y-13687000D01*
X11814000Y-13851000D02*
X11904000Y-13941000D01*
X11904000Y-13851000D02*
X11814000Y-13941000D01*
X11814000Y-14105000D02*
X11904000Y-14195000D01*
X11904000Y-14105000D02*
X11814000Y-14195000D01*
X12068000Y-5215000D02*
X12158000Y-5305000D01*
X12158000Y-5215000D02*
X12068000Y-5305000D01*
X12068000Y-5469000D02*
X12158000Y-5559000D01*
X12158000Y-5469000D02*
X12068000Y-5559000D01*
X12068000Y-5723000D02*
X12158000Y-5813000D01*
X12158000Y-5723000D02*
X12068000Y-5813000D01*
X12068000Y-5977000D02*
X12158000Y-6067000D01*
X12158000Y-5977000D02*
X12068000Y-6067000D01*
X12068000Y-6231000D02*
X12158000Y-6321000D01*
X12158000Y-6231000D02*
X12068000Y-6321000D01*
X12068000Y-6485000D02*
X12158000Y-6575000D01*
X12158000Y-6485000D02*
X12068000Y-6575000D01*
X12068000Y-6739000D02*
X12158000Y-6829000D01*
X12158000Y-6739000D02*
X12068000Y-6829000D01*
X12068000Y-6993000D02*
X12158000Y-7083000D01*
X12158000Y-6993000D02*
X12068000Y-7083000D01*
X12068000Y-7247000D02*
X12158000Y-7337000D01*
X12158000Y-7247000D02*
X12068000Y-7337000D01*
X12068000Y-7501000D02*
X12158000Y-7591000D01*
X12158000Y-7501000D02*
X12068000Y-7591000D01*
X12068000Y-7755000D02*
X12158000Y-7845000D01*
X12158000Y-7755000D02*
X12068000Y-7845000D01*
X12068000Y-8009000D02*
X12158000Y-8099000D01*
X12158000Y-8009000D02*
X12068000Y-8099000D01*
X12068000Y-8263000D02*
X12158000Y-8353000D01*
X12158000Y-8263000D02*
X12068000Y-8353000D01*
X12068000Y-8517000D02*
X12158000Y-8607000D01*
X12158000Y-8517000D02*
X12068000Y-8607000D01*
X12068000Y-8771000D02*
X12158000Y-8861000D01*
X12158000Y-8771000D02*
X12068000Y-8861000D01*
X12068000Y-9025000D02*
X12158000Y-9115000D01*
X12158000Y-9025000D02*
X12068000Y-9115000D01*
X12068000Y-9279000D02*
X12158000Y-9369000D01*
X12158000Y-9279000D02*
X12068000Y-9369000D01*
X12068000Y-9533000D02*
X12158000Y-9623000D01*
X12158000Y-9533000D02*
X12068000Y-9623000D01*
X12068000Y-9787000D02*
X12158000Y-9877000D01*
X12158000Y-9787000D02*
X12068000Y-9877000D01*
X12068000Y-10041000D02*
X12158000Y-10131000D01*
X12158000Y-10041000D02*
X12068000Y-10131000D01*
X12068000Y-10295000D02*
X12158000Y-10385000D01*
X12158000Y-10295000D02*
X12068000Y-10385000D01*
X12068000Y-10549000D02*
X12158000Y-10639000D01*
X12158000Y-10549000D02*
X12068000Y-10639000D01*
X12068000Y-10803000D02*
X12158000Y-10893000D01*
X12158000Y-10803000D02*
X12068000Y-10893000D01*
X12068000Y-11057000D02*
X12158000Y-11147000D01*
X12158000Y-11057000D02*
X12068000Y-11147000D01*
X12068000Y-11311000D02*
X12158000Y-11401000D01*
X12158000Y-11311000D02*
X12068000Y-11401000D01*
X12068000Y-11565000D02*
X12158000Y-11655000D01*
X12158000Y-11565000D02*
X12068000Y-11655000D01*
X12068000Y-11819000D02*
X12158000Y-11909000D01*
X12158000Y-11819000D02*
X12068000Y-11909000D01*
X12068000Y-12073000D02*
X12158000Y-12163000D01*
X12158000Y-12073000D02*
X12068000Y-12163000D01*
X12068000Y-12327000D02*
X12158000Y-12417000D01*
X12158000Y-12327000D02*
X12068000Y-12417000D01*
X12068000Y-12581000D02*
X12158000Y-12671000D01*
X12158000Y-12581000D02*
X12068000Y-12671000D01*
X12068000Y-12835000D02*
X12158000Y-12925000D01*
X12158000Y-12835000D02*
X12068000Y-12925000D01*
X12068000Y-13089000D02*
X12158000Y-13179000D01*
X12158000Y-13089000D02*
X12068000Y-13179000D01*
X12068000Y-13343000D02*
X12158000Y-13433000D01*
X12158000Y-13343000D02*
X12068000Y-13433000D01*
X12068000Y-13597000D02*
X12158000Y-13687000D01*
X12158000Y-13597000D02*
X12068000Y-13687000D01*
X12068000Y-13851000D02*
X12158000Y-13941000D01*
X12158000Y-13851000D02*
X12068000Y-13941000D01*
X12068000Y-14105000D02*
X12158000Y-14195000D01*
X12158000Y-14105000D02*
X12068000Y-14195000D01*
X12322000Y-5215000D02*
X12412000Y-5305000D01*
X12412000Y-5215000D02*
X12322000Y-5305000D01*
X12322000Y-5469000D02*
X12412000Y-5559000D01*
X12412000Y-5469000D02*
X12322000Y-5559000D01*
X12322000Y-5723000D02*
X12412000Y-5813000D01*
X12412000Y-5723000D02*
X12322000Y-5813000D01*
X12322000Y-5977000D02*
X12412000Y-6067000D01*
X12412000Y-5977000D02*
X12322000Y-6067000D01*
X12322000Y-6231000D02*
X12412000Y-6321000D01*
X12412000Y-6231000D02*
X12322000Y-6321000D01*
X12322000Y-6485000D02*
X12412000Y-6575000D01*
X12412000Y-6485000D02*
X12322000Y-6575000D01*
X12322000Y-6739000D02*
X12412000Y-6829000D01*
X12412000Y-6739000D02*
X12322000Y-6829000D01*
X12322000Y-6993000D02*
X12412000Y-7083000D01*
X12412000Y-6993000D02*
X12322000Y-7083000D01*
X12322000Y-7247000D02*
X12412000Y-7337000D01*
X12412000Y-7247000D02*
X12322000Y-7337000D01*
X12322000Y-7501000D02*
X12412000Y-7591000D01*
X12412000Y-7501000D02*
X12322000Y-7591000D01*
X12322000Y-7755000D02*
X12412000Y-7845000D01*
X12412000Y-7755000D02*
X12322000Y-7845000D01*
X12322000Y-8009000D02*
X12412000Y-8099000D01*
X12412000Y-8009000D02*
X12322000Y-8099000D01*
X12322000Y-8263000D02*
X12412000Y-8353000D01*
X12412000Y-8263000D02*
X12322000Y-8353000D01*
X12322000Y-8517000D02*
X12412000Y-8607000D01*
X12412000Y-8517000D02*
X12322000Y-8607000D01*
X12322000Y-8771000D02*
X12412000Y-8861000D01*
X12412000Y-8771000D02*
X12322000Y-8861000D01*
X12322000Y-9025000D02*
X12412000Y-9115000D01*
X12412000Y-9025000D02*
X12322000Y-9115000D01*
X12322000Y-9279000D02*
X12412000Y-9369000D01*
X12412000Y-9279000D02*
X12322000Y-9369000D01*
X12322000Y-9533000D02*
X12412000Y-9623000D01*
X12412000Y-9533000D02*
X12322000Y-9623000D01*
X12322000Y-9787000D02*
X12412000Y-9877000D01*
X12412000Y-9787000D02*
X12322000Y-9877000D01*
X12322000Y-10041000D02*
X12412000Y-10131000D01*
X12412000Y-10041000D02*
X12322000Y-10131000D01*
X12322000Y-10295000D02*
X12412000Y-10385000D01*
X12412000Y-10295000D02*
X12322000Y-10385000D01*
X12322000Y-10549000D02*
X12412000Y-10639000D01*
X12412000Y-10549000D02*
X12322000Y-10639000D01*
X12322000Y-10803000D02*
X12412000Y-10893000D01*
X12412000Y-10803000D02*
X12322000Y-10893000D01*
X12322000Y-11057000D02*
X12412000Y-11147000D01*
X12412000Y-11057000D02*
X12322000Y-11147000D01*
X12322000Y-11311000D02*
X12412000Y-11401000D01*
X12412000Y-11311000D02*
X12322000Y-11401000D01*
X12322000Y-11565000D02*
X12412000Y-11655000D01*
X12412000Y-11565000D02*
X12322000Y-11655000D01*
X12322000Y-11819000D02*
X12412000Y-11909000D01*
X12412000Y-11819000D02*
X12322000Y-11909000D01*
X12322000Y-12073000D02*
X12412000Y-12163000D01*
X12412000Y-12073000D02*
X12322000Y-12163000D01*
X12322000Y-12327000D02*
X12412000Y-12417000D01*
X12412000Y-12327000D02*
X12322000Y-12417000D01*
X12322000Y-12581000D02*
X12412000Y-12671000D01*
X12412000Y-12581000D02*
X12322000Y-12671000D01*
X12322000Y-12835000D02*
X12412000Y-12925000D01*
X12412000Y-12835000D02*
X12322000Y-12925000D01*
X12322000Y-13089000D02*
X12412000Y-13179000D01*
X12412000Y-13089000D02*
X12322000Y-13179000D01*
X12322000Y-13343000D02*
X12412000Y-13433000D01*
X12412000Y-13343000D02*
X12322000Y-13433000D01*
X12322000Y-13597000D02*
X12412000Y-13687000D01*
X12412000Y-13597000D02*
X12322000Y-13687000D01*
X12322000Y-13851000D02*
X12412000Y-13941000D01*
X12412000Y-13851000D02*
X12322000Y-13941000D01*
X12322000Y-14105000D02*
X12412000Y-14195000D01*
X12412000Y-14105000D02*
X12322000Y-14195000D01*
X12576000Y-5215000D02*
X12666000Y-5305000D01*
X12666000Y-5215000D02*
X12576000Y-5305000D01*
X12576000Y-5469000D02*
X12666000Y-5559000D01*
X12666000Y-5469000D02*
X12576000Y-5559000D01*
X12576000Y-5723000D02*
X12666000Y-5813000D01*
X12666000Y-5723000D02*
X12576000Y-5813000D01*
X12576000Y-5977000D02*
X12666000Y-6067000D01*
X12666000Y-5977000D02*
X12576000Y-6067000D01*
X12576000Y-6231000D02*
X12666000Y-6321000D01*
X12666000Y-6231000D02*
X12576000Y-6321000D01*
X12576000Y-6485000D02*
X12666000Y-6575000D01*
X12666000Y-6485000D02*
X12576000Y-6575000D01*
X12576000Y-6739000D02*
X12666000Y-6829000D01*
X12666000Y-6739000D02*
X12576000Y-6829000D01*
X12576000Y-6993000D02*
X12666000Y-7083000D01*
X12666000Y-6993000D02*
X12576000Y-7083000D01*
X12576000Y-7247000D02*
X12666000Y-7337000D01*
X12666000Y-7247000D02*
X12576000Y-7337000D01*
X12576000Y-7501000D02*
X12666000Y-7591000D01*
X12666000Y-7501000D02*
X12576000Y-7591000D01*
X12576000Y-7755000D02*
X12666000Y-7845000D01*
X12666000Y-7755000D02*
X12576000Y-7845000D01*
X12576000Y-8009000D02*
X12666000Y-8099000D01*
X12666000Y-8009000D02*
X12576000Y-8099000D01*
X12576000Y-8263000D02*
X12666000Y-8353000D01*
X12666000Y-8263000D02*
X12576000Y-8353000D01*
X12576000Y-8517000D02*
X12666000Y-8607000D01*
X12666000Y-8517000D02*
X12576000Y-8607000D01*
X12576000Y-8771000D02*
X12666000Y-8861000D01*
X12666000Y-8771000D02*
X12576000Y-8861000D01*
X12576000Y-9025000D02*
X12666000Y-9115000D01*
X12666000Y-9025000D02*
X12576000Y-9115000D01*
X12576000Y-9025000D02*
X12666000Y-9115000D01*
X12666000Y-9025000D02*
X12576000Y-9115000D01*
X12576000Y-9279000D02*
X12666000Y-9369000D01*
X12666000Y-9279000D02*
X12576000Y-9369000D01*
X12576000Y-9279000D02*
X12666000Y-9369000D01*
X12666000Y-9279000D02*
X12576000Y-9369000D01*
X12576000Y-9533000D02*
X12666000Y-9623000D01*
X12666000Y-9533000D02*
X12576000Y-9623000D01*
X12576000Y-9533000D02*
X12666000Y-9623000D01*
X12666000Y-9533000D02*
X12576000Y-9623000D01*
X12576000Y-9787000D02*
X12666000Y-9877000D01*
X12666000Y-9787000D02*
X12576000Y-9877000D01*
X12576000Y-9787000D02*
X12666000Y-9877000D01*
X12666000Y-9787000D02*
X12576000Y-9877000D01*
X12576000Y-10041000D02*
X12666000Y-10131000D01*
X12666000Y-10041000D02*
X12576000Y-10131000D01*
X12576000Y-10041000D02*
X12666000Y-10131000D01*
X12666000Y-10041000D02*
X12576000Y-10131000D01*
X12576000Y-10295000D02*
X12666000Y-10385000D01*
X12666000Y-10295000D02*
X12576000Y-10385000D01*
X12576000Y-10295000D02*
X12666000Y-10385000D01*
X12666000Y-10295000D02*
X12576000Y-10385000D01*
X12576000Y-10549000D02*
X12666000Y-10639000D01*
X12666000Y-10549000D02*
X12576000Y-10639000D01*
X12576000Y-10549000D02*
X12666000Y-10639000D01*
X12666000Y-10549000D02*
X12576000Y-10639000D01*
X12576000Y-10803000D02*
X12666000Y-10893000D01*
X12666000Y-10803000D02*
X12576000Y-10893000D01*
X12576000Y-10803000D02*
X12666000Y-10893000D01*
X12666000Y-10803000D02*
X12576000Y-10893000D01*
X12576000Y-11057000D02*
X12666000Y-11147000D01*
X12666000Y-11057000D02*
X12576000Y-11147000D01*
X12576000Y-11057000D02*
X12666000Y-11147000D01*
X12666000Y-11057000D02*
X12576000Y-11147000D01*
X12576000Y-11311000D02*
X12666000Y-11401000D01*
X12666000Y-11311000D02*
X12576000Y-11401000D01*
X12576000Y-11311000D02*
X12666000Y-11401000D01*
X12666000Y-11311000D02*
X12576000Y-11401000D01*
X12576000Y-11565000D02*
X12666000Y-11655000D01*
X12666000Y-11565000D02*
X12576000Y-11655000D01*
X12576000Y-11565000D02*
X12666000Y-11655000D01*
X12666000Y-11565000D02*
X12576000Y-11655000D01*
X12576000Y-11819000D02*
X12666000Y-11909000D01*
X12666000Y-11819000D02*
X12576000Y-11909000D01*
X12576000Y-11819000D02*
X12666000Y-11909000D01*
X12666000Y-11819000D02*
X12576000Y-11909000D01*
X12576000Y-12073000D02*
X12666000Y-12163000D01*
X12666000Y-12073000D02*
X12576000Y-12163000D01*
X12576000Y-12073000D02*
X12666000Y-12163000D01*
X12666000Y-12073000D02*
X12576000Y-12163000D01*
X12576000Y-12327000D02*
X12666000Y-12417000D01*
X12666000Y-12327000D02*
X12576000Y-12417000D01*
X12576000Y-12327000D02*
X12666000Y-12417000D01*
X12666000Y-12327000D02*
X12576000Y-12417000D01*
X12576000Y-12581000D02*
X12666000Y-12671000D01*
X12666000Y-12581000D02*
X12576000Y-12671000D01*
X12576000Y-12581000D02*
X12666000Y-12671000D01*
X12666000Y-12581000D02*
X12576000Y-12671000D01*
X12576000Y-12835000D02*
X12666000Y-12925000D01*
X12666000Y-12835000D02*
X12576000Y-12925000D01*
X12576000Y-12835000D02*
X12666000Y-12925000D01*
X12666000Y-12835000D02*
X12576000Y-12925000D01*
X12576000Y-13089000D02*
X12666000Y-13179000D01*
X12666000Y-13089000D02*
X12576000Y-13179000D01*
X12576000Y-13089000D02*
X12666000Y-13179000D01*
X12666000Y-13089000D02*
X12576000Y-13179000D01*
X12576000Y-13343000D02*
X12666000Y-13433000D01*
X12666000Y-13343000D02*
X12576000Y-13433000D01*
X12576000Y-13343000D02*
X12666000Y-13433000D01*
X12666000Y-13343000D02*
X12576000Y-13433000D01*
X12576000Y-13597000D02*
X12666000Y-13687000D01*
X12666000Y-13597000D02*
X12576000Y-13687000D01*
X12576000Y-13597000D02*
X12666000Y-13687000D01*
X12666000Y-13597000D02*
X12576000Y-13687000D01*
X12576000Y-13851000D02*
X12666000Y-13941000D01*
X12666000Y-13851000D02*
X12576000Y-13941000D01*
X12576000Y-14105000D02*
X12666000Y-14195000D01*
X12666000Y-14105000D02*
X12576000Y-14195000D01*
X12830000Y-5215000D02*
X12920000Y-5305000D01*
X12920000Y-5215000D02*
X12830000Y-5305000D01*
X12830000Y-5469000D02*
X12920000Y-5559000D01*
X12920000Y-5469000D02*
X12830000Y-5559000D01*
X12830000Y-5723000D02*
X12920000Y-5813000D01*
X12920000Y-5723000D02*
X12830000Y-5813000D01*
X12830000Y-5977000D02*
X12920000Y-6067000D01*
X12920000Y-5977000D02*
X12830000Y-6067000D01*
X12830000Y-6231000D02*
X12920000Y-6321000D01*
X12920000Y-6231000D02*
X12830000Y-6321000D01*
X12830000Y-6485000D02*
X12920000Y-6575000D01*
X12920000Y-6485000D02*
X12830000Y-6575000D01*
X12830000Y-6739000D02*
X12920000Y-6829000D01*
X12920000Y-6739000D02*
X12830000Y-6829000D01*
X12830000Y-6993000D02*
X12920000Y-7083000D01*
X12920000Y-6993000D02*
X12830000Y-7083000D01*
X12830000Y-7247000D02*
X12920000Y-7337000D01*
X12920000Y-7247000D02*
X12830000Y-7337000D01*
X12830000Y-7501000D02*
X12920000Y-7591000D01*
X12920000Y-7501000D02*
X12830000Y-7591000D01*
X12830000Y-7755000D02*
X12920000Y-7845000D01*
X12920000Y-7755000D02*
X12830000Y-7845000D01*
X12830000Y-8009000D02*
X12920000Y-8099000D01*
X12920000Y-8009000D02*
X12830000Y-8099000D01*
X12830000Y-8263000D02*
X12920000Y-8353000D01*
X12920000Y-8263000D02*
X12830000Y-8353000D01*
X12830000Y-8517000D02*
X12920000Y-8607000D01*
X12920000Y-8517000D02*
X12830000Y-8607000D01*
X12830000Y-8771000D02*
X12920000Y-8861000D01*
X12920000Y-8771000D02*
X12830000Y-8861000D01*
X12830000Y-8771000D02*
X12920000Y-8861000D01*
X12920000Y-8771000D02*
X12830000Y-8861000D01*
X12830000Y-9025000D02*
X12920000Y-9115000D01*
X12920000Y-9025000D02*
X12830000Y-9115000D01*
X12830000Y-9279000D02*
X12920000Y-9369000D01*
X12920000Y-9279000D02*
X12830000Y-9369000D01*
X12830000Y-9533000D02*
X12920000Y-9623000D01*
X12920000Y-9533000D02*
X12830000Y-9623000D01*
X12830000Y-9787000D02*
X12920000Y-9877000D01*
X12920000Y-9787000D02*
X12830000Y-9877000D01*
X12830000Y-10041000D02*
X12920000Y-10131000D01*
X12920000Y-10041000D02*
X12830000Y-10131000D01*
X12830000Y-10295000D02*
X12920000Y-10385000D01*
X12920000Y-10295000D02*
X12830000Y-10385000D01*
X12830000Y-10549000D02*
X12920000Y-10639000D01*
X12920000Y-10549000D02*
X12830000Y-10639000D01*
X12830000Y-10803000D02*
X12920000Y-10893000D01*
X12920000Y-10803000D02*
X12830000Y-10893000D01*
X12830000Y-11057000D02*
X12920000Y-11147000D01*
X12920000Y-11057000D02*
X12830000Y-11147000D01*
X12830000Y-11311000D02*
X12920000Y-11401000D01*
X12920000Y-11311000D02*
X12830000Y-11401000D01*
X12830000Y-11565000D02*
X12920000Y-11655000D01*
X12920000Y-11565000D02*
X12830000Y-11655000D01*
X12830000Y-11819000D02*
X12920000Y-11909000D01*
X12920000Y-11819000D02*
X12830000Y-11909000D01*
X12830000Y-12073000D02*
X12920000Y-12163000D01*
X12920000Y-12073000D02*
X12830000Y-12163000D01*
X12830000Y-12327000D02*
X12920000Y-12417000D01*
X12920000Y-12327000D02*
X12830000Y-12417000D01*
X12830000Y-12581000D02*
X12920000Y-12671000D01*
X12920000Y-12581000D02*
X12830000Y-12671000D01*
X12830000Y-12835000D02*
X12920000Y-12925000D01*
X12920000Y-12835000D02*
X12830000Y-12925000D01*
X12830000Y-13089000D02*
X12920000Y-13179000D01*
X12920000Y-13089000D02*
X12830000Y-13179000D01*
X12830000Y-13343000D02*
X12920000Y-13433000D01*
X12920000Y-13343000D02*
X12830000Y-13433000D01*
X12830000Y-13597000D02*
X12920000Y-13687000D01*
X12920000Y-13597000D02*
X12830000Y-13687000D01*
X12830000Y-13851000D02*
X12920000Y-13941000D01*
X12920000Y-13851000D02*
X12830000Y-13941000D01*
X12830000Y-14105000D02*
X12920000Y-14195000D01*
X12920000Y-14105000D02*
X12830000Y-14195000D01*
X13084000Y-5215000D02*
X13174000Y-5305000D01*
X13174000Y-5215000D02*
X13084000Y-5305000D01*
X13084000Y-5469000D02*
X13174000Y-5559000D01*
X13174000Y-5469000D02*
X13084000Y-5559000D01*
X13084000Y-5723000D02*
X13174000Y-5813000D01*
X13174000Y-5723000D02*
X13084000Y-5813000D01*
X13084000Y-5977000D02*
X13174000Y-6067000D01*
X13174000Y-5977000D02*
X13084000Y-6067000D01*
X13084000Y-6231000D02*
X13174000Y-6321000D01*
X13174000Y-6231000D02*
X13084000Y-6321000D01*
X13084000Y-6485000D02*
X13174000Y-6575000D01*
X13174000Y-6485000D02*
X13084000Y-6575000D01*
X13084000Y-6739000D02*
X13174000Y-6829000D01*
X13174000Y-6739000D02*
X13084000Y-6829000D01*
X13084000Y-6993000D02*
X13174000Y-7083000D01*
X13174000Y-6993000D02*
X13084000Y-7083000D01*
X13084000Y-7247000D02*
X13174000Y-7337000D01*
X13174000Y-7247000D02*
X13084000Y-7337000D01*
X13084000Y-7501000D02*
X13174000Y-7591000D01*
X13174000Y-7501000D02*
X13084000Y-7591000D01*
X13084000Y-7755000D02*
X13174000Y-7845000D01*
X13174000Y-7755000D02*
X13084000Y-7845000D01*
X13084000Y-8009000D02*
X13174000Y-8099000D01*
X13174000Y-8009000D02*
X13084000Y-8099000D01*
X13084000Y-8263000D02*
X13174000Y-8353000D01*
X13174000Y-8263000D02*
X13084000Y-8353000D01*
X13084000Y-8517000D02*
X13174000Y-8607000D01*
X13174000Y-8517000D02*
X13084000Y-8607000D01*
X13084000Y-8771000D02*
X13174000Y-8861000D01*
X13174000Y-8771000D02*
X13084000Y-8861000D01*
X13084000Y-9025000D02*
X13174000Y-9115000D01*
X13174000Y-9025000D02*
X13084000Y-9115000D01*
X13084000Y-9279000D02*
X13174000Y-9369000D01*
X13174000Y-9279000D02*
X13084000Y-9369000D01*
X13084000Y-9533000D02*
X13174000Y-9623000D01*
X13174000Y-9533000D02*
X13084000Y-9623000D01*
X13084000Y-9787000D02*
X13174000Y-9877000D01*
X13174000Y-9787000D02*
X13084000Y-9877000D01*
X13084000Y-10041000D02*
X13174000Y-10131000D01*
X13174000Y-10041000D02*
X13084000Y-10131000D01*
X13084000Y-10295000D02*
X13174000Y-10385000D01*
X13174000Y-10295000D02*
X13084000Y-10385000D01*
X13084000Y-10549000D02*
X13174000Y-10639000D01*
X13174000Y-10549000D02*
X13084000Y-10639000D01*
X13084000Y-10803000D02*
X13174000Y-10893000D01*
X13174000Y-10803000D02*
X13084000Y-10893000D01*
X13084000Y-11057000D02*
X13174000Y-11147000D01*
X13174000Y-11057000D02*
X13084000Y-11147000D01*
X13084000Y-11311000D02*
X13174000Y-11401000D01*
X13174000Y-11311000D02*
X13084000Y-11401000D01*
X13084000Y-11565000D02*
X13174000Y-11655000D01*
X13174000Y-11565000D02*
X13084000Y-11655000D01*
X13084000Y-11819000D02*
X13174000Y-11909000D01*
X13174000Y-11819000D02*
X13084000Y-11909000D01*
X13084000Y-12073000D02*
X13174000Y-12163000D01*
X13174000Y-12073000D02*
X13084000Y-12163000D01*
X13084000Y-12327000D02*
X13174000Y-12417000D01*
X13174000Y-12327000D02*
X13084000Y-12417000D01*
X13084000Y-12581000D02*
X13174000Y-12671000D01*
X13174000Y-12581000D02*
X13084000Y-12671000D01*
X13084000Y-12835000D02*
X13174000Y-12925000D01*
X13174000Y-12835000D02*
X13084000Y-12925000D01*
X13084000Y-13089000D02*
X13174000Y-13179000D01*
X13174000Y-13089000D02*
X13084000Y-13179000D01*
X13084000Y-13343000D02*
X13174000Y-13433000D01*
X13174000Y-13343000D02*
X13084000Y-13433000D01*
X13084000Y-13597000D02*
X13174000Y-13687000D01*
X13174000Y-13597000D02*
X13084000Y-13687000D01*
X13084000Y-13851000D02*
X13174000Y-13941000D01*
X13174000Y-13851000D02*
X13084000Y-13941000D01*
X13084000Y-14105000D02*
X13174000Y-14195000D01*
X13174000Y-14105000D02*
X13084000Y-14195000D01*
X13338000Y-5215000D02*
X13428000Y-5305000D01*
X13428000Y-5215000D02*
X13338000Y-5305000D01*
X13338000Y-5469000D02*
X13428000Y-5559000D01*
X13428000Y-5469000D02*
X13338000Y-5559000D01*
X13338000Y-5723000D02*
X13428000Y-5813000D01*
X13428000Y-5723000D02*
X13338000Y-5813000D01*
X13338000Y-5977000D02*
X13428000Y-6067000D01*
X13428000Y-5977000D02*
X13338000Y-6067000D01*
X13338000Y-6231000D02*
X13428000Y-6321000D01*
X13428000Y-6231000D02*
X13338000Y-6321000D01*
X13338000Y-6485000D02*
X13428000Y-6575000D01*
X13428000Y-6485000D02*
X13338000Y-6575000D01*
X13338000Y-6739000D02*
X13428000Y-6829000D01*
X13428000Y-6739000D02*
X13338000Y-6829000D01*
X13338000Y-6993000D02*
X13428000Y-7083000D01*
X13428000Y-6993000D02*
X13338000Y-7083000D01*
X13338000Y-7247000D02*
X13428000Y-7337000D01*
X13428000Y-7247000D02*
X13338000Y-7337000D01*
X13338000Y-7501000D02*
X13428000Y-7591000D01*
X13428000Y-7501000D02*
X13338000Y-7591000D01*
X13338000Y-7755000D02*
X13428000Y-7845000D01*
X13428000Y-7755000D02*
X13338000Y-7845000D01*
X13338000Y-8009000D02*
X13428000Y-8099000D01*
X13428000Y-8009000D02*
X13338000Y-8099000D01*
X13338000Y-8263000D02*
X13428000Y-8353000D01*
X13428000Y-8263000D02*
X13338000Y-8353000D01*
X13338000Y-8517000D02*
X13428000Y-8607000D01*
X13428000Y-8517000D02*
X13338000Y-8607000D01*
X13338000Y-11057000D02*
X13428000Y-11147000D01*
X13428000Y-11057000D02*
X13338000Y-11147000D01*
X13338000Y-11311000D02*
X13428000Y-11401000D01*
X13428000Y-11311000D02*
X13338000Y-11401000D01*
X13338000Y-11565000D02*
X13428000Y-11655000D01*
X13428000Y-11565000D02*
X13338000Y-11655000D01*
X13338000Y-11819000D02*
X13428000Y-11909000D01*
X13428000Y-11819000D02*
X13338000Y-11909000D01*
X13338000Y-12073000D02*
X13428000Y-12163000D01*
X13428000Y-12073000D02*
X13338000Y-12163000D01*
X13338000Y-12327000D02*
X13428000Y-12417000D01*
X13428000Y-12327000D02*
X13338000Y-12417000D01*
X13338000Y-12581000D02*
X13428000Y-12671000D01*
X13428000Y-12581000D02*
X13338000Y-12671000D01*
X13338000Y-12835000D02*
X13428000Y-12925000D01*
X13428000Y-12835000D02*
X13338000Y-12925000D01*
X13338000Y-13089000D02*
X13428000Y-13179000D01*
X13428000Y-13089000D02*
X13338000Y-13179000D01*
X13338000Y-13343000D02*
X13428000Y-13433000D01*
X13428000Y-13343000D02*
X13338000Y-13433000D01*
X13338000Y-13597000D02*
X13428000Y-13687000D01*
X13428000Y-13597000D02*
X13338000Y-13687000D01*
X13338000Y-13851000D02*
X13428000Y-13941000D01*
X13428000Y-13851000D02*
X13338000Y-13941000D01*
X13338000Y-14105000D02*
X13428000Y-14195000D01*
X13428000Y-14105000D02*
X13338000Y-14195000D01*
X13592000Y-5215000D02*
X13682000Y-5305000D01*
X13682000Y-5215000D02*
X13592000Y-5305000D01*
X13592000Y-5469000D02*
X13682000Y-5559000D01*
X13682000Y-5469000D02*
X13592000Y-5559000D01*
X13592000Y-5723000D02*
X13682000Y-5813000D01*
X13682000Y-5723000D02*
X13592000Y-5813000D01*
X13592000Y-5977000D02*
X13682000Y-6067000D01*
X13682000Y-5977000D02*
X13592000Y-6067000D01*
X13592000Y-6231000D02*
X13682000Y-6321000D01*
X13682000Y-6231000D02*
X13592000Y-6321000D01*
X13592000Y-6485000D02*
X13682000Y-6575000D01*
X13682000Y-6485000D02*
X13592000Y-6575000D01*
X13592000Y-6739000D02*
X13682000Y-6829000D01*
X13682000Y-6739000D02*
X13592000Y-6829000D01*
X13592000Y-6993000D02*
X13682000Y-7083000D01*
X13682000Y-6993000D02*
X13592000Y-7083000D01*
X13592000Y-7247000D02*
X13682000Y-7337000D01*
X13682000Y-7247000D02*
X13592000Y-7337000D01*
X13592000Y-7501000D02*
X13682000Y-7591000D01*
X13682000Y-7501000D02*
X13592000Y-7591000D01*
X13592000Y-7755000D02*
X13682000Y-7845000D01*
X13682000Y-7755000D02*
X13592000Y-7845000D01*
X13592000Y-8009000D02*
X13682000Y-8099000D01*
X13682000Y-8009000D02*
X13592000Y-8099000D01*
X13592000Y-8263000D02*
X13682000Y-8353000D01*
X13682000Y-8263000D02*
X13592000Y-8353000D01*
X13592000Y-11311000D02*
X13682000Y-11401000D01*
X13682000Y-11311000D02*
X13592000Y-11401000D01*
X13592000Y-11565000D02*
X13682000Y-11655000D01*
X13682000Y-11565000D02*
X13592000Y-11655000D01*
X13592000Y-11819000D02*
X13682000Y-11909000D01*
X13682000Y-11819000D02*
X13592000Y-11909000D01*
X13592000Y-12073000D02*
X13682000Y-12163000D01*
X13682000Y-12073000D02*
X13592000Y-12163000D01*
X13592000Y-12327000D02*
X13682000Y-12417000D01*
X13682000Y-12327000D02*
X13592000Y-12417000D01*
X13592000Y-12581000D02*
X13682000Y-12671000D01*
X13682000Y-12581000D02*
X13592000Y-12671000D01*
X13592000Y-12835000D02*
X13682000Y-12925000D01*
X13682000Y-12835000D02*
X13592000Y-12925000D01*
X13592000Y-13089000D02*
X13682000Y-13179000D01*
X13682000Y-13089000D02*
X13592000Y-13179000D01*
X13592000Y-13343000D02*
X13682000Y-13433000D01*
X13682000Y-13343000D02*
X13592000Y-13433000D01*
X13592000Y-13597000D02*
X13682000Y-13687000D01*
X13682000Y-13597000D02*
X13592000Y-13687000D01*
X13592000Y-13851000D02*
X13682000Y-13941000D01*
X13682000Y-13851000D02*
X13592000Y-13941000D01*
X13592000Y-14105000D02*
X13682000Y-14195000D01*
X13682000Y-14105000D02*
X13592000Y-14195000D01*
X13846000Y-5723000D02*
X13936000Y-5813000D01*
X13936000Y-5723000D02*
X13846000Y-5813000D01*
X13846000Y-5977000D02*
X13936000Y-6067000D01*
X13936000Y-5977000D02*
X13846000Y-6067000D01*
X13846000Y-6231000D02*
X13936000Y-6321000D01*
X13936000Y-6231000D02*
X13846000Y-6321000D01*
X13846000Y-6485000D02*
X13936000Y-6575000D01*
X13936000Y-6485000D02*
X13846000Y-6575000D01*
X13846000Y-6739000D02*
X13936000Y-6829000D01*
X13936000Y-6739000D02*
X13846000Y-6829000D01*
X13846000Y-6993000D02*
X13936000Y-7083000D01*
X13936000Y-6993000D02*
X13846000Y-7083000D01*
X13846000Y-7247000D02*
X13936000Y-7337000D01*
X13936000Y-7247000D02*
X13846000Y-7337000D01*
X13846000Y-7501000D02*
X13936000Y-7591000D01*
X13936000Y-7501000D02*
X13846000Y-7591000D01*
X13846000Y-7755000D02*
X13936000Y-7845000D01*
X13936000Y-7755000D02*
X13846000Y-7845000D01*
X13846000Y-8009000D02*
X13936000Y-8099000D01*
X13936000Y-8009000D02*
X13846000Y-8099000D01*
X13846000Y-8263000D02*
X13936000Y-8353000D01*
X13936000Y-8263000D02*
X13846000Y-8353000D01*
X13846000Y-11311000D02*
X13936000Y-11401000D01*
X13936000Y-11311000D02*
X13846000Y-11401000D01*
X13846000Y-11565000D02*
X13936000Y-11655000D01*
X13936000Y-11565000D02*
X13846000Y-11655000D01*
X13846000Y-11819000D02*
X13936000Y-11909000D01*
X13936000Y-11819000D02*
X13846000Y-11909000D01*
X13846000Y-12073000D02*
X13936000Y-12163000D01*
X13936000Y-12073000D02*
X13846000Y-12163000D01*
X13846000Y-12327000D02*
X13936000Y-12417000D01*
X13936000Y-12327000D02*
X13846000Y-12417000D01*
X13846000Y-12581000D02*
X13936000Y-12671000D01*
X13936000Y-12581000D02*
X13846000Y-12671000D01*
X13846000Y-12835000D02*
X13936000Y-12925000D01*
X13936000Y-12835000D02*
X13846000Y-12925000D01*
X13846000Y-13089000D02*
X13936000Y-13179000D01*
X13936000Y-13089000D02*
X13846000Y-13179000D01*
X13846000Y-13343000D02*
X13936000Y-13433000D01*
X13936000Y-13343000D02*
X13846000Y-13433000D01*
X13846000Y-13597000D02*
X13936000Y-13687000D01*
X13936000Y-13597000D02*
X13846000Y-13687000D01*
X14100000Y-5723000D02*
X14190000Y-5813000D01*
X14190000Y-5723000D02*
X14100000Y-5813000D01*
X14100000Y-5977000D02*
X14190000Y-6067000D01*
X14190000Y-5977000D02*
X14100000Y-6067000D01*
X14100000Y-6231000D02*
X14190000Y-6321000D01*
X14190000Y-6231000D02*
X14100000Y-6321000D01*
X14100000Y-6485000D02*
X14190000Y-6575000D01*
X14190000Y-6485000D02*
X14100000Y-6575000D01*
X14100000Y-6739000D02*
X14190000Y-6829000D01*
X14190000Y-6739000D02*
X14100000Y-6829000D01*
X14100000Y-6993000D02*
X14190000Y-7083000D01*
X14190000Y-6993000D02*
X14100000Y-7083000D01*
X14100000Y-7247000D02*
X14190000Y-7337000D01*
X14190000Y-7247000D02*
X14100000Y-7337000D01*
X14100000Y-7501000D02*
X14190000Y-7591000D01*
X14190000Y-7501000D02*
X14100000Y-7591000D01*
X14100000Y-7755000D02*
X14190000Y-7845000D01*
X14190000Y-7755000D02*
X14100000Y-7845000D01*
X14100000Y-8009000D02*
X14190000Y-8099000D01*
X14190000Y-8009000D02*
X14100000Y-8099000D01*
X14100000Y-8263000D02*
X14190000Y-8353000D01*
X14190000Y-8263000D02*
X14100000Y-8353000D01*
X14100000Y-11311000D02*
X14190000Y-11401000D01*
X14190000Y-11311000D02*
X14100000Y-11401000D01*
X14100000Y-11565000D02*
X14190000Y-11655000D01*
X14190000Y-11565000D02*
X14100000Y-11655000D01*
X14100000Y-11819000D02*
X14190000Y-11909000D01*
X14190000Y-11819000D02*
X14100000Y-11909000D01*
X14100000Y-12073000D02*
X14190000Y-12163000D01*
X14190000Y-12073000D02*
X14100000Y-12163000D01*
X14100000Y-12327000D02*
X14190000Y-12417000D01*
X14190000Y-12327000D02*
X14100000Y-12417000D01*
X14100000Y-12581000D02*
X14190000Y-12671000D01*
X14190000Y-12581000D02*
X14100000Y-12671000D01*
X14100000Y-12835000D02*
X14190000Y-12925000D01*
X14190000Y-12835000D02*
X14100000Y-12925000D01*
X14100000Y-13089000D02*
X14190000Y-13179000D01*
X14190000Y-13089000D02*
X14100000Y-13179000D01*
X14100000Y-13343000D02*
X14190000Y-13433000D01*
X14190000Y-13343000D02*
X14100000Y-13433000D01*
X14100000Y-13597000D02*
X14190000Y-13687000D01*
X14190000Y-13597000D02*
X14100000Y-13687000D01*
D13*
X5510000Y-5350000D02*
G75*
G02*
X5190000Y-5350000I-160000J0D01*
G01*
X5190000Y-5350000D02*
G75*
G02*
X5510000Y-5350000I160000J0D01*
G01*
X5510000Y-5350000D02*
G75*
G02*
X5190000Y-5350000I-160000J0D01*
G01*
X5190000Y-5350000D02*
G75*
G02*
X5510000Y-5350000I160000J0D01*
G01*
X5510000Y-14050000D02*
G75*
G02*
X5190000Y-14050000I-160000J0D01*
G01*
X5190000Y-14050000D02*
G75*
G02*
X5510000Y-14050000I160000J0D01*
G01*
X5510000Y-14050000D02*
G75*
G02*
X5190000Y-14050000I-160000J0D01*
G01*
X5190000Y-14050000D02*
G75*
G02*
X5510000Y-14050000I160000J0D01*
G01*
X14210000Y-5350000D02*
G75*
G02*
X13890000Y-5350000I-160000J0D01*
G01*
X13890000Y-5350000D02*
G75*
G02*
X14210000Y-5350000I160000J0D01*
G01*
X14210000Y-5350000D02*
G75*
G02*
X13890000Y-5350000I-160000J0D01*
G01*
X13890000Y-5350000D02*
G75*
G02*
X14210000Y-5350000I160000J0D01*
G01*
X14210000Y-14050000D02*
G75*
G02*
X13890000Y-14050000I-160000J0D01*
G01*
X13890000Y-14050000D02*
G75*
G02*
X14210000Y-14050000I160000J0D01*
G01*
D11*
X5258277Y-14713984D02*
X5258277Y-14513984D01*
X5258277Y-14513984D02*
X5305896Y-14513984D01*
X5305896Y-14513984D02*
X5334467Y-14523508D01*
X5334467Y-14523508D02*
X5353515Y-14542555D01*
X5353515Y-14542555D02*
X5363039Y-14561603D01*
X5363039Y-14561603D02*
X5372563Y-14599698D01*
X5372563Y-14599698D02*
X5372563Y-14628269D01*
X5372563Y-14628269D02*
X5363039Y-14666365D01*
X5363039Y-14666365D02*
X5353515Y-14685412D01*
X5353515Y-14685412D02*
X5334467Y-14704460D01*
X5334467Y-14704460D02*
X5305896Y-14713984D01*
X5305896Y-14713984D02*
X5258277Y-14713984D01*
X5458277Y-14713984D02*
X5458277Y-14580650D01*
X5458277Y-14618746D02*
X5467801Y-14599698D01*
X5467801Y-14599698D02*
X5477324Y-14590174D01*
X5477324Y-14590174D02*
X5496372Y-14580650D01*
X5496372Y-14580650D02*
X5515420Y-14580650D01*
X5582086Y-14713984D02*
X5582086Y-14580650D01*
X5582086Y-14513984D02*
X5572563Y-14523508D01*
X5572563Y-14523508D02*
X5582086Y-14533031D01*
X5582086Y-14533031D02*
X5591610Y-14523508D01*
X5591610Y-14523508D02*
X5582086Y-14513984D01*
X5582086Y-14513984D02*
X5582086Y-14533031D01*
X5705896Y-14713984D02*
X5686848Y-14704460D01*
X5686848Y-14704460D02*
X5677324Y-14685412D01*
X5677324Y-14685412D02*
X5677324Y-14513984D01*
X5810658Y-14713984D02*
X5791610Y-14704460D01*
X5791610Y-14704460D02*
X5782086Y-14685412D01*
X5782086Y-14685412D02*
X5782086Y-14513984D01*
X6039229Y-14713984D02*
X6039229Y-14513984D01*
X6039229Y-14513984D02*
X6105896Y-14656841D01*
X6105896Y-14656841D02*
X6172562Y-14513984D01*
X6172562Y-14513984D02*
X6172562Y-14713984D01*
X6353515Y-14713984D02*
X6353515Y-14609222D01*
X6353515Y-14609222D02*
X6343991Y-14590174D01*
X6343991Y-14590174D02*
X6324943Y-14580650D01*
X6324943Y-14580650D02*
X6286848Y-14580650D01*
X6286848Y-14580650D02*
X6267801Y-14590174D01*
X6353515Y-14704460D02*
X6334467Y-14713984D01*
X6334467Y-14713984D02*
X6286848Y-14713984D01*
X6286848Y-14713984D02*
X6267801Y-14704460D01*
X6267801Y-14704460D02*
X6258277Y-14685412D01*
X6258277Y-14685412D02*
X6258277Y-14666365D01*
X6258277Y-14666365D02*
X6267801Y-14647317D01*
X6267801Y-14647317D02*
X6286848Y-14637793D01*
X6286848Y-14637793D02*
X6334467Y-14637793D01*
X6334467Y-14637793D02*
X6353515Y-14628269D01*
X6448753Y-14580650D02*
X6448753Y-14780650D01*
X6448753Y-14590174D02*
X6467801Y-14580650D01*
X6467801Y-14580650D02*
X6505896Y-14580650D01*
X6505896Y-14580650D02*
X6524943Y-14590174D01*
X6524943Y-14590174D02*
X6534467Y-14599698D01*
X6534467Y-14599698D02*
X6543991Y-14618746D01*
X6543991Y-14618746D02*
X6543991Y-14675888D01*
X6543991Y-14675888D02*
X6534467Y-14694936D01*
X6534467Y-14694936D02*
X6524943Y-14704460D01*
X6524943Y-14704460D02*
X6505896Y-14713984D01*
X6505896Y-14713984D02*
X6467801Y-14713984D01*
X6467801Y-14713984D02*
X6448753Y-14704460D01*
X6629705Y-14694936D02*
X6639229Y-14704460D01*
X6639229Y-14704460D02*
X6629705Y-14713984D01*
X6629705Y-14713984D02*
X6620182Y-14704460D01*
X6620182Y-14704460D02*
X6629705Y-14694936D01*
X6629705Y-14694936D02*
X6629705Y-14713984D01*
X6629705Y-14590174D02*
X6639229Y-14599698D01*
X6639229Y-14599698D02*
X6629705Y-14609222D01*
X6629705Y-14609222D02*
X6620182Y-14599698D01*
X6620182Y-14599698D02*
X6629705Y-14590174D01*
X6629705Y-14590174D02*
X6629705Y-14609222D01*
D12*
X4907500Y-14997500D02*
X4997500Y-15087500D01*
X4997500Y-14997500D02*
X4907500Y-15087500D01*
D11*
X5296372Y-14933984D02*
X5315420Y-14933984D01*
X5315420Y-14933984D02*
X5334467Y-14943508D01*
X5334467Y-14943508D02*
X5343991Y-14953031D01*
X5343991Y-14953031D02*
X5353515Y-14972079D01*
X5353515Y-14972079D02*
X5363039Y-15010174D01*
X5363039Y-15010174D02*
X5363039Y-15057793D01*
X5363039Y-15057793D02*
X5353515Y-15095888D01*
X5353515Y-15095888D02*
X5343991Y-15114936D01*
X5343991Y-15114936D02*
X5334467Y-15124460D01*
X5334467Y-15124460D02*
X5315420Y-15133984D01*
X5315420Y-15133984D02*
X5296372Y-15133984D01*
X5296372Y-15133984D02*
X5277324Y-15124460D01*
X5277324Y-15124460D02*
X5267801Y-15114936D01*
X5267801Y-15114936D02*
X5258277Y-15095888D01*
X5258277Y-15095888D02*
X5248753Y-15057793D01*
X5248753Y-15057793D02*
X5248753Y-15010174D01*
X5248753Y-15010174D02*
X5258277Y-14972079D01*
X5258277Y-14972079D02*
X5267801Y-14953031D01*
X5267801Y-14953031D02*
X5277324Y-14943508D01*
X5277324Y-14943508D02*
X5296372Y-14933984D01*
X5448753Y-15114936D02*
X5458277Y-15124460D01*
X5458277Y-15124460D02*
X5448753Y-15133984D01*
X5448753Y-15133984D02*
X5439229Y-15124460D01*
X5439229Y-15124460D02*
X5448753Y-15114936D01*
X5448753Y-15114936D02*
X5448753Y-15133984D01*
X5553515Y-15133984D02*
X5591610Y-15133984D01*
X5591610Y-15133984D02*
X5610658Y-15124460D01*
X5610658Y-15124460D02*
X5620182Y-15114936D01*
X5620182Y-15114936D02*
X5639229Y-15086365D01*
X5639229Y-15086365D02*
X5648753Y-15048269D01*
X5648753Y-15048269D02*
X5648753Y-14972079D01*
X5648753Y-14972079D02*
X5639229Y-14953031D01*
X5639229Y-14953031D02*
X5629705Y-14943508D01*
X5629705Y-14943508D02*
X5610658Y-14933984D01*
X5610658Y-14933984D02*
X5572563Y-14933984D01*
X5572563Y-14933984D02*
X5553515Y-14943508D01*
X5553515Y-14943508D02*
X5543991Y-14953031D01*
X5543991Y-14953031D02*
X5534467Y-14972079D01*
X5534467Y-14972079D02*
X5534467Y-15019698D01*
X5534467Y-15019698D02*
X5543991Y-15038746D01*
X5543991Y-15038746D02*
X5553515Y-15048269D01*
X5553515Y-15048269D02*
X5572563Y-15057793D01*
X5572563Y-15057793D02*
X5610658Y-15057793D01*
X5610658Y-15057793D02*
X5629705Y-15048269D01*
X5629705Y-15048269D02*
X5639229Y-15038746D01*
X5639229Y-15038746D02*
X5648753Y-15019698D01*
X5772562Y-14933984D02*
X5791610Y-14933984D01*
X5791610Y-14933984D02*
X5810658Y-14943508D01*
X5810658Y-14943508D02*
X5820182Y-14953031D01*
X5820182Y-14953031D02*
X5829705Y-14972079D01*
X5829705Y-14972079D02*
X5839229Y-15010174D01*
X5839229Y-15010174D02*
X5839229Y-15057793D01*
X5839229Y-15057793D02*
X5829705Y-15095888D01*
X5829705Y-15095888D02*
X5820182Y-15114936D01*
X5820182Y-15114936D02*
X5810658Y-15124460D01*
X5810658Y-15124460D02*
X5791610Y-15133984D01*
X5791610Y-15133984D02*
X5772562Y-15133984D01*
X5772562Y-15133984D02*
X5753515Y-15124460D01*
X5753515Y-15124460D02*
X5743991Y-15114936D01*
X5743991Y-15114936D02*
X5734467Y-15095888D01*
X5734467Y-15095888D02*
X5724943Y-15057793D01*
X5724943Y-15057793D02*
X5724943Y-15010174D01*
X5724943Y-15010174D02*
X5734467Y-14972079D01*
X5734467Y-14972079D02*
X5743991Y-14953031D01*
X5743991Y-14953031D02*
X5753515Y-14943508D01*
X5753515Y-14943508D02*
X5772562Y-14933984D01*
X5963039Y-14933984D02*
X5982086Y-14933984D01*
X5982086Y-14933984D02*
X6001134Y-14943508D01*
X6001134Y-14943508D02*
X6010658Y-14953031D01*
X6010658Y-14953031D02*
X6020182Y-14972079D01*
X6020182Y-14972079D02*
X6029705Y-15010174D01*
X6029705Y-15010174D02*
X6029705Y-15057793D01*
X6029705Y-15057793D02*
X6020182Y-15095888D01*
X6020182Y-15095888D02*
X6010658Y-15114936D01*
X6010658Y-15114936D02*
X6001134Y-15124460D01*
X6001134Y-15124460D02*
X5982086Y-15133984D01*
X5982086Y-15133984D02*
X5963039Y-15133984D01*
X5963039Y-15133984D02*
X5943991Y-15124460D01*
X5943991Y-15124460D02*
X5934467Y-15114936D01*
X5934467Y-15114936D02*
X5924943Y-15095888D01*
X5924943Y-15095888D02*
X5915420Y-15057793D01*
X5915420Y-15057793D02*
X5915420Y-15010174D01*
X5915420Y-15010174D02*
X5924943Y-14972079D01*
X5924943Y-14972079D02*
X5934467Y-14953031D01*
X5934467Y-14953031D02*
X5943991Y-14943508D01*
X5943991Y-14943508D02*
X5963039Y-14933984D01*
X6115420Y-15133984D02*
X6115420Y-15000650D01*
X6115420Y-15019698D02*
X6124943Y-15010174D01*
X6124943Y-15010174D02*
X6143991Y-15000650D01*
X6143991Y-15000650D02*
X6172563Y-15000650D01*
X6172563Y-15000650D02*
X6191610Y-15010174D01*
X6191610Y-15010174D02*
X6201134Y-15029222D01*
X6201134Y-15029222D02*
X6201134Y-15133984D01*
X6201134Y-15029222D02*
X6210658Y-15010174D01*
X6210658Y-15010174D02*
X6229705Y-15000650D01*
X6229705Y-15000650D02*
X6258277Y-15000650D01*
X6258277Y-15000650D02*
X6277324Y-15010174D01*
X6277324Y-15010174D02*
X6286848Y-15029222D01*
X6286848Y-15029222D02*
X6286848Y-15133984D01*
X6382086Y-15133984D02*
X6382086Y-15000650D01*
X6382086Y-15019698D02*
X6391610Y-15010174D01*
X6391610Y-15010174D02*
X6410658Y-15000650D01*
X6410658Y-15000650D02*
X6439229Y-15000650D01*
X6439229Y-15000650D02*
X6458277Y-15010174D01*
X6458277Y-15010174D02*
X6467801Y-15029222D01*
X6467801Y-15029222D02*
X6467801Y-15133984D01*
X6467801Y-15029222D02*
X6477324Y-15010174D01*
X6477324Y-15010174D02*
X6496372Y-15000650D01*
X6496372Y-15000650D02*
X6524943Y-15000650D01*
X6524943Y-15000650D02*
X6543991Y-15010174D01*
X6543991Y-15010174D02*
X6553515Y-15029222D01*
X6553515Y-15029222D02*
X6553515Y-15133984D01*
X6943991Y-14924460D02*
X6772563Y-15181603D01*
X7201134Y-14933984D02*
X7220182Y-14933984D01*
X7220182Y-14933984D02*
X7239229Y-14943508D01*
X7239229Y-14943508D02*
X7248753Y-14953031D01*
X7248753Y-14953031D02*
X7258277Y-14972079D01*
X7258277Y-14972079D02*
X7267801Y-15010174D01*
X7267801Y-15010174D02*
X7267801Y-15057793D01*
X7267801Y-15057793D02*
X7258277Y-15095888D01*
X7258277Y-15095888D02*
X7248753Y-15114936D01*
X7248753Y-15114936D02*
X7239229Y-15124460D01*
X7239229Y-15124460D02*
X7220182Y-15133984D01*
X7220182Y-15133984D02*
X7201134Y-15133984D01*
X7201134Y-15133984D02*
X7182086Y-15124460D01*
X7182086Y-15124460D02*
X7172563Y-15114936D01*
X7172563Y-15114936D02*
X7163039Y-15095888D01*
X7163039Y-15095888D02*
X7153515Y-15057793D01*
X7153515Y-15057793D02*
X7153515Y-15010174D01*
X7153515Y-15010174D02*
X7163039Y-14972079D01*
X7163039Y-14972079D02*
X7172563Y-14953031D01*
X7172563Y-14953031D02*
X7182086Y-14943508D01*
X7182086Y-14943508D02*
X7201134Y-14933984D01*
X7353515Y-15114936D02*
X7363039Y-15124460D01*
X7363039Y-15124460D02*
X7353515Y-15133984D01*
X7353515Y-15133984D02*
X7343991Y-15124460D01*
X7343991Y-15124460D02*
X7353515Y-15114936D01*
X7353515Y-15114936D02*
X7353515Y-15133984D01*
X7486848Y-14933984D02*
X7505896Y-14933984D01*
X7505896Y-14933984D02*
X7524944Y-14943508D01*
X7524944Y-14943508D02*
X7534467Y-14953031D01*
X7534467Y-14953031D02*
X7543991Y-14972079D01*
X7543991Y-14972079D02*
X7553515Y-15010174D01*
X7553515Y-15010174D02*
X7553515Y-15057793D01*
X7553515Y-15057793D02*
X7543991Y-15095888D01*
X7543991Y-15095888D02*
X7534467Y-15114936D01*
X7534467Y-15114936D02*
X7524944Y-15124460D01*
X7524944Y-15124460D02*
X7505896Y-15133984D01*
X7505896Y-15133984D02*
X7486848Y-15133984D01*
X7486848Y-15133984D02*
X7467801Y-15124460D01*
X7467801Y-15124460D02*
X7458277Y-15114936D01*
X7458277Y-15114936D02*
X7448753Y-15095888D01*
X7448753Y-15095888D02*
X7439229Y-15057793D01*
X7439229Y-15057793D02*
X7439229Y-15010174D01*
X7439229Y-15010174D02*
X7448753Y-14972079D01*
X7448753Y-14972079D02*
X7458277Y-14953031D01*
X7458277Y-14953031D02*
X7467801Y-14943508D01*
X7467801Y-14943508D02*
X7486848Y-14933984D01*
X7620182Y-14933984D02*
X7743991Y-14933984D01*
X7743991Y-14933984D02*
X7677325Y-15010174D01*
X7677325Y-15010174D02*
X7705896Y-15010174D01*
X7705896Y-15010174D02*
X7724944Y-15019698D01*
X7724944Y-15019698D02*
X7734467Y-15029222D01*
X7734467Y-15029222D02*
X7743991Y-15048269D01*
X7743991Y-15048269D02*
X7743991Y-15095888D01*
X7743991Y-15095888D02*
X7734467Y-15114936D01*
X7734467Y-15114936D02*
X7724944Y-15124460D01*
X7724944Y-15124460D02*
X7705896Y-15133984D01*
X7705896Y-15133984D02*
X7648753Y-15133984D01*
X7648753Y-15133984D02*
X7629706Y-15124460D01*
X7629706Y-15124460D02*
X7620182Y-15114936D01*
X7924944Y-14933984D02*
X7829706Y-14933984D01*
X7829706Y-14933984D02*
X7820182Y-15029222D01*
X7820182Y-15029222D02*
X7829706Y-15019698D01*
X7829706Y-15019698D02*
X7848753Y-15010174D01*
X7848753Y-15010174D02*
X7896372Y-15010174D01*
X7896372Y-15010174D02*
X7915420Y-15019698D01*
X7915420Y-15019698D02*
X7924944Y-15029222D01*
X7924944Y-15029222D02*
X7934467Y-15048269D01*
X7934467Y-15048269D02*
X7934467Y-15095888D01*
X7934467Y-15095888D02*
X7924944Y-15114936D01*
X7924944Y-15114936D02*
X7915420Y-15124460D01*
X7915420Y-15124460D02*
X7896372Y-15133984D01*
X7896372Y-15133984D02*
X7848753Y-15133984D01*
X7848753Y-15133984D02*
X7829706Y-15124460D01*
X7829706Y-15124460D02*
X7820182Y-15114936D01*
X8105896Y-15000650D02*
X8105896Y-15133984D01*
X8058277Y-14924460D02*
X8010658Y-15067317D01*
X8010658Y-15067317D02*
X8134467Y-15067317D01*
X8201134Y-14933984D02*
X8201134Y-14972079D01*
X8277325Y-14933984D02*
X8277325Y-14972079D01*
X8572563Y-15210174D02*
X8563039Y-15200650D01*
X8563039Y-15200650D02*
X8543991Y-15172079D01*
X8543991Y-15172079D02*
X8534468Y-15153031D01*
X8534468Y-15153031D02*
X8524944Y-15124460D01*
X8524944Y-15124460D02*
X8515420Y-15076841D01*
X8515420Y-15076841D02*
X8515420Y-15038746D01*
X8515420Y-15038746D02*
X8524944Y-14991127D01*
X8524944Y-14991127D02*
X8534468Y-14962555D01*
X8534468Y-14962555D02*
X8543991Y-14943508D01*
X8543991Y-14943508D02*
X8563039Y-14914936D01*
X8563039Y-14914936D02*
X8572563Y-14905412D01*
X8753515Y-15133984D02*
X8639230Y-15133984D01*
X8696372Y-15133984D02*
X8696372Y-14933984D01*
X8696372Y-14933984D02*
X8677325Y-14962555D01*
X8677325Y-14962555D02*
X8658277Y-14981603D01*
X8658277Y-14981603D02*
X8639230Y-14991127D01*
X8829706Y-14953031D02*
X8839230Y-14943508D01*
X8839230Y-14943508D02*
X8858277Y-14933984D01*
X8858277Y-14933984D02*
X8905896Y-14933984D01*
X8905896Y-14933984D02*
X8924944Y-14943508D01*
X8924944Y-14943508D02*
X8934468Y-14953031D01*
X8934468Y-14953031D02*
X8943991Y-14972079D01*
X8943991Y-14972079D02*
X8943991Y-14991127D01*
X8943991Y-14991127D02*
X8934468Y-15019698D01*
X8934468Y-15019698D02*
X8820182Y-15133984D01*
X8820182Y-15133984D02*
X8943991Y-15133984D01*
X9124944Y-14933984D02*
X9029706Y-14933984D01*
X9029706Y-14933984D02*
X9020182Y-15029222D01*
X9020182Y-15029222D02*
X9029706Y-15019698D01*
X9029706Y-15019698D02*
X9048753Y-15010174D01*
X9048753Y-15010174D02*
X9096372Y-15010174D01*
X9096372Y-15010174D02*
X9115420Y-15019698D01*
X9115420Y-15019698D02*
X9124944Y-15029222D01*
X9124944Y-15029222D02*
X9134468Y-15048269D01*
X9134468Y-15048269D02*
X9134468Y-15095888D01*
X9134468Y-15095888D02*
X9124944Y-15114936D01*
X9124944Y-15114936D02*
X9115420Y-15124460D01*
X9115420Y-15124460D02*
X9096372Y-15133984D01*
X9096372Y-15133984D02*
X9048753Y-15133984D01*
X9048753Y-15133984D02*
X9029706Y-15124460D01*
X9029706Y-15124460D02*
X9020182Y-15114936D01*
X9248753Y-15019698D02*
X9229706Y-15010174D01*
X9229706Y-15010174D02*
X9220182Y-15000650D01*
X9220182Y-15000650D02*
X9210658Y-14981603D01*
X9210658Y-14981603D02*
X9210658Y-14972079D01*
X9210658Y-14972079D02*
X9220182Y-14953031D01*
X9220182Y-14953031D02*
X9229706Y-14943508D01*
X9229706Y-14943508D02*
X9248753Y-14933984D01*
X9248753Y-14933984D02*
X9286849Y-14933984D01*
X9286849Y-14933984D02*
X9305896Y-14943508D01*
X9305896Y-14943508D02*
X9315420Y-14953031D01*
X9315420Y-14953031D02*
X9324944Y-14972079D01*
X9324944Y-14972079D02*
X9324944Y-14981603D01*
X9324944Y-14981603D02*
X9315420Y-15000650D01*
X9315420Y-15000650D02*
X9305896Y-15010174D01*
X9305896Y-15010174D02*
X9286849Y-15019698D01*
X9286849Y-15019698D02*
X9248753Y-15019698D01*
X9248753Y-15019698D02*
X9229706Y-15029222D01*
X9229706Y-15029222D02*
X9220182Y-15038746D01*
X9220182Y-15038746D02*
X9210658Y-15057793D01*
X9210658Y-15057793D02*
X9210658Y-15095888D01*
X9210658Y-15095888D02*
X9220182Y-15114936D01*
X9220182Y-15114936D02*
X9229706Y-15124460D01*
X9229706Y-15124460D02*
X9248753Y-15133984D01*
X9248753Y-15133984D02*
X9286849Y-15133984D01*
X9286849Y-15133984D02*
X9305896Y-15124460D01*
X9305896Y-15124460D02*
X9315420Y-15114936D01*
X9315420Y-15114936D02*
X9324944Y-15095888D01*
X9324944Y-15095888D02*
X9324944Y-15057793D01*
X9324944Y-15057793D02*
X9315420Y-15038746D01*
X9315420Y-15038746D02*
X9305896Y-15029222D01*
X9305896Y-15029222D02*
X9286849Y-15019698D01*
X9563039Y-15133984D02*
X9563039Y-14933984D01*
X9648753Y-15133984D02*
X9648753Y-15029222D01*
X9648753Y-15029222D02*
X9639230Y-15010174D01*
X9639230Y-15010174D02*
X9620182Y-15000650D01*
X9620182Y-15000650D02*
X9591611Y-15000650D01*
X9591611Y-15000650D02*
X9572563Y-15010174D01*
X9572563Y-15010174D02*
X9563039Y-15019698D01*
X9772563Y-15133984D02*
X9753515Y-15124460D01*
X9753515Y-15124460D02*
X9743992Y-15114936D01*
X9743992Y-15114936D02*
X9734468Y-15095888D01*
X9734468Y-15095888D02*
X9734468Y-15038746D01*
X9734468Y-15038746D02*
X9743992Y-15019698D01*
X9743992Y-15019698D02*
X9753515Y-15010174D01*
X9753515Y-15010174D02*
X9772563Y-15000650D01*
X9772563Y-15000650D02*
X9801134Y-15000650D01*
X9801134Y-15000650D02*
X9820182Y-15010174D01*
X9820182Y-15010174D02*
X9829706Y-15019698D01*
X9829706Y-15019698D02*
X9839230Y-15038746D01*
X9839230Y-15038746D02*
X9839230Y-15095888D01*
X9839230Y-15095888D02*
X9829706Y-15114936D01*
X9829706Y-15114936D02*
X9820182Y-15124460D01*
X9820182Y-15124460D02*
X9801134Y-15133984D01*
X9801134Y-15133984D02*
X9772563Y-15133984D01*
X9953515Y-15133984D02*
X9934468Y-15124460D01*
X9934468Y-15124460D02*
X9924944Y-15105412D01*
X9924944Y-15105412D02*
X9924944Y-14933984D01*
X10105896Y-15124460D02*
X10086849Y-15133984D01*
X10086849Y-15133984D02*
X10048753Y-15133984D01*
X10048753Y-15133984D02*
X10029706Y-15124460D01*
X10029706Y-15124460D02*
X10020182Y-15105412D01*
X10020182Y-15105412D02*
X10020182Y-15029222D01*
X10020182Y-15029222D02*
X10029706Y-15010174D01*
X10029706Y-15010174D02*
X10048753Y-15000650D01*
X10048753Y-15000650D02*
X10086849Y-15000650D01*
X10086849Y-15000650D02*
X10105896Y-15010174D01*
X10105896Y-15010174D02*
X10115420Y-15029222D01*
X10115420Y-15029222D02*
X10115420Y-15048269D01*
X10115420Y-15048269D02*
X10020182Y-15067317D01*
X10191611Y-15124460D02*
X10210658Y-15133984D01*
X10210658Y-15133984D02*
X10248753Y-15133984D01*
X10248753Y-15133984D02*
X10267801Y-15124460D01*
X10267801Y-15124460D02*
X10277325Y-15105412D01*
X10277325Y-15105412D02*
X10277325Y-15095888D01*
X10277325Y-15095888D02*
X10267801Y-15076841D01*
X10267801Y-15076841D02*
X10248753Y-15067317D01*
X10248753Y-15067317D02*
X10220182Y-15067317D01*
X10220182Y-15067317D02*
X10201134Y-15057793D01*
X10201134Y-15057793D02*
X10191611Y-15038746D01*
X10191611Y-15038746D02*
X10191611Y-15029222D01*
X10191611Y-15029222D02*
X10201134Y-15010174D01*
X10201134Y-15010174D02*
X10220182Y-15000650D01*
X10220182Y-15000650D02*
X10248753Y-15000650D01*
X10248753Y-15000650D02*
X10267801Y-15010174D01*
X10343992Y-15210174D02*
X10353515Y-15200650D01*
X10353515Y-15200650D02*
X10372563Y-15172079D01*
X10372563Y-15172079D02*
X10382087Y-15153031D01*
X10382087Y-15153031D02*
X10391611Y-15124460D01*
X10391611Y-15124460D02*
X10401134Y-15076841D01*
X10401134Y-15076841D02*
X10401134Y-15038746D01*
X10401134Y-15038746D02*
X10391611Y-14991127D01*
X10391611Y-14991127D02*
X10382087Y-14962555D01*
X10382087Y-14962555D02*
X10372563Y-14943508D01*
X10372563Y-14943508D02*
X10353515Y-14914936D01*
X10353515Y-14914936D02*
X10343992Y-14905412D01*
X4997500Y-15306500D02*
G75*
G02*
X4797500Y-15306500I-100000J0D01*
G01*
X4797500Y-15306500D02*
G75*
G02*
X4997500Y-15306500I100000J0D01*
G01*
X5239229Y-15197984D02*
X5363039Y-15197984D01*
X5363039Y-15197984D02*
X5296372Y-15274174D01*
X5296372Y-15274174D02*
X5324944Y-15274174D01*
X5324944Y-15274174D02*
X5343991Y-15283698D01*
X5343991Y-15283698D02*
X5353515Y-15293222D01*
X5353515Y-15293222D02*
X5363039Y-15312269D01*
X5363039Y-15312269D02*
X5363039Y-15359888D01*
X5363039Y-15359888D02*
X5353515Y-15378936D01*
X5353515Y-15378936D02*
X5343991Y-15388460D01*
X5343991Y-15388460D02*
X5324944Y-15397984D01*
X5324944Y-15397984D02*
X5267801Y-15397984D01*
X5267801Y-15397984D02*
X5248753Y-15388460D01*
X5248753Y-15388460D02*
X5239229Y-15378936D01*
X5448753Y-15378936D02*
X5458277Y-15388460D01*
X5458277Y-15388460D02*
X5448753Y-15397984D01*
X5448753Y-15397984D02*
X5439229Y-15388460D01*
X5439229Y-15388460D02*
X5448753Y-15378936D01*
X5448753Y-15378936D02*
X5448753Y-15397984D01*
X5534467Y-15217031D02*
X5543991Y-15207508D01*
X5543991Y-15207508D02*
X5563039Y-15197984D01*
X5563039Y-15197984D02*
X5610658Y-15197984D01*
X5610658Y-15197984D02*
X5629705Y-15207508D01*
X5629705Y-15207508D02*
X5639229Y-15217031D01*
X5639229Y-15217031D02*
X5648753Y-15236079D01*
X5648753Y-15236079D02*
X5648753Y-15255127D01*
X5648753Y-15255127D02*
X5639229Y-15283698D01*
X5639229Y-15283698D02*
X5524944Y-15397984D01*
X5524944Y-15397984D02*
X5648753Y-15397984D01*
X5772562Y-15197984D02*
X5791610Y-15197984D01*
X5791610Y-15197984D02*
X5810658Y-15207508D01*
X5810658Y-15207508D02*
X5820182Y-15217031D01*
X5820182Y-15217031D02*
X5829705Y-15236079D01*
X5829705Y-15236079D02*
X5839229Y-15274174D01*
X5839229Y-15274174D02*
X5839229Y-15321793D01*
X5839229Y-15321793D02*
X5829705Y-15359888D01*
X5829705Y-15359888D02*
X5820182Y-15378936D01*
X5820182Y-15378936D02*
X5810658Y-15388460D01*
X5810658Y-15388460D02*
X5791610Y-15397984D01*
X5791610Y-15397984D02*
X5772562Y-15397984D01*
X5772562Y-15397984D02*
X5753515Y-15388460D01*
X5753515Y-15388460D02*
X5743991Y-15378936D01*
X5743991Y-15378936D02*
X5734467Y-15359888D01*
X5734467Y-15359888D02*
X5724943Y-15321793D01*
X5724943Y-15321793D02*
X5724943Y-15274174D01*
X5724943Y-15274174D02*
X5734467Y-15236079D01*
X5734467Y-15236079D02*
X5743991Y-15217031D01*
X5743991Y-15217031D02*
X5753515Y-15207508D01*
X5753515Y-15207508D02*
X5772562Y-15197984D01*
X5963039Y-15197984D02*
X5982086Y-15197984D01*
X5982086Y-15197984D02*
X6001134Y-15207508D01*
X6001134Y-15207508D02*
X6010658Y-15217031D01*
X6010658Y-15217031D02*
X6020182Y-15236079D01*
X6020182Y-15236079D02*
X6029705Y-15274174D01*
X6029705Y-15274174D02*
X6029705Y-15321793D01*
X6029705Y-15321793D02*
X6020182Y-15359888D01*
X6020182Y-15359888D02*
X6010658Y-15378936D01*
X6010658Y-15378936D02*
X6001134Y-15388460D01*
X6001134Y-15388460D02*
X5982086Y-15397984D01*
X5982086Y-15397984D02*
X5963039Y-15397984D01*
X5963039Y-15397984D02*
X5943991Y-15388460D01*
X5943991Y-15388460D02*
X5934467Y-15378936D01*
X5934467Y-15378936D02*
X5924943Y-15359888D01*
X5924943Y-15359888D02*
X5915420Y-15321793D01*
X5915420Y-15321793D02*
X5915420Y-15274174D01*
X5915420Y-15274174D02*
X5924943Y-15236079D01*
X5924943Y-15236079D02*
X5934467Y-15217031D01*
X5934467Y-15217031D02*
X5943991Y-15207508D01*
X5943991Y-15207508D02*
X5963039Y-15197984D01*
X6115420Y-15397984D02*
X6115420Y-15264650D01*
X6115420Y-15283698D02*
X6124943Y-15274174D01*
X6124943Y-15274174D02*
X6143991Y-15264650D01*
X6143991Y-15264650D02*
X6172563Y-15264650D01*
X6172563Y-15264650D02*
X6191610Y-15274174D01*
X6191610Y-15274174D02*
X6201134Y-15293222D01*
X6201134Y-15293222D02*
X6201134Y-15397984D01*
X6201134Y-15293222D02*
X6210658Y-15274174D01*
X6210658Y-15274174D02*
X6229705Y-15264650D01*
X6229705Y-15264650D02*
X6258277Y-15264650D01*
X6258277Y-15264650D02*
X6277324Y-15274174D01*
X6277324Y-15274174D02*
X6286848Y-15293222D01*
X6286848Y-15293222D02*
X6286848Y-15397984D01*
X6382086Y-15397984D02*
X6382086Y-15264650D01*
X6382086Y-15283698D02*
X6391610Y-15274174D01*
X6391610Y-15274174D02*
X6410658Y-15264650D01*
X6410658Y-15264650D02*
X6439229Y-15264650D01*
X6439229Y-15264650D02*
X6458277Y-15274174D01*
X6458277Y-15274174D02*
X6467801Y-15293222D01*
X6467801Y-15293222D02*
X6467801Y-15397984D01*
X6467801Y-15293222D02*
X6477324Y-15274174D01*
X6477324Y-15274174D02*
X6496372Y-15264650D01*
X6496372Y-15264650D02*
X6524943Y-15264650D01*
X6524943Y-15264650D02*
X6543991Y-15274174D01*
X6543991Y-15274174D02*
X6553515Y-15293222D01*
X6553515Y-15293222D02*
X6553515Y-15397984D01*
X6943991Y-15188460D02*
X6772563Y-15445603D01*
X7201134Y-15197984D02*
X7220182Y-15197984D01*
X7220182Y-15197984D02*
X7239229Y-15207508D01*
X7239229Y-15207508D02*
X7248753Y-15217031D01*
X7248753Y-15217031D02*
X7258277Y-15236079D01*
X7258277Y-15236079D02*
X7267801Y-15274174D01*
X7267801Y-15274174D02*
X7267801Y-15321793D01*
X7267801Y-15321793D02*
X7258277Y-15359888D01*
X7258277Y-15359888D02*
X7248753Y-15378936D01*
X7248753Y-15378936D02*
X7239229Y-15388460D01*
X7239229Y-15388460D02*
X7220182Y-15397984D01*
X7220182Y-15397984D02*
X7201134Y-15397984D01*
X7201134Y-15397984D02*
X7182086Y-15388460D01*
X7182086Y-15388460D02*
X7172563Y-15378936D01*
X7172563Y-15378936D02*
X7163039Y-15359888D01*
X7163039Y-15359888D02*
X7153515Y-15321793D01*
X7153515Y-15321793D02*
X7153515Y-15274174D01*
X7153515Y-15274174D02*
X7163039Y-15236079D01*
X7163039Y-15236079D02*
X7172563Y-15217031D01*
X7172563Y-15217031D02*
X7182086Y-15207508D01*
X7182086Y-15207508D02*
X7201134Y-15197984D01*
X7353515Y-15378936D02*
X7363039Y-15388460D01*
X7363039Y-15388460D02*
X7353515Y-15397984D01*
X7353515Y-15397984D02*
X7343991Y-15388460D01*
X7343991Y-15388460D02*
X7353515Y-15378936D01*
X7353515Y-15378936D02*
X7353515Y-15397984D01*
X7553515Y-15397984D02*
X7439229Y-15397984D01*
X7496372Y-15397984D02*
X7496372Y-15197984D01*
X7496372Y-15197984D02*
X7477325Y-15226555D01*
X7477325Y-15226555D02*
X7458277Y-15245603D01*
X7458277Y-15245603D02*
X7439229Y-15255127D01*
X7629706Y-15217031D02*
X7639229Y-15207508D01*
X7639229Y-15207508D02*
X7658277Y-15197984D01*
X7658277Y-15197984D02*
X7705896Y-15197984D01*
X7705896Y-15197984D02*
X7724944Y-15207508D01*
X7724944Y-15207508D02*
X7734467Y-15217031D01*
X7734467Y-15217031D02*
X7743991Y-15236079D01*
X7743991Y-15236079D02*
X7743991Y-15255127D01*
X7743991Y-15255127D02*
X7734467Y-15283698D01*
X7734467Y-15283698D02*
X7620182Y-15397984D01*
X7620182Y-15397984D02*
X7743991Y-15397984D01*
X7915420Y-15197984D02*
X7877325Y-15197984D01*
X7877325Y-15197984D02*
X7858277Y-15207508D01*
X7858277Y-15207508D02*
X7848753Y-15217031D01*
X7848753Y-15217031D02*
X7829706Y-15245603D01*
X7829706Y-15245603D02*
X7820182Y-15283698D01*
X7820182Y-15283698D02*
X7820182Y-15359888D01*
X7820182Y-15359888D02*
X7829706Y-15378936D01*
X7829706Y-15378936D02*
X7839229Y-15388460D01*
X7839229Y-15388460D02*
X7858277Y-15397984D01*
X7858277Y-15397984D02*
X7896372Y-15397984D01*
X7896372Y-15397984D02*
X7915420Y-15388460D01*
X7915420Y-15388460D02*
X7924944Y-15378936D01*
X7924944Y-15378936D02*
X7934467Y-15359888D01*
X7934467Y-15359888D02*
X7934467Y-15312269D01*
X7934467Y-15312269D02*
X7924944Y-15293222D01*
X7924944Y-15293222D02*
X7915420Y-15283698D01*
X7915420Y-15283698D02*
X7896372Y-15274174D01*
X7896372Y-15274174D02*
X7858277Y-15274174D01*
X7858277Y-15274174D02*
X7839229Y-15283698D01*
X7839229Y-15283698D02*
X7829706Y-15293222D01*
X7829706Y-15293222D02*
X7820182Y-15312269D01*
X8058277Y-15197984D02*
X8077325Y-15197984D01*
X8077325Y-15197984D02*
X8096372Y-15207508D01*
X8096372Y-15207508D02*
X8105896Y-15217031D01*
X8105896Y-15217031D02*
X8115420Y-15236079D01*
X8115420Y-15236079D02*
X8124944Y-15274174D01*
X8124944Y-15274174D02*
X8124944Y-15321793D01*
X8124944Y-15321793D02*
X8115420Y-15359888D01*
X8115420Y-15359888D02*
X8105896Y-15378936D01*
X8105896Y-15378936D02*
X8096372Y-15388460D01*
X8096372Y-15388460D02*
X8077325Y-15397984D01*
X8077325Y-15397984D02*
X8058277Y-15397984D01*
X8058277Y-15397984D02*
X8039229Y-15388460D01*
X8039229Y-15388460D02*
X8029706Y-15378936D01*
X8029706Y-15378936D02*
X8020182Y-15359888D01*
X8020182Y-15359888D02*
X8010658Y-15321793D01*
X8010658Y-15321793D02*
X8010658Y-15274174D01*
X8010658Y-15274174D02*
X8020182Y-15236079D01*
X8020182Y-15236079D02*
X8029706Y-15217031D01*
X8029706Y-15217031D02*
X8039229Y-15207508D01*
X8039229Y-15207508D02*
X8058277Y-15197984D01*
X8201134Y-15197984D02*
X8201134Y-15236079D01*
X8277325Y-15197984D02*
X8277325Y-15236079D01*
X8572563Y-15474174D02*
X8563039Y-15464650D01*
X8563039Y-15464650D02*
X8543991Y-15436079D01*
X8543991Y-15436079D02*
X8534468Y-15417031D01*
X8534468Y-15417031D02*
X8524944Y-15388460D01*
X8524944Y-15388460D02*
X8515420Y-15340841D01*
X8515420Y-15340841D02*
X8515420Y-15302746D01*
X8515420Y-15302746D02*
X8524944Y-15255127D01*
X8524944Y-15255127D02*
X8534468Y-15226555D01*
X8534468Y-15226555D02*
X8543991Y-15207508D01*
X8543991Y-15207508D02*
X8563039Y-15178936D01*
X8563039Y-15178936D02*
X8572563Y-15169412D01*
X8629706Y-15197984D02*
X8763039Y-15197984D01*
X8763039Y-15197984D02*
X8677325Y-15397984D01*
X8991611Y-15397984D02*
X8991611Y-15197984D01*
X9077325Y-15397984D02*
X9077325Y-15293222D01*
X9077325Y-15293222D02*
X9067801Y-15274174D01*
X9067801Y-15274174D02*
X9048753Y-15264650D01*
X9048753Y-15264650D02*
X9020182Y-15264650D01*
X9020182Y-15264650D02*
X9001134Y-15274174D01*
X9001134Y-15274174D02*
X8991611Y-15283698D01*
X9201134Y-15397984D02*
X9182087Y-15388460D01*
X9182087Y-15388460D02*
X9172563Y-15378936D01*
X9172563Y-15378936D02*
X9163039Y-15359888D01*
X9163039Y-15359888D02*
X9163039Y-15302746D01*
X9163039Y-15302746D02*
X9172563Y-15283698D01*
X9172563Y-15283698D02*
X9182087Y-15274174D01*
X9182087Y-15274174D02*
X9201134Y-15264650D01*
X9201134Y-15264650D02*
X9229706Y-15264650D01*
X9229706Y-15264650D02*
X9248753Y-15274174D01*
X9248753Y-15274174D02*
X9258277Y-15283698D01*
X9258277Y-15283698D02*
X9267801Y-15302746D01*
X9267801Y-15302746D02*
X9267801Y-15359888D01*
X9267801Y-15359888D02*
X9258277Y-15378936D01*
X9258277Y-15378936D02*
X9248753Y-15388460D01*
X9248753Y-15388460D02*
X9229706Y-15397984D01*
X9229706Y-15397984D02*
X9201134Y-15397984D01*
X9382087Y-15397984D02*
X9363039Y-15388460D01*
X9363039Y-15388460D02*
X9353515Y-15369412D01*
X9353515Y-15369412D02*
X9353515Y-15197984D01*
X9534468Y-15388460D02*
X9515420Y-15397984D01*
X9515420Y-15397984D02*
X9477325Y-15397984D01*
X9477325Y-15397984D02*
X9458277Y-15388460D01*
X9458277Y-15388460D02*
X9448753Y-15369412D01*
X9448753Y-15369412D02*
X9448753Y-15293222D01*
X9448753Y-15293222D02*
X9458277Y-15274174D01*
X9458277Y-15274174D02*
X9477325Y-15264650D01*
X9477325Y-15264650D02*
X9515420Y-15264650D01*
X9515420Y-15264650D02*
X9534468Y-15274174D01*
X9534468Y-15274174D02*
X9543992Y-15293222D01*
X9543992Y-15293222D02*
X9543992Y-15312269D01*
X9543992Y-15312269D02*
X9448753Y-15331317D01*
X9620182Y-15388460D02*
X9639230Y-15397984D01*
X9639230Y-15397984D02*
X9677325Y-15397984D01*
X9677325Y-15397984D02*
X9696373Y-15388460D01*
X9696373Y-15388460D02*
X9705896Y-15369412D01*
X9705896Y-15369412D02*
X9705896Y-15359888D01*
X9705896Y-15359888D02*
X9696373Y-15340841D01*
X9696373Y-15340841D02*
X9677325Y-15331317D01*
X9677325Y-15331317D02*
X9648753Y-15331317D01*
X9648753Y-15331317D02*
X9629706Y-15321793D01*
X9629706Y-15321793D02*
X9620182Y-15302746D01*
X9620182Y-15302746D02*
X9620182Y-15293222D01*
X9620182Y-15293222D02*
X9629706Y-15274174D01*
X9629706Y-15274174D02*
X9648753Y-15264650D01*
X9648753Y-15264650D02*
X9677325Y-15264650D01*
X9677325Y-15264650D02*
X9696373Y-15274174D01*
X9772563Y-15474174D02*
X9782087Y-15464650D01*
X9782087Y-15464650D02*
X9801134Y-15436079D01*
X9801134Y-15436079D02*
X9810658Y-15417031D01*
X9810658Y-15417031D02*
X9820182Y-15388460D01*
X9820182Y-15388460D02*
X9829706Y-15340841D01*
X9829706Y-15340841D02*
X9829706Y-15302746D01*
X9829706Y-15302746D02*
X9820182Y-15255127D01*
X9820182Y-15255127D02*
X9810658Y-15226555D01*
X9810658Y-15226555D02*
X9801134Y-15207508D01*
X9801134Y-15207508D02*
X9782087Y-15178936D01*
X9782087Y-15178936D02*
X9772563Y-15169412D01*
M02*
