%TF.GenerationSoftware,KiCad,Pcbnew,8.0.2*%
%TF.CreationDate,2025-01-15T11:34:12+07:00*%
%TF.ProjectId,kicad-shield-mechanical,6b696361-642d-4736-9869-656c642d6d65,rev?*%
%TF.SameCoordinates,Original*%
%TF.FileFunction,Drillmap*%
%TF.FilePolarity,Positive*%
%FSLAX45Y45*%
G04 Gerber Fmt 4.5, Leading zero omitted, Abs format (unit mm)*
G04 Created by KiCad (PCBNEW 8.0.2) date 2025-01-15 11:34:12*
%MOMM*%
%LPD*%
G01*
G04 APERTURE LIST*
%ADD10C,0.050000*%
%ADD11C,0.200000*%
G04 APERTURE END LIST*
D10*
X5350000Y-5000000D02*
X14050000Y-5000000D01*
X14400000Y-14050000D02*
G75*
G02*
X14050000Y-14400000I-350000J0D01*
G01*
X13500000Y-9100000D02*
X13500000Y-10800000D01*
X13500000Y-9100000D02*
G75*
G02*
X13850000Y-8750000I350000J0D01*
G01*
X13850000Y-11150000D02*
G75*
G02*
X13500000Y-10800000I0J350000D01*
G01*
X14400000Y-11500000D02*
X14400000Y-14050000D01*
X5350000Y-14400000D02*
G75*
G02*
X5000000Y-14050000I0J350000D01*
G01*
X14050000Y-11150000D02*
G75*
G02*
X14400000Y-11500000I0J-350000D01*
G01*
X14050000Y-8750000D02*
X13850000Y-8750000D01*
X14400000Y-8400000D02*
G75*
G02*
X14050000Y-8750000I-350000J0D01*
G01*
X5000000Y-14050000D02*
X5000000Y-5350000D01*
X14050000Y-5000000D02*
G75*
G02*
X14400000Y-5350000I0J-350000D01*
G01*
X5000000Y-5350000D02*
G75*
G02*
X5350000Y-5000000I350000J0D01*
G01*
X14400000Y-5350000D02*
X14400000Y-8400000D01*
X13850000Y-11150000D02*
X14050000Y-11150000D01*
X14050000Y-14400000D02*
X5350000Y-14400000D01*
D11*
X5258277Y-14713984D02*
X5258277Y-14513984D01*
X5258277Y-14513984D02*
X5305896Y-14513984D01*
X5305896Y-14513984D02*
X5334467Y-14523508D01*
X5334467Y-14523508D02*
X5353515Y-14542555D01*
X5353515Y-14542555D02*
X5363039Y-14561603D01*
X5363039Y-14561603D02*
X5372563Y-14599698D01*
X5372563Y-14599698D02*
X5372563Y-14628269D01*
X5372563Y-14628269D02*
X5363039Y-14666365D01*
X5363039Y-14666365D02*
X5353515Y-14685412D01*
X5353515Y-14685412D02*
X5334467Y-14704460D01*
X5334467Y-14704460D02*
X5305896Y-14713984D01*
X5305896Y-14713984D02*
X5258277Y-14713984D01*
X5458277Y-14713984D02*
X5458277Y-14580650D01*
X5458277Y-14618746D02*
X5467801Y-14599698D01*
X5467801Y-14599698D02*
X5477324Y-14590174D01*
X5477324Y-14590174D02*
X5496372Y-14580650D01*
X5496372Y-14580650D02*
X5515420Y-14580650D01*
X5582086Y-14713984D02*
X5582086Y-14580650D01*
X5582086Y-14513984D02*
X5572563Y-14523508D01*
X5572563Y-14523508D02*
X5582086Y-14533031D01*
X5582086Y-14533031D02*
X5591610Y-14523508D01*
X5591610Y-14523508D02*
X5582086Y-14513984D01*
X5582086Y-14513984D02*
X5582086Y-14533031D01*
X5705896Y-14713984D02*
X5686848Y-14704460D01*
X5686848Y-14704460D02*
X5677324Y-14685412D01*
X5677324Y-14685412D02*
X5677324Y-14513984D01*
X5810658Y-14713984D02*
X5791610Y-14704460D01*
X5791610Y-14704460D02*
X5782086Y-14685412D01*
X5782086Y-14685412D02*
X5782086Y-14513984D01*
X6039229Y-14713984D02*
X6039229Y-14513984D01*
X6039229Y-14513984D02*
X6105896Y-14656841D01*
X6105896Y-14656841D02*
X6172562Y-14513984D01*
X6172562Y-14513984D02*
X6172562Y-14713984D01*
X6353515Y-14713984D02*
X6353515Y-14609222D01*
X6353515Y-14609222D02*
X6343991Y-14590174D01*
X6343991Y-14590174D02*
X6324943Y-14580650D01*
X6324943Y-14580650D02*
X6286848Y-14580650D01*
X6286848Y-14580650D02*
X6267801Y-14590174D01*
X6353515Y-14704460D02*
X6334467Y-14713984D01*
X6334467Y-14713984D02*
X6286848Y-14713984D01*
X6286848Y-14713984D02*
X6267801Y-14704460D01*
X6267801Y-14704460D02*
X6258277Y-14685412D01*
X6258277Y-14685412D02*
X6258277Y-14666365D01*
X6258277Y-14666365D02*
X6267801Y-14647317D01*
X6267801Y-14647317D02*
X6286848Y-14637793D01*
X6286848Y-14637793D02*
X6334467Y-14637793D01*
X6334467Y-14637793D02*
X6353515Y-14628269D01*
X6448753Y-14580650D02*
X6448753Y-14780650D01*
X6448753Y-14590174D02*
X6467801Y-14580650D01*
X6467801Y-14580650D02*
X6505896Y-14580650D01*
X6505896Y-14580650D02*
X6524943Y-14590174D01*
X6524943Y-14590174D02*
X6534467Y-14599698D01*
X6534467Y-14599698D02*
X6543991Y-14618746D01*
X6543991Y-14618746D02*
X6543991Y-14675888D01*
X6543991Y-14675888D02*
X6534467Y-14694936D01*
X6534467Y-14694936D02*
X6524943Y-14704460D01*
X6524943Y-14704460D02*
X6505896Y-14713984D01*
X6505896Y-14713984D02*
X6467801Y-14713984D01*
X6467801Y-14713984D02*
X6448753Y-14704460D01*
X6629705Y-14694936D02*
X6639229Y-14704460D01*
X6639229Y-14704460D02*
X6629705Y-14713984D01*
X6629705Y-14713984D02*
X6620182Y-14704460D01*
X6620182Y-14704460D02*
X6629705Y-14694936D01*
X6629705Y-14694936D02*
X6629705Y-14713984D01*
X6629705Y-14590174D02*
X6639229Y-14599698D01*
X6639229Y-14599698D02*
X6629705Y-14609222D01*
X6629705Y-14609222D02*
X6620182Y-14599698D01*
X6620182Y-14599698D02*
X6629705Y-14590174D01*
X6629705Y-14590174D02*
X6629705Y-14609222D01*
M02*
